<ttFont>
        <CharString name=".notdef">
          -395 endchar
        </CharString>
        <CharString name="A">
          59 21 -21 133 117.5 248.5 146 hstem
          -23 581 vstem
          558 hmoveto
          -106 645 rlineto
          -190 hlineto
          -285 -645 rlineto
          156 hlineto
          31 101 13 30 98 3 113 -2 5 -40 5 -92 rlineto
          -25 251 rmoveto
          -74 -1 -72 2 104 247 rlineto
          10 hlineto
          endchar
        </CharString>
        <CharString name="AE">
          273 0 123 398 124 -12 12 hstemhm
          378 151.5 -147 153.5 186 10 hintmask 11001100
          795 117 rmoveto
          -8 12 rlineto
          hintmask 11010100
          -162 -6 rlineto
          -97 hlineto
          3 122 201 51 rlineto
          111 vlineto
          -10 9 rlineto
          hintmask 11001100
          -188 -51 4 156 rlineto
          81 hlineto
          150 -5 rlineto
          hintmask 10101100
          25 117 rlineto
          hintmask 11010100
          -8 12 rlineto
          -463 hlineto
          -370 -645 rlineto
          157 hlineto
          42 101 27 48 200 55 -2 -112 -7 -92 rlineto
          400 hlineto
          hintmask 11001100
          -389 323 rmoveto
          -124 -34 117 210 rlineto
          10 hlineto
          endchar
        </CharString>
        <CharString name="AEacute">
          273 0 123 398 124 -12 12 hstemhm
          378 152.5 -147 153.5 185 10 hintmask 11001100
          460 719 rmoveto
          15 -4 72 23 71 23 80 29 rlinecurve
          5 14 -40 92 -14 4 -70 -42 -67 -36 -76 -39 rlinecurve
          360 -666 rmoveto
          -8 12 rlineto
          hintmask 11010100
          -162 -6 rlineto
          -97 hlineto
          3 122 200 51 rlineto
          111 vlineto
          -10 9 rlineto
          hintmask 11001100
          -187 -51 4 156 rlineto
          81 hlineto
          150 -5 rlineto
          hintmask 10101100
          25 117 rlineto
          hintmask 11010100
          -8 12 rlineto
          -463 hlineto
          -370 -645 rlineto
          156 hlineto
          43 101 27 48 199 55 -2 -112 -6 -92 rlineto
          400 hlineto
          hintmask 11001100
          -389 323 rmoveto
          -124 -33 117 209 rlineto
          10 hlineto
          endchar
        </CharString>
        <CharString name="Aacute">
          59 21 -21 133 117.5 248.5 146 hstem
          -22 581 vstem
          269 719 rmoveto
          15 -4 72 23 71 23 80 29 rlinecurve
          5 14 -40 92 -14 4 -70 -42 -67 -36 -76 -39 rlinecurve
          314 -783 rmoveto
          -106 645 rlineto
          -190 hlineto
          -285 -645 rlineto
          156 hlineto
          30 101 13 30 98 3 113 -2 5 -40 5 -92 rlineto
          -25 251 rmoveto
          -74 -1 -71 2 104 247 rlineto
          10 hlineto
          endchar
        </CharString>
        <CharString name="Abreve">
          59 21 -21 133 117.5 248.5 146 74 108 hstem
          -22 581 vstem
          367 719 rmoveto
          77 55 40 73 33 hvcurveto
          -27 48 rlineto
          -22 hlineto
          -34 -23 -39 -19 -47 hhcurveto
          -47 -37 18 35 -16 hvcurveto
          -22 hlineto
          -40 -48 rlineto
          -73 19 56 -40 80 hhcurveto
          192 -719 rmoveto
          -106 645 rlineto
          -190 hlineto
          -285 -645 rlineto
          156 hlineto
          30 101 13 30 98 3 113 -2 5 -40 5 -92 rlineto
          -25 251 rmoveto
          -74 -1 -71 2 104 247 rlineto
          10 hlineto
          endchar
        </CharString>
        <CharString name="Abreveacute">
          59 21 -21 133 117.5 248.5 146 54 108 hstem
          -22 581 vstem
          367 846 rmoveto
          13 4 40 36 39 37 39 38 rlinecurve
          -2 12 -71 46 -11 -3 -31 -45 -31 -44 -32 -43 rlinecurve
          50 -185 rmoveto
          76 55 40 73 34 hvcurveto
          -28 48 rlineto
          -22 hlineto
          -34 -22 -39 -19 -48 hhcurveto
          -46 -38 18 35 -15 hvcurveto
          -22 hlineto
          -40 -48 rlineto
          -73 19 56 -40 80 hhcurveto
          189 -699 rmoveto
          -106 645 rlineto
          -190 hlineto
          -285 -645 rlineto
          156 hlineto
          30 101 13 30 98 3 113 -2 5 -40 5 -92 rlineto
          -25 251 rmoveto
          -74 -1 -71 2 104 247 rlineto
          10 hlineto
          endchar
        </CharString>
        <CharString name="Abrevedotbelow">
          59 -210 162 69 -21 133 117.5 248.5 146 74 108 hstem
          181 159 vstem
          367 719 rmoveto
          77 55 40 73 33 hvcurveto
          -27 48 rlineto
          -22 hlineto
          -34 -23 -39 -19 -47 hhcurveto
          -47 -37 18 35 -16 hvcurveto
          -22 hlineto
          -40 -48 rlineto
          -73 19 56 -40 80 hhcurveto
          192 -719 rmoveto
          -106 645 rlineto
          -190 hlineto
          -285 -645 rlineto
          156 hlineto
          30 101 13 30 98 3 113 -2 5 -40 5 -92 rlineto
          -25 251 rmoveto
          -74 -1 -71 2 104 247 rlineto
          10 hlineto
          -78 -547 rmoveto
          -51 -32 -32 -52 -50 27 -28 50 50 32 33 52 48 -28 29 -48 hvcurveto
          endchar
        </CharString>
        <CharString name="Abrevegrave">
          59 21 -21 133 117.5 248.5 146 54 107 hstem
          -22 581 vstem
          385 846 rmoveto
          47 38 -32 43 -31 44 -31 45 rlinecurve
          -11 3 -71 -46 -2 -12 39 -38 39 -37 40 -36 rlinecurve
          -2 -151 rmoveto
          77 55 40 72 33 hvcurveto
          -27 49 rlineto
          -22 hlineto
          -34 -23 -39 -20 -47 hhcurveto
          -47 -37 19 35 -16 hvcurveto
          -22 hlineto
          -40 -49 rlineto
          -72 19 56 -40 80 hhcurveto
          189 -699 rmoveto
          -106 645 rlineto
          -190 hlineto
          -285 -645 rlineto
          156 hlineto
          30 101 13 30 98 3 113 -2 5 -40 5 -92 rlineto
          -25 251 rmoveto
          -74 -1 -71 2 104 247 rlineto
          10 hlineto
          endchar
        </CharString>
        <CharString name="Abrevehookabove">
          59 21 -21 133 117.5 248.5 146 55 107 200 69 hstem
          377 80 vstem
          348 1007 rmoveto
          16 13 -7 -16 -19 -20 -29 -33 -24 hvcurveto
          46 -71 54 32 -24 40 rlineto
          43 37 14 21 28 vvcurveto
          46 -38 31 -49 -40 -42 -21 -33 -31 vhcurveto
          25 -40 rlineto
          16 20 26 9 20 hhcurveto
          22 -307 rmoveto
          76 55 40 72 34 hvcurveto
          -28 49 rlineto
          -22 hlineto
          -34 -22 -39 -20 -48 hhcurveto
          -46 -38 18 36 -15 hvcurveto
          -22 hlineto
          -40 -49 rlineto
          -72 19 56 -40 80 hhcurveto
          189 -700 rmoveto
          -106 645 rlineto
          -190 hlineto
          -285 -645 rlineto
          156 hlineto
          30 101 13 30 98 3 113 -2 5 -40 5 -92 rlineto
          -25 251 rmoveto
          -74 -1 -71 2 104 247 rlineto
          10 hlineto
          endchar
        </CharString>
        <CharString name="Abrevetilde">
          59 21 -21 133 117.5 248.5 146 54 101 hstem
          -22 589 vstem
          567 1004 rmoveto
          -41 42 rlineto
          -12 hlineto
          -27 -23 -16 -24 -21 hhcurveto
          -24 -73 26 7 -44 hvcurveto
          -13 -5 -68 -90 rlineto
          -12 vlineto
          42 -42 rlineto
          12 hlineto
          26 22 17 25 20 hhcurveto
          25 72 -28 -5 45 hvcurveto
          13 4 67 91 rlineto
          -71 -142 rmoveto
          -21 hlineto
          -32 -21 -37 -18 -45 hhcurveto
          -44 -35 17 33 -15 hvcurveto
          -20 hlineto
          -39 -45 rlineto
          -68 19 53 -38 75 hhcurveto
          72 52 38 68 32 hvcurveto
          -69 -160 rmoveto
          -190 hlineto
          -285 -645 rlineto
          156 hlineto
          30 101 13 30 98 3 113 -2 5 -40 5 -92 rlineto
          161 hlineto
          -186 251 rmoveto
          -74 -1 -71 2 104 247 rlineto
          10 hlineto
          endchar
        </CharString>
        <CharString name="Acaron">
          59 21 -21 133 117.5 248.5 146 hstem
          -22 581 vstem
          380 717 rmoveto
          44 38 49 36 54 35 -20 61 rcurveline
          -15 hlineto
          -41 -20 -42 -21 -40 -21 -34 21 -34 21 -34 20 rrcurveto
          -15 hlineto
          -36 -61 49 -35 46 -36 39 -38 rlinecurve
          209 -717 rmoveto
          -106 645 rlineto
          -190 hlineto
          -285 -645 rlineto
          156 hlineto
          30 101 13 30 98 3 113 -2 5 -40 5 -92 rlineto
          -25 251 rmoveto
          -74 -1 -71 2 104 247 rlineto
          10 hlineto
          endchar
        </CharString>
        <CharString name="Acircumflex">
          59 21 -21 133 117.5 248.5 146 hstem
          -22 581 vstem
          238 725 rmoveto
          15 hlineto
          40 21 43 20 39 21 103 -62 rcurveline
          15 hlineto
          35 61 -49 36 -45 36 -39 37 rlinecurve
          -30 hlineto
          -45 -37 -49 -36 -54 -36 rrcurveto
          342 -786 rmoveto
          -106 645 rlineto
          -190 hlineto
          -285 -645 rlineto
          156 hlineto
          30 101 13 30 98 3 113 -2 5 -40 5 -92 rlineto
          -25 251 rmoveto
          -74 -1 -71 2 104 247 rlineto
          10 hlineto
          endchar
        </CharString>
        <CharString name="Acircumflexacute">
          59 21 -21 133 117.5 248.5 146 hstem
          -22 616 vstem
          484 839 rmoveto
          9 hlineto
          101 132 -4 11 -78 34 -10 -5 -70 -133 rlineto
          -197 -172 rmoveto
          15 hlineto
          40 21 43 20 39 21 35 -21 32 -20 36 -21 rrcurveto
          15 hlineto
          35 61 -49 36 -45 36 -40 37 rlinecurve
          -30 hlineto
          -44 -37 -49 -36 -54 -36 rrcurveto
          239 -122 rmoveto
          -190 hlineto
          -285 -645 rlineto
          156 hlineto
          30 101 13 30 98 3 113 -2 5 -40 5 -92 rlineto
          161 hlineto
          -186 251 rmoveto
          -74 -1 -71 2 104 247 rlineto
          10 hlineto
          endchar
        </CharString>
        <CharString name="Acircumflexdotbelow">
          59 -210 162 69 -21 133 117.5 248.5 146 hstem
          181 159 vstem
          238 725 rmoveto
          15 hlineto
          40 21 43 20 39 21 103 -62 rcurveline
          15 hlineto
          35 61 -49 36 -45 36 -39 37 rlinecurve
          -30 hlineto
          -45 -37 -49 -36 -54 -36 rrcurveto
          342 -786 rmoveto
          -106 645 rlineto
          -190 hlineto
          -285 -645 rlineto
          156 hlineto
          30 101 13 30 98 3 113 -2 5 -40 5 -92 rlineto
          -25 251 rmoveto
          -74 -1 -71 2 104 247 rlineto
          10 hlineto
          -78 -547 rmoveto
          -51 -32 -32 -52 -50 27 -28 50 50 32 33 52 48 -28 29 -48 hvcurveto
          endchar
        </CharString>
        <CharString name="Acircumflexgrave">
          59 21 -21 133 117.5 248.5 146 hstem
          -22 581 vstem
          478 839 rmoveto
          10 hlineto
          51 39 -70 133 -10 5 -78 -34 -3 -11 rlineto
          -146 -266 rmoveto
          15 hlineto
          40 21 43 20 39 21 103 -62 rcurveline
          15 hlineto
          35 61 -49 36 -45 36 -39 37 rlinecurve
          -30 hlineto
          -44 -37 -49 -36 -54 -36 rrcurveto
          347 -766 rmoveto
          -106 645 rlineto
          -190 hlineto
          -285 -645 rlineto
          156 hlineto
          30 101 13 30 98 3 113 -2 5 -40 5 -92 rlineto
          -25 251 rmoveto
          -74 -1 -71 2 104 247 rlineto
          10 hlineto
          endchar
        </CharString>
        <CharString name="Acircumflexhookabove">
          59 21 -21 133 117.5 248.5 146 352 65 hstem
          476 78 vstem
          449 997 rmoveto
          16 11 -7 -15 -19 -18 -28 -32 -22 hvcurveto
          44 -68 52 31 -23 38 rlineto
          40 36 15 20 25 vvcurveto
          44 -37 30 -46 -39 -40 -20 -32 -29 vhcurveto
          23 -38 rlineto
          15 20 24 10 19 hhcurveto
          -217 -291 rmoveto
          15 hlineto
          40 21 43 20 39 21 103 -62 rcurveline
          15 hlineto
          35 61 -49 36 -45 36 -39 37 rlinecurve
          -30 hlineto
          -45 -37 -49 -36 -54 -36 rrcurveto
          348 -767 rmoveto
          -106 645 rlineto
          -190 hlineto
          -285 -645 rlineto
          156 hlineto
          30 101 13 30 98 3 113 -2 5 -40 5 -92 rlineto
          -25 251 rmoveto
          -74 -1 -71 2 104 247 rlineto
          10 hlineto
          endchar
        </CharString>
        <CharString name="Acircumflextilde">
          59 21 -21 133 117.5 248.5 146 hstem
          -22 595 vstem
          573 1001 rmoveto
          -41 42 rlineto
          -13 hlineto
          -27 -22 -17 -24 -20 hhcurveto
          -24 -73 26 7 -45 hvcurveto
          -12 -5 -68 -90 rlineto
          -12 vlineto
          42 -42 rlineto
          12 hlineto
          26 21 17 24 21 hhcurveto
          24 73 -27 -5 45 hvcurveto
          12 4 68 91 rlineto
          -195 -220 rmoveto
          35 -21 32 -21 36 -21 rrcurveto
          15 hlineto
          35 62 -50 35 -45 36 -39 38 rlinecurve
          -30 hlineto
          -44 -38 -49 -36 -54 -35 21 -62 rcurveline
          15 hlineto
          40 21 42 21 40 21 rrcurveto
          75 -124 rmoveto
          -190 hlineto
          -285 -645 rlineto
          156 hlineto
          30 101 13 30 98 3 113 -2 5 -40 5 -92 rlineto
          161 hlineto
          -186 251 rmoveto
          -74 -1 -71 2 104 247 rlineto
          10 hlineto
          endchar
        </CharString>
        <CharString name="Adieresis">
          59 21 -21 133 117.5 248.5 146 82 144 -143 144 hstemhm
          210 141 41 141 hintmask 11101110
          278 728 rmoveto
          45 28 29 46 43 -25 26 -42 -46 -28 -29 -46 -44 24 -25 44 hvcurveto
          hintmask 11110110
          182 -1 rmoveto
          45 28 29 47 43 -25 25 -42 -46 -28 -28 -46 -45 24 -25 44 hvcurveto
          99 -727 rmoveto
          -106 645 rlineto
          -190 hlineto
          -285 -645 rlineto
          156 hlineto
          30 101 13 30 98 3 113 -2 5 -40 5 -92 rlineto
          -25 251 rmoveto
          -74 -1 -71 2 104 247 rlineto
          10 hlineto
          endchar
        </CharString>
        <CharString name="Adotbelow">
          59 -210 162 69 -21 133 117.5 248.5 146 hstem
          181 159 vstem
          559 hmoveto
          -106 645 rlineto
          -190 hlineto
          -285 -645 rlineto
          156 hlineto
          30 101 13 30 98 3 113 -2 5 -40 5 -92 rlineto
          -25 251 rmoveto
          -74 -1 -71 2 104 247 rlineto
          10 hlineto
          -78 -547 rmoveto
          -51 -32 -32 -52 -50 27 -28 50 50 32 33 52 48 -28 29 -48 hvcurveto
          endchar
        </CharString>
        <CharString name="Agrave">
          59 21 -21 133 117.5 248.5 146 hstem
          -22 581 vstem
          481 720 rmoveto
          25 65 -76 38 -68 36 -70 42 rlinecurve
          -14 -4 -39 -92 5 -14 79 -29 71 -23 73 -23 rlinecurve
          92 -716 rmoveto
          -106 645 rlineto
          -190 hlineto
          -285 -645 rlineto
          156 hlineto
          30 101 13 30 98 3 113 -2 5 -40 5 -92 rlineto
          -25 251 rmoveto
          -74 -1 -71 2 104 247 rlineto
          10 hlineto
          endchar
        </CharString>
        <CharString name="Ahookabove">
          59 21 -21 133 117.5 248.5 146 216 69 hstem
          357 80 vstem
          328 861 rmoveto
          16 13 -7 -16 -19 -20 -29 -33 -24 hvcurveto
          46 -71 54 32 -24 40 rlineto
          43 38 14 21 27 vvcurveto
          46 -38 31 -49 -40 -42 -21 -33 -31 vhcurveto
          25 -40 rlineto
          16 20 26 9 20 hhcurveto
          231 -861 rmoveto
          -106 645 rlineto
          -190 hlineto
          -285 -645 rlineto
          156 hlineto
          30 101 13 30 98 3 113 -2 5 -40 5 -92 rlineto
          -25 251 rmoveto
          -74 -1 -71 2 104 247 rlineto
          10 hlineto
          endchar
        </CharString>
        <CharString name="Amacron">
          59 21 -21 133 117.5 248.5 146 108 96 hstem
          -22 581 vstem
          233 753 rmoveto
          279 hlineto
          8 86 -10 10 rlineto
          -279 hlineto
          -7 -86 rlineto
          335 -763 rmoveto
          -106 645 rlineto
          -190 hlineto
          -285 -645 rlineto
          156 hlineto
          30 101 13 30 98 3 113 -2 5 -40 5 -92 rlineto
          -25 251 rmoveto
          -74 -1 -71 2 104 247 rlineto
          10 hlineto
          endchar
        </CharString>
        <CharString name="Aogonek">
          59 -197 84 134 -21 133 117.5 248.5 146 hstemhm
          353 187.5 hintmask 00000000
          hintmask 11111000
          539 -86 rmoveto
          -8 hlineto
          -17 -23 -21 -10 -20 hhcurveto
          -18 -10 9 19 17 8 23 35 45 hvcurveto
          77 hlineto
          -106 645 rlineto
          -190 hlineto
          -285 -645 rlineto
          156 hlineto
          30 101 13 30 98 3 113 -2 5 -40 5 -92 rlineto
          -35 -51 -10 -28 -30 vvcurveto
          -54 32 -34 52 34 32 16 32 39 vhcurveto
          -169 400 rmoveto
          -74 -1 -71 2 104 247 rlineto
          10 hlineto
          endchar
        </CharString>
        <CharString name="Aring">
          59 21 -21 133 117.5 248.5 146 69 63 72 65 hstem
          272 62 77 62 vstem
          369 714 rmoveto
          66 38 37 67 61 -32 35 -66 -67 -36 -37 -65 -64 35 -34 62 hvcurveto
          3 135 rmoveto
          27 12 -12 -25 -25 -12 -10 -26 -26 -13 11 27 23 11 11 27 hvcurveto
          187 -849 rmoveto
          -106 645 rlineto
          -190 hlineto
          -285 -645 rlineto
          156 hlineto
          30 101 13 30 98 3 113 -2 5 -40 5 -92 rlineto
          -25 251 rmoveto
          -74 -1 -71 2 104 247 rlineto
          10 hlineto
          endchar
        </CharString>
        <CharString name="Aringacute">
          80 21 -21 130 114 400 -20 93 64 hstem
          278 62 77 63 vstem
          285 800 rmoveto
          14 -6 75 12 74 13 83 17 rlinecurve
          7 12 -26 98 -13 5 -76 -31 -72 -26 -80 -27 rlinecurve
          308 -867 rmoveto
          -117 621 rlineto
          12 16 6 22 26 vvcurveto
          61 -33 35 -65 -68 -36 -36 -65 -22 4 -18 8 -14 vhcurveto
          -292 -626 rlineto
          156 hlineto
          29 98 13 30 98 3 114 -2 5 -40 5 -89 rlineto
          -40 717 rmoveto
          28 11 -12 -25 -25 -12 -11 -26 -26 -13 12 26 24 11 11 27 hvcurveto
          14 -472 rmoveto
          -74 -2 -72 2 104 241 rlineto
          10 hlineto
          endchar
        </CharString>
        <CharString name="Atilde">
          59 21 -21 133 117.5 248.5 146 hstem
          -22 581 vstem
          235 714 rmoveto
          14 hlineto
          27 23 19 27 22 hhcurveto
          26 80 -29 -6 48 hvcurveto
          14 5 74 98 rlineto
          13 vlineto
          -46 45 rlineto
          -13 hlineto
          -28 -24 -19 -26 -22 hhcurveto
          -26 -79 28 6 -49 hvcurveto
          -14 -5 -74 -97 rlineto
          -13 vlineto
          370 -759 rmoveto
          -106 645 rlineto
          -190 hlineto
          -285 -645 rlineto
          156 hlineto
          30 101 13 30 98 3 113 -2 5 -40 5 -92 rlineto
          -25 251 rmoveto
          -74 -1 -71 2 104 247 rlineto
          10 hlineto
          endchar
        </CharString>
        <CharString name="B">
          50 -6 110 -83 -21 268 106.5 161.5 110 hstemhm
          397 161 -155 164 hintmask 10111000
          451 333 rmoveto
          hintmask 01110100
          77 34 39 61 73 vvcurveto
          97 -81 48 -123 vhcurveto
          -240 -1 -48 -454 -32 -191 rlineto
          hintmask 10111000
          -3 58 88 -3 45 hhcurveto
          225 99 71 133 68 -31 39 -76 28 hvcurveto
          -211 43 rmoveto
          23 159 37 1 rlineto
          hintmask 10110100
          79 24 -17 -47 -53 -26 -32 -53 -14 hvcurveto
          hintmask 10111000
          -52 -269 rmoveto
          -15 -25 2 2 -25 hvcurveto
          9 98 9 61 104 2 rlineto
          45 -10 23 -20 -40 vvcurveto
          -60 -47 -35 -78 vhcurveto
          endchar
        </CharString>
        <CharString name="C">
          -30 -10 133 401 130 hstem
          32 170 vstem
          384 654 rmoveto
          -225 -127 -148 -246 -172 97 -98 176 50 43 8 21 52 hvcurveto
          29 131 -12 8 rlineto
          -22 -43 -54 -13 -44 hhcurveto
          -82 -42 53 110 158 52 80 114 46 46 -15 -25 34 hvcurveto
          13 6 43 130 rlineto
          21 -45 -60 13 -61 hhcurveto
          endchar
        </CharString>
        <CharString name="C.ss01">
          -97 0 54 -54 119 271 118 -55 55 hstemhm
          33 150 hintmask 00000000
          hintmask 10101000
          302 390 rmoveto
          35 38 -11 -17 26 hvcurveto
          11 5 rlineto
          hintmask 10011000
          28 86 rlineto
          129 hlineto
          7 55 rlineto
          -640 hlineto
          -6 -55 rlineto
          212 hlineto
          -70 -49 -39 -84 -111 vvcurveto
          -68 19 -52 37 -35 vhcurveto
          -209 hlineto
          -7 -54 rlineto
          641 hlineto
          6 54 rlineto
          -142 hlineto
          hintmask 01011000
          17 80 -11 7 rlineto
          -13 -31 -44 -9 -32 hhcurveto
          -63 -31 36 77 hvcurveto
          hintmask 10101000
          110 35 48 84 vhcurveto
          endchar
        </CharString>
        <CharString name="Cacute">
          -30 -10 133 401 130 hstem
          32 170 vstem
          461 896 rmoveto
          -14 4 -70 -42 -67 -36 -76 -39 rlinecurve
          24 -64 15 -4 72 23 71 23 80 29 rlinecurve
          5 14 rlineto
          -118 -150 rmoveto
          -225 -126 -148 -246 -172 96 -98 177 50 43 8 21 52 hvcurveto
          29 131 -13 8 rlineto
          -22 -42 -55 -13 -43 hhcurveto
          -82 -42 53 110 158 52 80 114 46 46 -15 -25 34 hvcurveto
          12 6 44 130 rlineto
          21 -45 -60 13 -62 hhcurveto
          endchar
        </CharString>
        <CharString name="Ccaron">
          -30 -10 133 401 130 hstem
          32 170 vstem
          495 887 rmoveto
          -15 hlineto
          -41 -20 -42 -21 -40 -21 -34 21 -34 21 -34 20 rrcurveto
          -15 hlineto
          -36 -61 49 -35 46 -36 39 -38 rlinecurve
          30 hlineto
          44 38 49 36 54 35 rrcurveto
          -132 -172 rmoveto
          -225 -126 -148 -246 -172 96 -98 177 50 43 8 21 52 hvcurveto
          29 131 -13 8 rlineto
          -22 -42 -55 -13 -43 hhcurveto
          -82 -42 53 110 158 52 80 114 46 46 -15 -25 34 hvcurveto
          12 6 44 130 rlineto
          21 -45 -60 13 -62 hhcurveto
          endchar
        </CharString>
        <CharString name="Ccedilla">
          -30 -203 63 131 132 -111 -21 22 -21 532 130 hstemhm
          32 170 110 88 hintmask 10011110
          383 654 rmoveto
          -225 -126 -148 -246 -157 80 -96 150 -15 hvcurveto
          -15 -67 50 -28 rlineto
          9 -5 6 -5 -8 vvcurveto
          -12 -8 -7 -14 -17 -22 11 18 -19 vhcurveto
          -7 -2 -10 -63 rlineto
          -16 23 28 -11 34 hhcurveto
          62 38 33 45 hvcurveto
          hintmask 10101110
          24 -10 19 -32 18 vhcurveto
          -34 19 8 36 39 2 37 9 42 17 rlinecurve
          hintmask 11001110
          29 131 -13 8 rlineto
          -22 -42 -55 -13 -43 hhcurveto
          -82 -42 53 110 158 52 80 114 46 46 -15 -25 34 hvcurveto
          12 6 44 130 rlineto
          hintmask 10011110
          21 -45 -60 13 -62 hhcurveto
          endchar
        </CharString>
        <CharString name="Ccircumflex">
          -30 -10 133 401 130 hstem
          32 170 vstem
          227 725 rmoveto
          15 hlineto
          40 21 43 20 39 21 103 -62 rcurveline
          15 hlineto
          35 61 -49 36 -45 36 -39 37 rlinecurve
          -30 hlineto
          -45 -37 -49 -36 -54 -36 rrcurveto
          177 -132 rmoveto
          -225 -126 -148 -246 -172 96 -98 177 50 43 8 21 52 hvcurveto
          29 131 -13 8 rlineto
          -22 -42 -55 -13 -43 hhcurveto
          -82 -42 53 110 158 52 80 114 46 46 -15 -25 34 hvcurveto
          12 6 44 130 rlineto
          21 -45 -60 13 -62 hhcurveto
          endchar
        </CharString>
        <CharString name="Cdotaccent">
          -30 -10 133 401 130 69 163 hstem
          32 170 79 159 vstem
          364 886 rmoveto
          -51 -32 -33 -52 -49 27 -29 50 50 32 33 52 49 -28 29 -48 hvcurveto
          19 -232 rmoveto
          -225 -126 -148 -246 -172 96 -98 177 50 43 8 21 52 hvcurveto
          29 131 -13 8 rlineto
          -22 -42 -55 -13 -43 hhcurveto
          -82 -42 53 110 158 52 80 114 46 46 -15 -25 34 hvcurveto
          12 6 44 130 rlineto
          21 -45 -60 13 -62 hhcurveto
          endchar
        </CharString>
        <CharString name="D">
          110 -8 121 -92 -21 524 125 hstemhm
          475 168 hintmask 10110000
          122 645 rmoveto
          -48 -454 rlineto
          hintmask 01110000
          -32 -191 rlineto
          1 hlineto
          hintmask 10110000
          -4 68 112 -4 55 hhcurveto
          238 127 154 250 162 -97 91 -165 hvcurveto
          -67 -536 rmoveto
          -20 -47 3 5 -35 hvcurveto
          7 85 46 313 rlineto
          3 33 43 2 20 hhcurveto
          77 37 -45 -107 -183 -62 -76 -99 hvcurveto
          endchar
        </CharString>
        <CharString name="D.ss01">
          21 0 54 -54 108 281 119 -55 55 hstemhm
          385 150 hintmask 10011000
          688 453 rmoveto
          6 55 rlineto
          -758 hlineto
          -6 -55 rlineto
          170 hlineto
          -31 -301 -16 -98 rlineto
          -173 hlineto
          -7 -54 rlineto
          759 hlineto
          6 54 rlineto
          -216 hlineto
          73 52 40 87 114 vvcurveto
          64 -19 49 -37 33 vhcurveto
          -279 -287 rmoveto
          hintmask 01101000
          33 220 rlineto
          2 24 29 1 16 hhcurveto
          56 27 -29 -76 -130 -44 -46 -70 -16 -34 3 4 -25 hvcurveto
          endchar
        </CharString>
        <CharString name="Dcaron">
          110 -8 121 -92 -21 524 125 hstemhm
          475 169 hintmask 10110000
          371 717 rmoveto
          44 38 49 36 54 35 -20 61 rcurveline
          -15 hlineto
          -41 -20 -42 -21 -40 -21 -34 21 -34 21 -34 20 rrcurveto
          -15 hlineto
          -36 -61 49 -35 46 -36 39 -38 rlinecurve
          -218 -72 rmoveto
          -1 hlineto
          -48 -454 rlineto
          hintmask 01110000
          -32 -191 rlineto
          1 hlineto
          hintmask 10110000
          -4 69 112 -4 55 hhcurveto
          237 128 154 250 162 -97 91 -165 hvcurveto
          -68 -536 rmoveto
          -20 -47 3 5 -35 hvcurveto
          7 85 46 313 rlineto
          3 32 45 2 19 hhcurveto
          78 36 -45 -107 -183 -61 -76 -100 hvcurveto
          endchar
        </CharString>
        <CharString name="Dcroat">
          110 -8 121 -92 -21 524 125 104 96 hstemhm
          475 169 hintmask 10111000
          224 753 rmoveto
          279 hlineto
          8 86 -10 10 rlineto
          -279 hlineto
          -7 -86 rlineto
          -92 -118 rmoveto
          -1 hlineto
          -48 -454 rlineto
          hintmask 01111000
          -32 -191 rlineto
          1 hlineto
          hintmask 10111000
          -4 69 112 -4 55 hhcurveto
          237 128 154 250 162 -97 91 -165 hvcurveto
          -68 -536 rmoveto
          -20 -47 3 5 -35 hvcurveto
          7 85 46 313 rlineto
          3 32 45 2 19 hhcurveto
          78 36 -45 -107 -183 -61 -76 -100 hvcurveto
          endchar
        </CharString>
        <CharString name="Delta">
          59 0 118 381 146 hstem
          -23 581 vstem
          558 hmoveto
          -106 645 rlineto
          -190 hlineto
          -285 -645 rlineto
          353 499 rmoveto
          11 hlineto
          48 -381 rlineto
          -218 hlineto
          endchar
        </CharString>
        <CharString name="E">
          -27 0 123.5 -123.5 126 138.5 123 -8.5 9.5 130 126.5 -12 12 hstemhm
          42 510 hintmask 10101010
          265 520 rmoveto
          109 1 152 -5 rlineto
          hintmask 10100110
          26 117 rlineto
          hintmask 10101010
          -8 12 rlineto
          -422 hlineto
          -49 -454 -31 -191 rlineto
          417 hlineto
          hintmask 01101010
          24 117 -7 12 rlineto
          hintmask 10101010
          -159 -6 -105 1 8 82 8 58 96 1 112 -3 rlineto
          hintmask 10011010
          25 117 -8 11 rlineto
          hintmask 10101010
          -103 -3 -104 1 rlineto
          endchar
        </CharString>
        <CharString name="Eacute">
          -27 0 123.5 -123.5 126 138.5 123 -8.5 9.5 130 126.5 -12 12 hstemhm
          42 510 hintmask 10101010
          243 719 rmoveto
          15 -4 72 23 71 23 80 29 rlinecurve
          5 14 -40 92 -14 4 -70 -42 -67 -36 -76 -39 rlinecurve
          46 -263 rmoveto
          109 1 153 -5 rlineto
          hintmask 10100110
          25 117 rlineto
          hintmask 10101010
          -7 12 rlineto
          -423 hlineto
          -48 -454 -32 -191 rlineto
          417 hlineto
          hintmask 01101010
          24 117 -7 12 rlineto
          hintmask 10101010
          -158 -6 -106 1 8 82 8 58 96 1 112 -3 rlineto
          hintmask 10011010
          24 117 -7 11 rlineto
          hintmask 10101010
          -103 -3 -104 1 rlineto
          endchar
        </CharString>
        <CharString name="Ebreve">
          -27 0 123.5 -123.5 126 138.5 123 -8.5 9.5 130 126.5 -12 12 74 108 hstemhm
          42 510 hintmask 10101011
          341 719 rmoveto
          77 55 40 73 33 hvcurveto
          -27 48 rlineto
          -22 hlineto
          -34 -23 -39 -19 -47 hhcurveto
          -47 -37 18 35 -16 hvcurveto
          -22 hlineto
          -40 -48 rlineto
          -73 19 56 -40 80 hhcurveto
          -76 -199 rmoveto
          109 1 153 -5 rlineto
          hintmask 10100111
          25 117 rlineto
          hintmask 10101011
          -7 12 rlineto
          -423 hlineto
          -48 -454 -32 -191 rlineto
          417 hlineto
          hintmask 01101011
          24 117 -7 12 rlineto
          hintmask 10101011
          -158 -6 -106 1 8 82 8 58 96 1 112 -3 rlineto
          hintmask 10011011
          24 117 -7 11 rlineto
          hintmask 10101011
          -103 -3 -104 1 rlineto
          endchar
        </CharString>
        <CharString name="Ecaron">
          -27 0 123.5 -123.5 126 138.5 123 -8.5 9.5 130 126.5 -12 12 hstemhm
          42 510 hintmask 10101010
          354 717 rmoveto
          44 38 49 36 54 35 -20 61 rcurveline
          -15 hlineto
          -41 -20 -42 -21 -40 -21 -34 21 -34 21 -34 20 rrcurveto
          -15 hlineto
          -36 -61 49 -35 46 -36 39 -38 rlinecurve
          -59 -197 rmoveto
          109 1 153 -5 rlineto
          hintmask 10100110
          25 117 rlineto
          hintmask 10101010
          -7 12 rlineto
          -423 hlineto
          -48 -454 -32 -191 rlineto
          417 hlineto
          hintmask 01101010
          24 117 -7 12 rlineto
          hintmask 10101010
          -158 -6 -106 1 8 82 8 58 96 1 112 -3 rlineto
          hintmask 10011010
          24 117 -7 11 rlineto
          hintmask 10101010
          -103 -3 -104 1 rlineto
          endchar
        </CharString>
        <CharString name="Ecircumflex">
          -27 0 123.5 -123.5 126 138.5 123 -8.5 9.5 130 126.5 -12 12 hstemhm
          42 510 hintmask 10101010
          213 725 rmoveto
          15 hlineto
          40 21 43 20 39 21 103 -62 rcurveline
          15 hlineto
          35 61 -49 36 -45 36 -39 37 rlinecurve
          -30 hlineto
          -45 -37 -49 -36 -54 -36 rrcurveto
          73 -266 rmoveto
          109 1 153 -5 rlineto
          hintmask 10100110
          25 117 rlineto
          hintmask 10101010
          -7 12 rlineto
          -423 hlineto
          -48 -454 -32 -191 rlineto
          417 hlineto
          hintmask 01101010
          24 117 -7 12 rlineto
          hintmask 10101010
          -158 -6 -106 1 8 82 8 58 96 1 112 -3 rlineto
          hintmask 10011010
          24 117 -7 11 rlineto
          hintmask 10101010
          -103 -3 -104 1 rlineto
          endchar
        </CharString>
        <CharString name="Ecircumflexacute">
          -27 0 123.5 -123.5 126 138.5 123 -8.5 9.5 130 126.5 -12 12 hstemhm
          42 527 hintmask 10101010
          459 839 rmoveto
          9 hlineto
          101 132 -4 11 -78 34 -10 -5 -70 -133 rlineto
          -197 -172 rmoveto
          15 hlineto
          40 21 43 20 39 21 35 -21 32 -20 36 -21 rrcurveto
          15 hlineto
          35 61 -49 36 -45 36 -40 37 rlinecurve
          -30 hlineto
          -44 -37 -49 -36 -54 -36 rrcurveto
          356 -122 rmoveto
          -423 hlineto
          -48 -454 -32 -191 rlineto
          417 hlineto
          hintmask 01101010
          24 117 -7 12 rlineto
          hintmask 10101010
          -158 -6 -106 1 8 82 8 58 96 1 112 -3 rlineto
          hintmask 10011010
          24 117 -7 11 rlineto
          hintmask 10101010
          -103 -3 -104 1 19 132 109 1 153 -5 rlineto
          hintmask 10100110
          25 117 rlineto
          endchar
        </CharString>
        <CharString name="Ecircumflexdotbelow">
          -27 -210 162 48 123.5 -123.5 126 138.5 123 -8.5 9.5 130 126.5 -12 12 hstemhm
          193 159 hintmask 01010101
          213 725 rmoveto
          15 hlineto
          40 21 43 20 39 21 103 -62 rcurveline
          15 hlineto
          35 61 -49 36 -45 36 -39 37 rlinecurve
          -30 hlineto
          -45 -37 -49 -36 -54 -36 rrcurveto
          73 -266 rmoveto
          109 1 153 -5 rlineto
          hintmask 01010011
          25 117 rlineto
          hintmask 01010101
          -7 12 rlineto
          -423 hlineto
          -48 -454 -32 -191 rlineto
          417 hlineto
          hintmask 00110101
          24 117 -7 12 rlineto
          hintmask 01010101
          -158 -6 -106 1 8 82 8 58 96 1 112 -3 rlineto
          hintmask 01001101
          24 117 -7 11 rlineto
          hintmask 11010101
          -103 -3 -104 1 rlineto
          30 -436 rmoveto
          -51 -32 -32 -52 -50 27 -28 50 50 32 33 52 48 -28 29 -48 hvcurveto
          endchar
        </CharString>
        <CharString name="Ecircumflexgrave">
          -27 0 123.5 -123.5 126 138.5 123 -8.5 9.5 130 126.5 -12 12 hstemhm
          42 510 hintmask 10101010
          453 839 rmoveto
          10 hlineto
          51 39 -70 133 -10 5 -78 -34 -3 -11 rlineto
          -146 -266 rmoveto
          15 hlineto
          40 21 43 20 39 21 103 -62 rcurveline
          15 hlineto
          35 61 -49 36 -45 36 -39 37 rlinecurve
          -30 hlineto
          -44 -37 -49 -36 -54 -36 rrcurveto
          78 -246 rmoveto
          109 1 153 -5 rlineto
          hintmask 10100110
          25 117 rlineto
          hintmask 10101010
          -7 12 rlineto
          -423 hlineto
          -48 -454 -32 -191 rlineto
          417 hlineto
          hintmask 01101010
          24 117 -7 12 rlineto
          hintmask 10101010
          -158 -6 -106 1 8 82 8 58 96 1 112 -3 rlineto
          hintmask 10011010
          24 117 -7 11 rlineto
          hintmask 10101010
          -103 -3 -104 1 rlineto
          endchar
        </CharString>
        <CharString name="Ecircumflexhookabove">
          -27 0 123.5 -123.5 126 138.5 123 -8.5 9.5 130 126.5 -12 12 352 65 hstemhm
          451 78 hintmask 10101011
          424 997 rmoveto
          16 11 -7 -15 -19 -18 -28 -32 -22 hvcurveto
          44 -68 52 31 -23 38 rlineto
          40 36 15 20 25 vvcurveto
          44 -37 30 -46 -39 -40 -20 -32 -29 vhcurveto
          23 -38 rlineto
          15 20 24 10 19 hhcurveto
          -217 -291 rmoveto
          15 hlineto
          40 21 43 20 39 21 103 -62 rcurveline
          15 hlineto
          35 61 -49 36 -45 36 -39 37 rlinecurve
          -30 hlineto
          -45 -37 -49 -36 -54 -36 rrcurveto
          79 -247 rmoveto
          109 1 153 -5 rlineto
          hintmask 10100111
          25 117 rlineto
          hintmask 10101011
          -7 12 rlineto
          -423 hlineto
          -48 -454 -32 -191 rlineto
          417 hlineto
          hintmask 01101011
          24 117 -7 12 rlineto
          hintmask 10101011
          -158 -6 -106 1 8 82 8 58 96 1 112 -3 rlineto
          hintmask 10011011
          24 117 -7 11 rlineto
          hintmask 10101011
          -103 -3 -104 1 rlineto
          endchar
        </CharString>
        <CharString name="Ecircumflextilde">
          -27 0 123.5 -123.5 126 138.5 123 -8.5 9.5 130 126.5 -12 12 hstemhm
          42 510 hintmask 10101010
          453 839 rmoveto
          10 hlineto
          51 39 -70 133 -10 5 -78 -34 -3 -11 rlineto
          -146 -266 rmoveto
          15 hlineto
          40 21 43 20 39 21 103 -62 rcurveline
          15 hlineto
          35 61 -49 36 -45 36 -39 37 rlinecurve
          -30 hlineto
          -44 -37 -49 -36 -54 -36 rrcurveto
          78 -246 rmoveto
          109 1 153 -5 rlineto
          hintmask 10100110
          25 117 rlineto
          hintmask 10101010
          -7 12 rlineto
          -423 hlineto
          -48 -454 -32 -191 rlineto
          417 hlineto
          hintmask 01101010
          24 117 -7 12 rlineto
          hintmask 10101010
          -158 -6 -106 1 8 82 8 58 96 1 112 -3 rlineto
          hintmask 10011010
          24 117 -7 11 rlineto
          hintmask 10101010
          -103 -3 -104 1 rlineto
          endchar
        </CharString>
        <CharString name="Edieresis">
          -27 0 123.5 -123.5 126 138.5 123 -8.5 9.5 130 126.5 -12 12 82 144 -143 144 hstemhm
          185 141 41 141 hintmask 1010100111000000
          253 728 rmoveto
          45 28 29 46 43 -25 26 -42 -46 -28 -29 -46 -44 24 -25 44 hvcurveto
          hintmask 1010101011000000
          182 -1 rmoveto
          45 28 29 47 43 -25 25 -42 -46 -28 -28 -46 -45 24 -25 44 hvcurveto
          -170 -207 rmoveto
          109 1 153 -5 rlineto
          hintmask 1010010111000000
          25 117 rlineto
          hintmask 1010100111000000
          -7 12 rlineto
          -423 hlineto
          -48 -454 -32 -191 rlineto
          417 hlineto
          hintmask 0110100111000000
          24 117 -7 12 rlineto
          hintmask 1010100111000000
          -158 -6 -106 1 8 82 8 58 96 1 112 -3 rlineto
          hintmask 1001100111000000
          24 117 -7 11 rlineto
          hintmask 1010100111000000
          -103 -3 -104 1 rlineto
          endchar
        </CharString>
        <CharString name="Edotaccent">
          -27 0 123.5 -123.5 126 138.5 123 -8.5 9.5 130 126.5 -12 12 78 163 hstemhm
          267 159 hintmask 10101011
          344 723 rmoveto
          50 32 33 52 49 -28 29 -48 -51 -32 -33 -52 -49 27 -29 50 hvcurveto
          -79 -203 rmoveto
          109 1 153 -5 rlineto
          hintmask 10100111
          25 117 rlineto
          hintmask 10101011
          -7 12 rlineto
          -423 hlineto
          -48 -454 -32 -191 rlineto
          417 hlineto
          hintmask 01101011
          24 117 -7 12 rlineto
          hintmask 10101011
          -158 -6 -106 1 8 82 8 58 96 1 112 -3 rlineto
          hintmask 10011011
          24 117 -7 11 rlineto
          hintmask 10101011
          -103 -3 -104 1 rlineto
          endchar
        </CharString>
        <CharString name="Edotbelow">
          -27 -210 162 48 123.5 -123.5 126 138.5 123 -8.5 9.5 130 126.5 -12 12 hstemhm
          193 159 hintmask 01010101
          265 520 rmoveto
          109 1 153 -5 rlineto
          hintmask 01010011
          25 117 rlineto
          hintmask 01010101
          -7 12 rlineto
          -423 hlineto
          -48 -454 -32 -191 rlineto
          417 hlineto
          hintmask 00110101
          24 117 -7 12 rlineto
          hintmask 01010101
          -158 -6 -106 1 8 82 8 58 96 1 112 -3 rlineto
          hintmask 01001101
          24 117 -7 11 rlineto
          hintmask 11010101
          -103 -3 -104 1 rlineto
          30 -436 rmoveto
          -51 -32 -32 -52 -50 27 -28 50 50 32 33 52 48 -28 29 -48 hvcurveto
          endchar
        </CharString>
        <CharString name="Egrave">
          -27 0 123.5 -123.5 126 138.5 123 -8.5 9.5 130 126.5 -12 12 hstemhm
          42 510 hintmask 10101010
          456 720 rmoveto
          25 65 -76 38 -68 36 -70 42 rlinecurve
          -14 -4 -39 -92 5 -14 79 -29 71 -23 73 -23 rlinecurve
          -177 -196 rmoveto
          109 1 153 -5 rlineto
          hintmask 10100110
          25 117 rlineto
          hintmask 10101010
          -7 12 rlineto
          -423 hlineto
          -48 -454 -32 -191 rlineto
          417 hlineto
          hintmask 01101010
          24 117 -7 12 rlineto
          hintmask 10101010
          -158 -6 -106 1 8 82 8 58 96 1 112 -3 rlineto
          hintmask 10011010
          24 117 -7 11 rlineto
          hintmask 10101010
          -103 -3 -104 1 rlineto
          endchar
        </CharString>
        <CharString name="Ehookabove">
          -27 0 123.5 -123.5 126 138.5 123 -8.5 9.5 130 126.5 -12 12 216 69 hstemhm
          331 80 hintmask 10101011
          302 861 rmoveto
          16 13 -7 -16 -19 -20 -29 -33 -24 hvcurveto
          46 -71 54 32 -24 40 rlineto
          43 38 14 21 27 vvcurveto
          46 -38 31 -49 -40 -42 -21 -33 -31 vhcurveto
          25 -40 rlineto
          16 20 26 9 20 hhcurveto
          -37 -341 rmoveto
          109 1 153 -5 rlineto
          hintmask 10100111
          25 117 rlineto
          hintmask 10101011
          -7 12 rlineto
          -423 hlineto
          -48 -454 -32 -191 rlineto
          417 hlineto
          hintmask 01101011
          24 117 -7 12 rlineto
          hintmask 10101011
          -158 -6 -106 1 8 82 8 58 96 1 112 -3 rlineto
          hintmask 10011011
          24 117 -7 11 rlineto
          hintmask 10101011
          -103 -3 -104 1 rlineto
          endchar
        </CharString>
        <CharString name="Emacron">
          -27 0 123.5 -123.5 126 138.5 123 -8.5 9.5 130 126.5 -12 12 108 96 hstemhm
          42 510 hintmask 10101011
          208 753 rmoveto
          279 hlineto
          8 86 -10 10 rlineto
          -279 hlineto
          -7 -86 rlineto
          66 -243 rmoveto
          109 1 153 -5 rlineto
          hintmask 10100111
          25 117 rlineto
          hintmask 10101011
          -7 12 rlineto
          -423 hlineto
          -48 -454 -32 -191 rlineto
          417 hlineto
          hintmask 01101011
          24 117 -7 12 rlineto
          hintmask 10101011
          -158 -6 -106 1 8 82 8 58 96 1 112 -3 rlineto
          hintmask 10011011
          24 117 -7 11 rlineto
          hintmask 10101011
          -103 -3 -104 1 rlineto
          endchar
        </CharString>
        <CharString name="Eng">
          156 21 -21 645 -20 23 -20 hstemhm
          42 631 hintmask 10110000
          609 203 rmoveto
          64 445 -147 -9 -43 -385 rlineto
          -10 hlineto
          hintmask 11010000
          -179 391 rlineto
          -171 hlineto
          -48 -455 -33 -190 rlineto
          145 hlineto
          22 226 22 178 rlineto
          11 hlineto
          189 -404 -19 -30 -32 -23 -51 -25 rlinecurve
          -1 -14 35 -83 160 54 59 61 14 115 rlinecurve
          endchar
        </CharString>
        <CharString name="Eogonek">
          -27 -197 83 114 123.5 -123.5 126 138.5 123 -8.5 9.5 130 126.5 -12 12 hstemhm
          272 81 hintmask 11010101
          265 520 rmoveto
          109 1 153 -5 rlineto
          hintmask 11010011
          25 117 rlineto
          hintmask 11010101
          -7 12 rlineto
          -423 hlineto
          -48 -454 -32 -191 rlineto
          275 hlineto
          -15 -21 rlineto
          -21 -29 -9 -29 -27 vvcurveto
          -51 36 -40 59 36 32 15 33 38 vhcurveto
          -11 61 rlineto
          -8 hlineto
          -16 -22 -22 -10 -20 hhcurveto
          -25 -12 15 21 14 6 15 10 16 hvcurveto
          22 33 rlineto
          68 hlineto
          hintmask 10110101
          24 117 -7 12 rlineto
          hintmask 11010101
          -158 -6 -106 1 8 82 8 58 96 1 112 -3 rlineto
          hintmask 11001101
          24 117 -7 11 rlineto
          hintmask 11010101
          -103 -3 -104 1 rlineto
          endchar
        </CharString>
        <CharString name="Eth">
          139 -8 121 -92 -21 265 105 154 125 hstemhm
          107 137.5 258.5 169 hintmask 10111100
          151 645 rmoveto
          -1 hlineto
          -28 -275 rlineto
          -86 hlineto
          -13 -94 6 -11 rlineto
          82 hlineto
          -8 -74 rlineto
          hintmask 01111100
          -32 -191 rlineto
          hintmask 10111100
          -4 69 112 -4 55 hhcurveto
          237 128 154 250 162 -97 91 -165 hvcurveto
          -68 -536 rmoveto
          -20 -46 3 5 -35 hvcurveto
          7 85 8 59 rlineto
          111 hlineto
          14 94 -6 11 rlineto
          -103 hlineto
          21 149 rlineto
          3 33 44 2 19 hhcurveto
          78 36 -45 -107 -183 -61 -76 -100 hvcurveto
          endchar
        </CharString>
        <CharString name="Etilde">
          -27 0 123.5 -123.5 126 138.5 123 -8.5 9.5 130 126.5 -12 12 hstemhm
          42 510 hintmask 10101010
          209 714 rmoveto
          14 hlineto
          27 23 19 27 22 hhcurveto
          26 80 -29 -6 48 hvcurveto
          14 5 74 98 rlineto
          13 vlineto
          -46 45 rlineto
          -13 hlineto
          -28 -24 -19 -26 -22 hhcurveto
          -26 -79 28 6 -49 hvcurveto
          -14 -5 -74 -97 rlineto
          -13 vlineto
          102 -239 rmoveto
          109 1 153 -5 rlineto
          hintmask 10100110
          25 117 rlineto
          hintmask 10101010
          -7 12 rlineto
          -423 hlineto
          -48 -454 -32 -191 rlineto
          417 hlineto
          hintmask 01101010
          24 117 -7 12 rlineto
          hintmask 10101010
          -158 -6 -106 1 8 82 8 58 96 1 112 -3 rlineto
          hintmask 10011010
          24 117 -7 11 rlineto
          hintmask 10101010
          -103 -3 -104 1 rlineto
          endchar
        </CharString>
        <CharString name="Euro">
          -75 -8 108 57 73 40 73 62 108 hstem
          -1 485 vstem
          356 513 rmoveto
          -128 -88 -61 -109 -43 hvcurveto
          -72 hlineto
          -12 -65 4 -8 rlineto
          345 hlineto
          13 67 -6 6 rlineto
          -133 hlineto
          43 21 35 19 48 hhcurveto
          33 39 -10 -18 26 hvcurveto
          10 6 36 105 rlineto
          16 -36 -46 9 -46 hhcurveto
          -49 -413 rmoveto
          -46 -30 18 39 -13 hvcurveto
          130 hlineto
          12 66 -5 7 rlineto
          -344 hlineto
          -12 -66 5 -7 rlineto
          67 hlineto
          -107 13 72 -58 133 hhcurveto
          36 39 6 16 40 hvcurveto
          23 104 -10 6 rlineto
          -14 -33 -45 -10 -32 hhcurveto
          endchar
        </CharString>
        <CharString name="F">
          -83 21 -21 244 123.5 -9.5 10.5 149.5 127 -124.5 124.5 -12 12 hstemhm
          42 483 hintmask 00000000
          hintmask 11001010
          265 520 rmoveto
          82 1 rlineto
          hintmask 11010010
          152 -6 rlineto
          hintmask 11000110
          26 118 rlineto
          hintmask 11010010
          -8 12 rlineto
          -395 hlineto
          -49 -454 -31 -191 rlineto
          159 hlineto
          19 206 5 38 rlineto
          71 hlineto
          120 -3 rlineto
          hintmask 10110010
          25 117 rlineto
          hintmask 11010010
          -8 12 -111 -3 -79 1 rlineto
          endchar
        </CharString>
        <CharString name="G">
          49 -10 122 414 128 hstem
          31 166 vstem
          410 654 rmoveto
          -245 -134 -144 -256 -166 96 -98 181 72 65 13 29 78 hvcurveto
          20 164 13 87 -147 -10 -10 -103 -7 -47 rlineto
          -7 -27 -16 -4 -22 hhcurveto
          -91 -39 40 106 206 65 62 113 59 42 -16 -34 58 hvcurveto
          14 hlineto
          52 143 rlineto
          23 -53 -70 12 -67 hhcurveto
          endchar
        </CharString>
        <CharString name="Gbreve">
          49 -10 122 414 128 65 108 hstem
          31 166 vstem
          519 880 rmoveto
          -22 hlineto
          -34 -23 -39 -19 -47 hhcurveto
          -47 -37 18 35 -16 hvcurveto
          -22 hlineto
          -40 -48 rlineto
          -73 19 56 -40 80 hhcurveto
          77 55 40 73 33 hvcurveto
          -136 -178 rmoveto
          -245 -134 -144 -256 -166 96 -98 181 72 65 13 29 79 hvcurveto
          19 164 13 87 -147 -10 -10 -103 -7 -47 rlineto
          -7 -27 -16 -4 -22 hhcurveto
          -91 -39 40 106 206 65 62 113 59 42 -16 -34 58 hvcurveto
          14 hlineto
          52 143 rlineto
          23 -53 -69 12 -68 hhcurveto
          endchar
        </CharString>
        <CharString name="Gcircumflex">
          49 -10 122 414 128 hstem
          31 166 vstem
          252 725 rmoveto
          15 hlineto
          40 21 43 20 39 21 103 -62 rcurveline
          15 hlineto
          35 61 -49 36 -45 36 -39 37 rlinecurve
          -30 hlineto
          -45 -37 -49 -36 -54 -36 rrcurveto
          179 -132 rmoveto
          -245 -134 -144 -256 -166 96 -98 181 72 65 13 29 79 hvcurveto
          19 164 13 87 -147 -10 -10 -103 -7 -47 rlineto
          -7 -27 -16 -4 -22 hhcurveto
          -91 -39 40 106 206 65 62 113 59 42 -16 -34 58 hvcurveto
          14 hlineto
          52 143 rlineto
          23 -53 -69 12 -68 hhcurveto
          endchar
        </CharString>
        <CharString name="Gcommaaccent">
          49 -72 -21 83 122 414 128 hstem
          31 166 69 111 vstem
          410 654 rmoveto
          -245 -134 -144 -256 -166 96 -98 181 72 65 13 29 79 hvcurveto
          19 164 13 87 -147 -10 -10 -103 -7 -47 rlineto
          -7 -27 -16 -4 -22 hhcurveto
          -91 -39 40 106 206 65 62 113 59 42 -16 -34 58 hvcurveto
          14 hlineto
          52 143 rlineto
          23 -53 -69 12 -68 hhcurveto
          -73 -695 rmoveto
          -36 -9 -32 -14 -31 -18 rrcurveto
          -11 vlineto
          19 -18 9 -18 -22 vvcurveto
          -33 -16 -29 -33 -27 vhcurveto
          1 -10 43 -38 rlineto
          79 55 37 53 58 vvcurveto
          32 -14 26 -26 23 vhcurveto
          endchar
        </CharString>
        <CharString name="Gdieresis">
          49 -10 122 414 128 73 144 -143 144 hstemhm
          31 166 27 141 41 141 hintmask 00000000
          hintmask 11011100
          298 872 rmoveto
          -46 -28 -29 -46 -44 24 -25 44 45 28 29 46 43 -25 26 -42 hvcurveto
          hintmask 11101010
          182 -1 rmoveto
          -46 -28 -28 -46 -45 24 -25 44 45 28 29 47 43 -25 25 -42 hvcurveto
          -70 -217 rmoveto
          -245 -134 -144 -256 -166 96 -98 181 72 65 13 29 79 hvcurveto
          19 164 13 87 -147 -10 -10 -103 -7 -47 rlineto
          -7 -27 -16 -4 -22 hhcurveto
          -91 -39 40 106 206 65 62 113 59 42 -16 -34 58 hvcurveto
          14 hlineto
          52 143 rlineto
          23 -53 -69 12 -68 hhcurveto
          endchar
        </CharString>
        <CharString name="Gdotaccent">
          49 -10 122 414 128 69 163 hstem
          31 166 110 159 vstem
          390 886 rmoveto
          -51 -32 -33 -52 -49 27 -29 50 50 32 33 52 49 -28 29 -48 hvcurveto
          20 -232 rmoveto
          -245 -134 -144 -256 -166 96 -98 181 72 65 13 29 79 hvcurveto
          19 164 13 87 -147 -10 -10 -103 -7 -47 rlineto
          -7 -27 -16 -4 -22 hhcurveto
          -91 -39 40 106 206 65 62 113 59 42 -16 -34 58 hvcurveto
          14 hlineto
          52 143 rlineto
          23 -53 -69 12 -68 hhcurveto
          endchar
        </CharString>
        <CharString name="Germandbls">
          134 -10 120 -110 30 -9 -21 528 127 -70 -20 hstemhm
          494 161 hintmask 10010100
          395 655 rmoveto
          -185 -111 -97 -147 -15 hvcurveto
          -24 -221 rlineto
          hintmask 00110100
          -32 -190 rlineto
          159 hlineto
          19 207 29 204 rlineto
          78 10 39 39 82 hhcurveto
          32 26 -6 -13 30 hvcurveto
          -143 -175 1 -22 rlineto
          hintmask 10010100
          139 -68 43 -37 -40 vvcurveto
          -34 -25 -23 -38 -40 -51 26 46 -47 vhcurveto
          -18 -9 rlineto
          hintmask 01010100
          -39 -143 rlineto
          hintmask 10001100
          -26 50 63 -14 58 hhcurveto
          131 117 71 137 83 -51 37 -99 64 hvcurveto
          151 182 -4 21 rlineto
          hintmask 10010100
          44 -88 -75 26 -94 hhcurveto
          endchar
        </CharString>
        <CharString name="Gtilde">
          49 -10 122 414 128 hstem
          31 166 vstem
          569 849 rmoveto
          -46 45 rlineto
          -13 hlineto
          -28 -24 -19 -26 -22 hhcurveto
          -26 -79 28 6 -49 hvcurveto
          -14 -5 -74 -97 rlineto
          -13 vlineto
          46 -45 rlineto
          14 hlineto
          27 23 19 27 22 hhcurveto
          26 80 -29 -6 48 hvcurveto
          14 5 74 98 rlineto
          -159 -182 rmoveto
          -245 -134 -144 -256 -166 96 -98 181 72 65 13 29 79 hvcurveto
          19 164 13 87 -147 -10 -10 -103 -7 -47 rlineto
          -7 -27 -16 -4 -22 hhcurveto
          -91 -39 40 106 206 65 62 113 59 42 -16 -34 58 hvcurveto
          14 hlineto
          52 143 rlineto
          23 -53 -69 12 -68 hhcurveto
          endchar
        </CharString>
        <CharString name="H">
          151 21 -21 258 128 259 -20 hstem
          42 630 vstem
          672 645 rmoveto
          -162 hlineto
          -27 -258 -117 -2 -121 3 38 257 rlineto
          -161 hlineto
          -48 -454 -32 -191 rlineto
          159 hlineto
          18 206 7 50 115 3 129 -2 -7 -66 -33 -191 rlineto
          159 hlineto
          19 206 rlineto
          endchar
        </CharString>
        <CharString name="Hbar">
          182 21 -21 258 128 88 86 -86 171 hstemhm
          55 683 hintmask 11011000
          733 474 rmoveto
          hintmask 11101000
          5 77 -7 9 rlineto
          -56 hlineto
          hintmask 11011000
          12 85 rlineto
          -162 hlineto
          hintmask 11101000
          -9 -85 rlineto
          -230 hlineto
          hintmask 11011000
          12 85 rlineto
          -161 hlineto
          hintmask 11101000
          -9 -85 rlineto
          -68 hlineto
          hintmask 11011000
          -5 -78 6 -8 rlineto
          58 hlineto
          -30 -283 -32 -191 rlineto
          159 hlineto
          19 206 7 50 114 3 129 -2 -7 -66 -32 -191 rlineto
          158 hlineto
          20 206 38 268 rlineto
          -155 hmoveto
          -9 -87 -117 -2 -120 3 12 86 rlineto
          endchar
        </CharString>
        <CharString name="Hcircumflex">
          151 21 -21 258 128 259 -20 hstem
          42 629 vstem
          282 725 rmoveto
          15 hlineto
          40 21 43 20 39 21 103 -62 rcurveline
          15 hlineto
          35 61 -49 36 -45 36 -39 37 rlinecurve
          -30 hlineto
          -45 -37 -49 -36 -54 -36 rrcurveto
          410 -141 rmoveto
          -161 hlineto
          -27 -258 -116 -2 -121 3 37 257 rlineto
          -161 hlineto
          -48 -454 -32 -191 rlineto
          159 hlineto
          19 206 7 50 114 3 128 -2 -7 -66 -32 -191 rlineto
          159 hlineto
          19 206 rlineto
          endchar
        </CharString>
        <CharString name="I">
          -237 21 -21 645 -20 hstem
          42 241 vstem
          219 206 rmoveto
          64 439 rlineto
          -161 hlineto
          -48 -454 -32 -191 rlineto
          159 hlineto
          endchar
        </CharString>
        <CharString name="I.ss01">
          -257 0 54 399 55 hstem
          -127 543 vstem
          196 164 rmoveto
          43 289 rlineto
          171 hlineto
          6 55 rlineto
          -480 hlineto
          -6 -55 rlineto
          162 hlineto
          -31 -304 -16 -95 rlineto
          -165 hlineto
          -7 -54 rlineto
          481 hlineto
          6 54 rlineto
          -173 hlineto
          endchar
        </CharString>
        <CharString name="IJ">
          105 21 -21 529 116 hstemhm
          42 579 -213.5 146.5 hintmask 11100000
          283 645 rmoveto
          -161 hlineto
          -48 -454 -32 -191 rlineto
          159 hlineto
          19 206 rlineto
          401 439 rmoveto
          hintmask 11010000
          -257 hlineto
          -20 -106 9 -11 95 2 -36 -333 -9 -71 -8 -64 -32 -35 -80 -39 rlinecurve
          -1 -13 35 -83 160 53 57 62 16 115 rlinecurve
          8 91 rlineto
          endchar
        </CharString>
        <CharString name="Iacute">
          -237 21 -21 645 -20 hstem
          42 318 vstem
          320 896 rmoveto
          -14 4 -70 -42 -67 -36 -76 -39 rlinecurve
          24 -64 15 -4 72 23 71 23 80 29 rlinecurve
          5 14 rlineto
          -140 -598 rmoveto
          63 439 rlineto
          -161 hlineto
          -48 -454 -32 -191 rlineto
          159 hlineto
          endchar
        </CharString>
        <CharString name="Iacute_J.loclNLD">
          105 21 -21 529 116 hstemhm
          42 620 -254.5 146.5 hintmask 11100000
          117 719 rmoveto
          15 -4 72 23 71 23 80 29 rlinecurve
          5 14 -40 92 -14 4 -70 -42 -67 -36 -76 -39 rlinecurve
          569 21 rmoveto
          -40 92 -14 4 -70 -42 -67 -36 -76 -39 rlinecurve
          24 -64 15 -4 72 23 71 23 80 29 rlinecurve
          -374 -145 rmoveto
          -161 hlineto
          -48 -454 -32 -191 rlineto
          159 hlineto
          19 206 rlineto
          401 439 rmoveto
          hintmask 11010000
          -257 hlineto
          -20 -106 9 -11 95 2 -36 -333 -9 -71 -8 -64 -32 -35 -80 -39 rlinecurve
          -1 -13 35 -83 160 53 57 62 16 115 rlinecurve
          8 91 rlineto
          endchar
        </CharString>
        <CharString name="Ibreve">
          -237 21 -21 645 -20 94 108 hstem
          42 338 vstem
          353 880 rmoveto
          -22 hlineto
          -34 -23 -39 -19 -47 hhcurveto
          -47 -37 18 35 -16 hvcurveto
          -22 hlineto
          -40 -48 rlineto
          -73 19 56 -40 80 hhcurveto
          77 55 40 73 33 hvcurveto
          -160 -626 rmoveto
          63 439 rlineto
          -161 hlineto
          -48 -454 -32 -191 rlineto
          159 hlineto
          endchar
        </CharString>
        <CharString name="Icaron">
          -237 21 -21 645 -20 hstem
          42 333 vstem
          355 887 rmoveto
          -15 hlineto
          -41 -20 -42 -21 -40 -21 -34 21 -34 21 -34 20 rrcurveto
          -15 hlineto
          -36 -61 49 -35 46 -36 39 -38 rlinecurve
          30 hlineto
          44 38 49 36 54 35 rrcurveto
          -155 -620 rmoveto
          63 439 rlineto
          -161 hlineto
          -48 -454 -32 -191 rlineto
          159 hlineto
          endchar
        </CharString>
        <CharString name="Icircumflex">
          -237 21 -21 645 -20 hstem
          42 334 vstem
          86 725 rmoveto
          15 hlineto
          40 21 43 20 39 21 103 -62 rcurveline
          15 hlineto
          35 61 -49 36 -45 36 -39 37 rlinecurve
          -30 hlineto
          -45 -37 -49 -36 -54 -36 rrcurveto
          155 -580 rmoveto
          63 439 rlineto
          -161 hlineto
          -48 -454 -32 -191 rlineto
          159 hlineto
          endchar
        </CharString>
        <CharString name="Idieresis">
          -237 21 -21 645 -20 102 144 hstemhm
          67 141 23 141 hintmask 11110000
          141 871 rmoveto
          -46 -28 -29 -46 -44 24 -25 44 45 28 29 46 44 -25 25 -42 hvcurveto
          hintmask 11111000
          164 hmoveto
          -46 -28 -29 -46 -44 24 -25 44 45 28 29 46 44 -25 25 -42 hvcurveto
          -85 -665 rmoveto
          63 439 rlineto
          -161 hlineto
          -48 -454 -32 -191 rlineto
          159 hlineto
          endchar
        </CharString>
        <CharString name="Idotaccent">
          -237 21 -21 645 -20 98 163 hstem
          141 159 vstem
          224 886 rmoveto
          -51 -32 -33 -52 -49 27 -29 50 50 32 33 52 49 -28 29 -48 hvcurveto
          -4 -680 rmoveto
          63 439 rlineto
          -161 hlineto
          -48 -454 -32 -191 rlineto
          159 hlineto
          endchar
        </CharString>
        <CharString name="Idotbelow">
          -237 -210 162 69 -21 645 -20 hstem
          31 159 vstem
          220 206 rmoveto
          63 439 rlineto
          -161 hlineto
          -48 -454 -32 -191 rlineto
          159 hlineto
          -87 -48 rmoveto
          -51 -32 -32 -52 -50 27 -28 50 50 32 33 52 48 -28 29 -48 hvcurveto
          endchar
        </CharString>
        <CharString name="Igrave">
          -237 21 -21 645 -20 hstem
          42 312 vstem
          126 897 rmoveto
          -39 -92 5 -14 79 -29 71 -23 73 -23 rlinecurve
          14 4 25 65 -76 38 -68 36 -70 42 rlinecurve
          80 -695 rmoveto
          63 439 rlineto
          -161 hlineto
          -48 -454 -32 -191 rlineto
          159 hlineto
          endchar
        </CharString>
        <CharString name="Ihookabove">
          -237 21 -21 645 -20 236 69 hstem
          205 80 vstem
          198 930 rmoveto
          -40 -42 -21 -33 -31 hvcurveto
          25 -40 rlineto
          16 20 26 9 20 hhcurveto
          16 13 -7 -16 -19 -20 -29 -33 -24 hvcurveto
          46 -71 54 32 -24 40 rlineto
          43 38 14 21 27 vvcurveto
          46 -38 31 -49 vhcurveto
          22 -724 rmoveto
          63 439 rlineto
          -161 hlineto
          -48 -454 -32 -191 rlineto
          159 hlineto
          endchar
        </CharString>
        <CharString name="Imacron">
          -237 21 -21 645 -20 128 96 hstem
          42 301 vstem
          343 839 rmoveto
          -10 10 rlineto
          -229 hlineto
          -8 -86 10 -10 rlineto
          230 hlineto
          -116 -547 rmoveto
          63 439 rlineto
          -161 hlineto
          -48 -454 -32 -191 rlineto
          159 hlineto
          endchar
        </CharString>
        <CharString name="Iogonek">
          -236 -197 83 135 -21 645 -20 hstem
          -5 81 vstem
          283 645 rmoveto
          -161 hlineto
          -48 -454 -32 -189 rlineto
          -36 -50 -11 -28 -31 vvcurveto
          -52 36 -38 56 36 32 16 32 37 vhcurveto
          -13 62 rlineto
          -8 hlineto
          -18 -20 -24 -9 -18 hhcurveto
          -22 -11 12 18 18 9 23 34 43 hvcurveto
          82 hlineto
          19 206 rlineto
          endchar
        </CharString>
        <CharString name="Itilde">
          -237 21 -21 645 -20 hstem
          42 339 vstem
          381 846 rmoveto
          -45 45 rlineto
          -13 hlineto
          -27 -20 -15 -26 -22 hhcurveto
          -21 -63 27 7 -42 hvcurveto
          -13 -6 -66 -96 rlineto
          -13 vlineto
          45 -45 rlineto
          13 hlineto
          27 19 16 26 21 hhcurveto
          21 63 -27 -7 43 hvcurveto
          13 5 66 97 rlineto
          -161 -627 rmoveto
          63 439 rlineto
          -161 hlineto
          -48 -454 -32 -191 rlineto
          159 hlineto
          endchar
        </CharString>
        <CharString name="J">
          -199 529 116 hstemhm
          -22 339 -213.5 146.5 hintmask 11000000
          317 645 rmoveto
          hintmask 10100000
          -257 hlineto
          -20 -106 9 -11 95 2 -36 -333 -9 -71 -8 -64 -32 -35 -80 -39 rlinecurve
          -1 -13 35 -83 160 53 57 62 16 115 rlinecurve
          8 91 rlineto
          endchar
        </CharString>
        <CharString name="Jcircumflex">
          -199 529 116 hstemhm
          -22 396 -269.5 145.5 hintmask 11000000
          211 895 rmoveto
          -45 -37 -49 -36 -54 -36 21 -61 rcurveline
          15 hlineto
          40 21 43 20 39 21 103 -62 rcurveline
          15 hlineto
          35 61 -49 36 -45 36 -39 37 rlinecurve
          77 -250 rmoveto
          hintmask 10100000
          -258 hlineto
          -20 -106 9 -11 95 2 -35 -333 -9 -71 -9 -64 -32 -35 -79 -39 rlinecurve
          -2 -13 35 -83 160 53 57 62 16 115 rlinecurve
          8 91 rlineto
          endchar
        </CharString>
        <CharString name="K">
          52 10 -21 32 -21 645 -20 hstemhm
          41 596 hintmask 01110000
          637 645 rmoveto
          -170 hlineto
          -44 -65 -182 -225 42 290 rlineto
          -161 hlineto
          -48 -454 -33 -191 rlineto
          159 hlineto
          19 206 16 113 rlineto
          hintmask 10110000
          52 -110 55 -105 57 -105 16 -10 rcurveline
          54 5 52 9 54 13 5 17 rcurveline
          -68 97 -65 100 -57 103 rrcurveto
          endchar
        </CharString>
        <CharString name="Kcommaaccent">
          52 -72 -21 103 -21 32 -21 645 -20 hstemhm
          248 111 hintmask 10111000
          637 645 rmoveto
          -170 hlineto
          -44 -65 -183 -226 42 291 rlineto
          -161 hlineto
          -47 -454 -33 -191 rlineto
          159 hlineto
          19 206 16 113 rlineto
          hintmask 11011000
          52 -110 55 -105 57 -105 16 -10 rcurveline
          54 5 52 9 54 13 5 17 rcurveline
          -68 97 -65 100 -57 103 rrcurveto
          -71 -374 rmoveto
          -36 -9 -32 -14 -31 -18 rrcurveto
          -11 vlineto
          19 -18 9 -18 -22 vvcurveto
          -33 -16 -29 -33 -27 vhcurveto
          1 -10 43 -38 rlineto
          79 55 37 53 58 vvcurveto
          32 -14 26 -26 23 vhcurveto
          endchar
        </CharString>
        <CharString name="L">
          -107 0 131 -12 12 514 -20 hstemhm
          38 381 hintmask 00000000
          hintmask 01110000
          419 119 rmoveto
          hintmask 10110000
          -7 12 rlineto
          -203 hlineto
          7 75 63 439 rlineto
          -161 hlineto
          -48 -454 -32 -191 rlineto
          356 hlineto
          endchar
        </CharString>
        <CharString name="L.ss01">
          -156 0 54 399 55 hstem
          -128 646 vstem
          194 170 rmoveto
          41 283 rlineto
          277 hlineto
          6 55 rlineto
          -583 hlineto
          -7 -55 rlineto
          164 hlineto
          -32 -298 -17 -101 rlineto
          -164 hlineto
          -7 -54 rlineto
          583 hlineto
          6 54 rlineto
          -121 hlineto
          11 69 rlineto
          -163 hlineto
          endchar
        </CharString>
        <CharString name="Lacute">
          -107 0 131 -12 12 514 -20 hstemhm
          38 381 hintmask 10110000
          111 719 rmoveto
          15 -4 72 23 71 23 80 29 rlinecurve
          5 14 -40 92 -14 4 -70 -42 -67 -36 -76 -39 rlinecurve
          hintmask 01110000
          332 -664 rmoveto
          hintmask 10110000
          -7 12 rlineto
          -203 hlineto
          7 75 63 439 rlineto
          -161 hlineto
          -48 -454 -32 -191 rlineto
          356 hlineto
          endchar
        </CharString>
        <CharString name="Lcaron">
          -84 0 131 -12 12 454 9 0 -20 71 -20 hstemhm
          38 458 hintmask 10011100
          412 131 rmoveto
          -203 hlineto
          7 75 63 439 rlineto
          -161 hlineto
          -48 -454 -32 -191 rlineto
          356 hlineto
          hintmask 01101100
          25 119 rlineto
          77 466 rmoveto
          -7 9 -111 -6 -22 -216 9 -9 69 11 rlineto
          endchar
        </CharString>
        <CharString name="Lcommaaccent">
          -107 -72 -21 93 131 -12 12 514 -20 hstemhm
          155 111 hintmask 00000000
          hintmask 10111000
          419 119 rmoveto
          hintmask 11011000
          -7 12 rlineto
          -203 hlineto
          7 75 63 439 rlineto
          -161 hlineto
          -48 -454 -32 -191 rlineto
          356 hlineto
          -168 -41 rmoveto
          -36 -9 -32 -14 -31 -18 rrcurveto
          -11 vlineto
          19 -18 9 -18 -22 vvcurveto
          -33 -16 -29 -33 -27 vhcurveto
          1 -10 43 -38 rlineto
          79 55 37 53 58 vvcurveto
          32 -14 26 -26 23 vhcurveto
          endchar
        </CharString>
        <CharString name="Ldot">
          -74 0 131 -12 12 181 163 170 -20 hstemhm
          313 159 hintmask 10111000
          418 131 rmoveto
          -202 hlineto
          7 75 62 439 rlineto
          -161 hlineto
          -48 -454 -32 -191 rlineto
          357 hlineto
          hintmask 01111000
          24 119 rlineto
          -29 356 rmoveto
          -51 -32 -33 -52 -49 28 -29 49 51 31 33 52 49 -27 29 -49 hvcurveto
          endchar
        </CharString>
        <CharString name="Lslash">
          -99 0 131 -12 12 343 -20 191 -20 hstemhm
          -5 431 -346 140.5 hintmask 00000000
          hintmask 01111000
          426 119 rmoveto
          hintmask 10111000
          -7 12 rlineto
          hintmask 10110100
          -202 hlineto
          7 75 14 101 141 69 -18 91 -13 7 -93 -45 31 216 rlineto
          -161 hlineto
          -30 -295 -100 -48 17 -92 12 -8 58 28 -4 -39 -32 -191 rlineto
          356 hlineto
          endchar
        </CharString>
        <CharString name="M">
          247 21 -21 65 206 142 232 0 -20 hstemhm
          599.5 132 hintmask 11011000
          719 hmoveto
          25 645 rlineto
          -180 hlineto
          -38 -97 -123 -277 rlineto
          -10 hlineto
          -47 280 -12 94 rlineto
          -183 hlineto
          -143 -645 rlineto
          133 hlineto
          38 210 rlineto
          hintmask 11101000
          45 203 rlineto
          10 hlineto
          69 -348 rlineto
          121 hlineto
          170 348 rlineto
          10 hlineto
          -9 -217 -17 -196 rlineto
          endchar
        </CharString>
        <CharString name="M.ss01">
          135 0 54 399 55 hstem
          485.5 114 vstem
          607 453 rmoveto
          195 hlineto
          7 55 rlineto
          -873 hlineto
          -6 -55 rlineto
          194 hlineto
          -90 -399 rlineto
          -154 hlineto
          -7 -54 rlineto
          873 hlineto
          6 54 rlineto
          -160 hlineto
          -158 399 rmoveto
          -12 -27 -77 -157 rlineto
          -8 hlineto
          -34 160 -3 24 rlineto
          171 -399 rmoveto
          -321 hlineto
          21 130 26 118 rlineto
          8 hlineto
          53 -212 rlineto
          106 hlineto
          116 212 rlineto
          8 hlineto
          -5 -129 rlineto
          endchar
        </CharString>
        <CharString name="N">
          150 21 -21 645 -20 23 -20 hstemhm
          42 631 hintmask 10110000
          608 203 rmoveto
          65 445 -148 -9 -45 -398 rlineto
          -10 hlineto
          hintmask 11010000
          -177 404 rlineto
          -171 hlineto
          -48 -455 -32 -190 rlineto
          145 hlineto
          22 226 23 178 rlineto
          10 hlineto
          176 -404 rlineto
          172 hlineto
          endchar
        </CharString>
        <CharString name="Nacute">
          150 21 -21 645 -20 23 -20 hstemhm
          42 630 hintmask 10110000
          516 896 rmoveto
          -14 4 -70 -42 -67 -36 -76 -39 rlinecurve
          24 -64 15 -4 72 23 71 23 80 29 rlinecurve
          5 14 rlineto
          52 -601 rmoveto
          64 445 -147 -9 -45 -398 rlineto
          -10 hlineto
          hintmask 11010000
          -177 404 rlineto
          -171 hlineto
          -48 -455 -32 -190 rlineto
          145 hlineto
          22 226 23 178 rlineto
          10 hlineto
          176 -404 rlineto
          171 hlineto
          endchar
        </CharString>
        <CharString name="Ncaron">
          150 21 -21 645 -20 23 -20 hstemhm
          42 630 hintmask 10110000
          551 887 rmoveto
          -15 hlineto
          -41 -20 -42 -21 -40 -21 -34 21 -34 21 -34 20 rrcurveto
          -15 hlineto
          -36 -61 49 -35 46 -36 39 -38 rlinecurve
          30 hlineto
          44 38 49 36 54 35 rrcurveto
          37 -623 rmoveto
          64 445 -147 -9 -45 -398 rlineto
          -10 hlineto
          hintmask 11010000
          -177 404 rlineto
          -171 hlineto
          -48 -455 -32 -190 rlineto
          145 hlineto
          22 226 23 178 rlineto
          10 hlineto
          176 -404 rlineto
          171 hlineto
          endchar
        </CharString>
        <CharString name="Ncommaaccent">
          150 -72 -21 114 -21 645 -20 23 -20 hstemhm
          265 111 hintmask 11011000
          608 203 rmoveto
          64 445 -147 -9 -45 -398 rlineto
          -10 hlineto
          hintmask 11101000
          -177 404 rlineto
          -171 hlineto
          -48 -455 -32 -190 rlineto
          145 hlineto
          22 226 23 178 rlineto
          10 hlineto
          176 -404 rlineto
          171 hlineto
          -253 -41 rmoveto
          -36 -9 -32 -14 -31 -18 rrcurveto
          -11 vlineto
          19 -18 9 -18 -22 vvcurveto
          -33 -16 -29 -33 -27 vhcurveto
          1 -10 43 -38 rlineto
          79 55 37 53 58 vvcurveto
          32 -14 26 -26 23 vhcurveto
          endchar
        </CharString>
        <CharString name="Ntilde">
          150 21 -21 645 -20 23 -20 hstemhm
          42 630 hintmask 10110000
          599 849 rmoveto
          -46 45 rlineto
          -13 hlineto
          -28 -24 -19 -26 -22 hhcurveto
          -26 -79 28 6 -49 hvcurveto
          -14 -5 -74 -97 rlineto
          -13 vlineto
          46 -45 rlineto
          14 hlineto
          27 23 19 27 22 hhcurveto
          26 80 -29 -6 48 hvcurveto
          14 5 74 98 rlineto
          9 -633 rmoveto
          64 445 -147 -9 -45 -398 rlineto
          -10 hlineto
          hintmask 11010000
          -177 404 rlineto
          -171 hlineto
          -48 -455 -32 -190 rlineto
          145 hlineto
          22 226 23 178 rlineto
          10 hlineto
          176 -404 rlineto
          171 hlineto
          endchar
        </CharString>
        <CharString name="O">
          101 -11 120 418 128 hstem
          32 165 268 168 vstem
          373 655 rmoveto
          -220 -121 -156 -231 -186 98 -93 161 221 121 160 231 185 -98 90 -162 hvcurveto
          -18 -128 rmoveto
          82 28 -45 -113 -197 -59 -63 -99 -82 -28 46 114 196 59 62 99 hvcurveto
          endchar
        </CharString>
        <CharString name="OE">
          323 -12 120 -108 123.5 -123.5 126 138.5 123 -8.5 9.5 132.5 124 -116 128 -24 12 hstemhm
          31 167 hintmask 0000000000000000
          hintmask 1000101010000000
          399 657 rmoveto
          -226 -142 -150 -245 -173 94 -101 168 hvcurveto
          hintmask 0010110010000000
          76 75 14 -2 62 hvcurveto
          303 hlineto
          24 117 -7 12 rlineto
          hintmask 0101010010000000
          -162 -6 -102 1 8 81 6 59 96 1 114 -3 rlineto
          hintmask 0010110010000000
          25 117 -7 11 -106 -3 -102 1 18 133 rlineto
          111 hlineto
          151 -5 rlineto
          hintmask 0010100110000000
          26 117 rlineto
          hintmask 0010110010000000
          -9 12 rlineto
          -308 hlineto
          hintmask 1000101010000000
          -57 -57 12 -72 hhcurveto
          -30 -128 rmoveto
          40 27 -6 -9 10 hvcurveto
          8 -6 1 -13 -2 -26 -33 -301 rcurveline
          -2 -25 -7 -14 -14 -8 rrcurveto
          -8 -12 -28 -5 -35 hhcurveto
          -87 -37 49 108 197 59 67 112 hvcurveto
          endchar
        </CharString>
        <CharString name="Oacute">
          101 -11 120 418 128 hstem
          32 165 268 168 vstem
          491 896 rmoveto
          -14 4 -70 -42 -67 -36 -76 -39 rlinecurve
          24 -64 15 -4 72 23 71 23 80 29 rlinecurve
          5 14 rlineto
          -158 -149 rmoveto
          -220 -121 -156 -231 -186 98 -93 161 221 121 160 231 185 -98 90 -162 hvcurveto
          -18 -128 rmoveto
          82 28 -45 -113 -197 -60 -63 -98 -82 -28 46 114 196 58 62 100 hvcurveto
          endchar
        </CharString>
        <CharString name="Obreve">
          101 -11 120 418 128 64 108 hstem
          32 165 268 168 vstem
          523 880 rmoveto
          -22 hlineto
          -34 -23 -39 -19 -47 hhcurveto
          -47 -37 18 35 -16 hvcurveto
          -22 hlineto
          -40 -48 rlineto
          -73 19 56 -40 80 hhcurveto
          77 55 40 73 33 hvcurveto
          -177 -177 rmoveto
          -220 -121 -156 -231 -186 98 -93 161 221 121 160 231 185 -98 90 -162 hvcurveto
          -18 -128 rmoveto
          82 28 -45 -113 -197 -60 -63 -98 -82 -28 46 114 196 58 62 100 hvcurveto
          endchar
        </CharString>
        <CharString name="Ocaron">
          101 -11 120 418 128 hstem
          32 165 268 168 vstem
          525 887 rmoveto
          -15 hlineto
          -41 -20 -42 -21 -40 -21 -34 21 -34 21 -34 20 rrcurveto
          -15 hlineto
          -36 -61 49 -35 46 -36 39 -38 rlinecurve
          30 hlineto
          44 38 49 36 54 35 rrcurveto
          -172 -171 rmoveto
          -220 -121 -156 -231 -186 98 -93 161 221 121 160 231 185 -98 90 -162 hvcurveto
          -18 -128 rmoveto
          82 28 -45 -113 -197 -60 -63 -98 -82 -28 46 114 196 58 62 100 hvcurveto
          endchar
        </CharString>
        <CharString name="Ocircumflex">
          101 -11 120 418 128 hstem
          32 165 268 168 vstem
          257 725 rmoveto
          15 hlineto
          40 21 43 20 39 21 103 -62 rcurveline
          15 hlineto
          35 61 -49 36 -45 36 -39 37 rlinecurve
          -30 hlineto
          -45 -37 -49 -36 -54 -36 rrcurveto
          137 -131 rmoveto
          -220 -121 -156 -231 -186 98 -93 161 221 121 160 231 185 -98 90 -162 hvcurveto
          -18 -128 rmoveto
          82 28 -45 -113 -197 -60 -63 -98 -82 -28 46 114 196 58 62 100 hvcurveto
          endchar
        </CharString>
        <CharString name="Ocircumflexacute">
          101 -11 120 418 128 hstem
          32 165 268 168 vstem
          609 982 rmoveto
          -78 34 -10 -5 -70 -133 52 -39 rlineto
          9 hlineto
          101 132 rlineto
          -233 -95 rmoveto
          -44 -37 -49 -36 -54 -36 21 -61 rcurveline
          15 hlineto
          40 21 43 20 39 21 35 -21 32 -20 36 -21 rrcurveto
          15 hlineto
          35 61 -49 36 -45 36 -40 37 rlinecurve
          -37 -221 rmoveto
          -220 -121 -156 -231 -186 98 -93 161 221 121 160 231 185 -98 90 -162 hvcurveto
          -18 -128 rmoveto
          82 28 -45 -113 -197 -60 -63 -98 -82 -28 46 114 196 58 62 100 hvcurveto
          endchar
        </CharString>
        <CharString name="Ocircumflexdotbelow">
          101 -210 162 37 120 418 128 hstemhm
          32 165 28 159 81 168 hintmask 01110100
          257 725 rmoveto
          15 hlineto
          40 21 43 20 39 21 103 -62 rcurveline
          15 hlineto
          35 61 -49 36 -45 36 -39 37 rlinecurve
          -30 hlineto
          -45 -37 -49 -36 -54 -36 rrcurveto
          137 -131 rmoveto
          -220 -121 -156 -231 -186 98 -93 161 221 121 160 231 185 -98 90 -162 hvcurveto
          -18 -128 rmoveto
          82 28 -45 -113 -197 -60 -63 -98 -82 -28 46 114 196 58 62 100 hvcurveto
          hintmask 11111100
          -47 -575 rmoveto
          -51 -32 -32 -52 -50 27 -28 50 50 32 33 52 48 -28 29 -48 hvcurveto
          endchar
        </CharString>
        <CharString name="Ocircumflexgrave">
          101 -11 120 418 128 hstem
          32 165 268 168 vstem
          488 1011 rmoveto
          -10 5 -78 -34 -3 -11 100 -132 rlineto
          10 hlineto
          51 39 rlineto
          -180 -3 rmoveto
          -44 -37 -49 -36 -54 -36 20 -61 rcurveline
          15 hlineto
          40 21 43 20 39 21 103 -62 rcurveline
          15 hlineto
          35 61 -49 36 -45 36 -39 37 rlinecurve
          -35 -220 rmoveto
          -220 -121 -156 -231 -186 98 -93 161 221 121 160 231 185 -98 90 -162 hvcurveto
          -18 -128 rmoveto
          82 28 -45 -113 -197 -60 -63 -98 -82 -28 46 114 196 58 62 100 hvcurveto
          endchar
        </CharString>
        <CharString name="Ocircumflexhookabove">
          101 -11 120 418 128 342 65 hstemhm
          32 165 268 168 -138 78 hintmask 00000000
          hintmask 11110100
          490 1062 rmoveto
          -39 -40 -20 -32 -29 hvcurveto
          23 -38 rlineto
          15 20 24 10 19 hhcurveto
          16 11 -7 -15 -19 -18 -28 -32 -22 hvcurveto
          44 -68 52 31 -23 38 rlineto
          40 36 15 20 25 vvcurveto
          44 -37 30 -46 vhcurveto
          -112 -186 rmoveto
          -45 -37 -49 -36 -54 -36 21 -61 rcurveline
          15 hlineto
          40 21 43 20 39 21 103 -62 rcurveline
          15 hlineto
          35 61 -49 36 -45 36 -39 37 rlinecurve
          hintmask 11011000
          -35 -221 rmoveto
          -220 -121 -156 -231 -186 98 -93 161 221 121 160 231 185 -98 90 -162 hvcurveto
          -18 -128 rmoveto
          82 28 -45 -113 -197 -60 -63 -98 -82 -28 46 114 196 58 62 100 hvcurveto
          endchar
        </CharString>
        <CharString name="Ocircumflextilde">
          101 -11 120 418 128 hstem
          32 165 268 168 vstem
          592 1001 rmoveto
          -41 42 rlineto
          -13 hlineto
          -27 -22 -17 -24 -20 hhcurveto
          -24 -73 26 7 -45 hvcurveto
          -12 -5 -68 -90 rlineto
          -12 vlineto
          42 -42 rlineto
          12 hlineto
          26 21 17 24 21 hhcurveto
          24 73 -27 -5 45 hvcurveto
          12 4 68 91 rlineto
          -206 -112 rmoveto
          -44 -38 -49 -36 -54 -35 21 -62 rcurveline
          15 hlineto
          40 21 42 21 40 21 35 -21 32 -21 36 -21 rrcurveto
          15 hlineto
          35 62 -50 35 -45 36 -39 38 rlinecurve
          -43 -222 rmoveto
          -220 -121 -156 -231 -186 98 -93 161 221 121 160 231 185 -98 90 -162 hvcurveto
          -18 -128 rmoveto
          82 28 -45 -113 -197 -60 -63 -98 -82 -28 46 114 196 58 62 100 hvcurveto
          endchar
        </CharString>
        <CharString name="Odieresis">
          101 -11 120 418 128 72 144 -143 144 hstemhm
          32 165 32 141 41 141 -87 168 hintmask 11011101
          303 872 rmoveto
          -46 -28 -29 -46 -44 24 -25 44 45 28 29 46 43 -25 26 -42 hvcurveto
          hintmask 11101110
          182 -1 rmoveto
          -46 -28 -28 -46 -45 24 -25 44 45 28 29 47 43 -25 25 -42 hvcurveto
          hintmask 11011101
          -112 -216 rmoveto
          -220 -121 -156 -231 -186 98 -93 161 221 121 160 231 185 -98 90 -162 hvcurveto
          -18 -128 rmoveto
          82 28 -45 -113 -197 -60 -63 -98 -82 -28 46 114 196 58 62 100 hvcurveto
          endchar
        </CharString>
        <CharString name="Odotbelow">
          101 -210 162 37 120 418 128 hstemhm
          32 165 28 159 81 168 hintmask 01110100
          373 655 rmoveto
          -220 -121 -156 -231 -186 98 -93 161 221 121 160 231 185 -98 90 -162 hvcurveto
          -18 -128 rmoveto
          82 28 -45 -113 -197 -60 -63 -98 -82 -28 46 114 196 58 62 100 hvcurveto
          hintmask 11111100
          -47 -575 rmoveto
          -51 -32 -32 -52 -50 27 -28 50 50 32 33 52 48 -28 29 -48 hvcurveto
          endchar
        </CharString>
        <CharString name="Ograve">
          101 -11 120 418 128 hstem
          32 165 268 168 vstem
          297 897 rmoveto
          -39 -92 5 -14 79 -29 71 -23 73 -23 rlinecurve
          14 4 25 65 -76 38 -68 36 -70 42 rlinecurve
          62 -246 rmoveto
          -220 -121 -156 -231 -186 98 -93 161 221 121 160 231 185 -98 90 -162 hvcurveto
          -18 -128 rmoveto
          82 28 -45 -113 -197 -60 -63 -98 -82 -28 46 114 196 58 62 100 hvcurveto
          endchar
        </CharString>
        <CharString name="Ohm">
          205 0 118 -104 -21 25 -21 531 127 hstemhm
          92 163 267 168 hintmask 10011100
          420 655 rmoveto
          -211 -117 -139 -175 -75 23 -77 50 -66 hvcurveto
          -2 -5 rlineto
          -46 hlineto
          -92 7 rlineto
          hintmask 00111100
          -33 -120 8 -10 rlineto
          hintmask 10011100
          101 5 rlineto
          170 hlineto
          hintmask 00111100
          36 -3 8 6 11 94 rlineto
          -47 58 -24 74 89 vvcurveto
          142 56 68 96 88 27 -57 -86 -97 -36 -99 -100 -92 vhcurveto
          -11 -94 6 -6 rlineto
          hintmask 10011100
          37 3 rlineto
          143 hlineto
          hintmask 01011100
          120 -7 rlineto
          hintmask 10011100
          33 125 -8 9 -84 -9 rlineto
          -66 hlineto
          -3 5 rlineto
          95 94 42 97 97 vvcurveto
          145 -93 99 -177 vhcurveto
          endchar
        </CharString>
        <CharString name="Ohookabove">
          101 -11 120 418 128 206 69 hstemhm
          32 165 178 80 10 168 hintmask 00000000
          hintmask 11111100
          368 930 rmoveto
          -40 -42 -21 -33 -31 hvcurveto
          25 -40 rlineto
          16 20 26 9 20 hhcurveto
          16 13 -7 -16 -19 -20 -29 -33 -24 hvcurveto
          46 -71 54 32 -24 40 rlineto
          43 38 14 21 27 vvcurveto
          46 -38 31 -49 vhcurveto
          hintmask 11010100
          5 -275 rmoveto
          -220 -121 -156 -231 -186 98 -93 161 221 121 160 231 185 -98 90 -162 hvcurveto
          -18 -128 rmoveto
          82 28 -45 -113 -197 -60 -63 -98 -82 -28 46 114 196 58 62 100 hvcurveto
          endchar
        </CharString>
        <CharString name="Ohorn">
          106 -11 120 418 128 hstemhm
          32 165 269 166 -31 122 hintmask 00000000
          hintmask 11101000
          660 781 rmoveto
          -26 -29 -15 -15 -23 hvcurveto
          -4 -12 rlineto
          15 -15 8 -22 -20 vvcurveto
          -36 -24 -20 -36 vhcurveto
          -43 -43 29 -88 hhcurveto
          -198 -137 -151 -230 -189 93 -96 165 hvcurveto
          hintmask 11110000
          215 127 162 230 73 -13 54 -30 47 hvcurveto
          hintmask 11101000
          75 13 59 55 74 vvcurveto
          50 -26 34 -37 vhcurveto
          -306 -254 rmoveto
          hintmask 11110000
          88 24 -50 -112 -191 -60 -65 -96 -88 -25 50 114 hvcurveto
          hintmask 11101000
          189 59 65 98 vhcurveto
          endchar
        </CharString>
        <CharString name="Ohornacute">
          106 -11 120 418 128 hstemhm
          32 165 269 166 -31 122 hintmask 11110000
          491 896 rmoveto
          -14 4 -70 -42 -67 -36 -76 -39 rlinecurve
          24 -64 15 -4 72 23 71 23 80 29 rlinecurve
          5 14 rlineto
          hintmask 11101000
          129 -23 rmoveto
          -25 -30 -15 -15 -22 hvcurveto
          -4 -12 rlineto
          14 -15 8 -22 -20 vvcurveto
          -36 -24 -20 -36 vhcurveto
          -42 -43 29 -88 hhcurveto
          -198 -138 -151 -230 -189 94 -96 165 hvcurveto
          hintmask 11110000
          215 126 162 230 73 -13 54 -30 47 hvcurveto
          hintmask 11101000
          76 13 58 55 74 vvcurveto
          50 -26 34 -37 vhcurveto
          -306 -254 rmoveto
          hintmask 11110000
          88 24 -50 -112 -191 -60 -65 -97 -88 -24 50 114 hvcurveto
          hintmask 11101000
          189 59 65 98 vhcurveto
          endchar
        </CharString>
        <CharString name="Ohorndotbelow">
          106 -210 162 37 120 418 128 hstemhm
          32 165 28 159 82 166 -31 122 hintmask 00000000
          hintmask 11110010
          660 781 rmoveto
          -25 -30 -15 -15 -22 hvcurveto
          -4 -12 rlineto
          14 -15 8 -22 -20 vvcurveto
          -36 -24 -20 -36 vhcurveto
          -42 -43 29 -88 hhcurveto
          -198 -138 -151 -230 -189 94 -96 165 hvcurveto
          hintmask 11110100
          215 126 162 230 73 -13 54 -30 47 hvcurveto
          hintmask 11110010
          76 13 58 55 74 vvcurveto
          50 -26 34 -37 vhcurveto
          -306 -254 rmoveto
          hintmask 11110100
          88 24 -50 -112 -191 -60 -65 -97 -88 -24 50 114 hvcurveto
          hintmask 11110010
          189 59 65 98 vhcurveto
          hintmask 11111100
          -46 -575 rmoveto
          -51 -32 -32 -52 -50 27 -28 50 50 32 33 52 48 -28 29 -48 hvcurveto
          endchar
        </CharString>
        <CharString name="Ohorngrave">
          106 -11 120 418 128 hstemhm
          32 165 269 166 -31 122 hintmask 11110000
          297 897 rmoveto
          -39 -92 5 -14 79 -29 71 -23 73 -23 rlinecurve
          14 4 25 65 -76 38 -68 36 -70 42 rlinecurve
          hintmask 11101000
          349 -120 rmoveto
          -25 -30 -15 -15 -22 hvcurveto
          -4 -12 rlineto
          14 -15 8 -22 -20 vvcurveto
          -36 -24 -20 -36 vhcurveto
          -42 -43 29 -88 hhcurveto
          -198 -138 -151 -230 -189 94 -96 165 hvcurveto
          hintmask 11110000
          215 126 162 230 73 -13 54 -30 47 hvcurveto
          hintmask 11101000
          76 13 58 55 74 vvcurveto
          50 -26 34 -37 vhcurveto
          -306 -254 rmoveto
          hintmask 11110000
          88 24 -50 -112 -191 -60 -65 -97 -88 -24 50 114 hvcurveto
          hintmask 11101000
          189 59 65 98 vhcurveto
          endchar
        </CharString>
        <CharString name="Ohornhookabove">
          106 -11 120 418 128 206 69 hstemhm
          32 165 178 80 11 166 -31 122 hintmask 00000000
          hintmask 11111010
          368 930 rmoveto
          -40 -42 -21 -33 -31 hvcurveto
          25 -40 rlineto
          16 20 26 9 20 hhcurveto
          16 13 -7 -16 -19 -20 -29 -33 -24 hvcurveto
          46 -71 54 32 -24 40 rlineto
          43 38 14 21 27 vvcurveto
          46 -38 31 -49 vhcurveto
          292 -149 rmoveto
          -25 -30 -15 -15 -22 hvcurveto
          -4 -12 rlineto
          14 -15 8 -22 -20 vvcurveto
          -36 -24 -20 -36 vhcurveto
          -42 -43 29 -88 hhcurveto
          -198 -138 -151 -230 -189 94 -96 165 hvcurveto
          hintmask 11110100
          215 126 162 230 73 -13 54 -30 47 hvcurveto
          hintmask 11110010
          76 13 58 55 74 vvcurveto
          hintmask 11111010
          50 -26 34 -37 vhcurveto
          -306 -254 rmoveto
          hintmask 11110100
          88 24 -50 -112 -191 -60 -65 -97 -88 -24 50 114 hvcurveto
          hintmask 11111010
          189 59 65 98 vhcurveto
          endchar
        </CharString>
        <CharString name="Ohorntilde">
          106 -11 120 418 128 hstemhm
          32 165 269 166 -31 122 hintmask 11110000
          573 849 rmoveto
          -46 45 rlineto
          -13 hlineto
          -28 -24 -19 -26 -22 hhcurveto
          -26 -79 28 6 -49 hvcurveto
          -14 -5 -74 -97 rlineto
          -13 vlineto
          46 -45 rlineto
          14 hlineto
          27 23 19 27 22 hhcurveto
          26 80 -29 -6 48 hvcurveto
          14 5 74 98 rlineto
          hintmask 11101000
          87 -55 rmoveto
          -25 -30 -15 -15 -22 hvcurveto
          -4 -12 rlineto
          14 -15 8 -22 -20 vvcurveto
          -36 -24 -20 -36 vhcurveto
          -42 -43 29 -88 hhcurveto
          -198 -138 -151 -230 -189 94 -96 165 hvcurveto
          hintmask 11110000
          215 126 162 230 73 -13 54 -30 47 hvcurveto
          hintmask 11101000
          76 13 58 55 74 vvcurveto
          50 -26 34 -37 vhcurveto
          -306 -254 rmoveto
          hintmask 11110000
          88 24 -50 -112 -191 -60 -65 -97 -88 -24 50 114 hvcurveto
          hintmask 11101000
          189 59 65 98 vhcurveto
          endchar
        </CharString>
        <CharString name="Ohungarumlaut">
          101 -11 120 418 128 hstem
          32 165 268 168 vstem
          265 714 rmoveto
          14 4 43 38 42 39 41 41 rlinecurve
          -2 12 -71 46 -12 -2 -32 -48 -35 -46 -36 -46 rlinecurve
          208 -38 rmoveto
          13 4 43 38 43 39 41 41 rlinecurve
          -2 12 -72 46 -11 -2 -33 -48 -35 -46 -35 -46 rlinecurve
          -4 -97 rmoveto
          -220 -121 -156 -231 -186 98 -93 161 221 121 160 231 185 -98 90 -162 hvcurveto
          -18 -128 rmoveto
          82 28 -45 -113 -197 -60 -63 -98 -82 -28 46 114 196 58 62 100 hvcurveto
          endchar
        </CharString>
        <CharString name="Omacron">
          101 -11 120 418 128 98 96 hstem
          32 165 268 168 vstem
          539 839 rmoveto
          -10 10 rlineto
          -279 hlineto
          -7 -86 9 -10 rlineto
          279 hlineto
          -158 -98 rmoveto
          -220 -121 -156 -231 -186 98 -93 161 221 121 160 231 185 -98 90 -162 hvcurveto
          -18 -128 rmoveto
          82 28 -45 -113 -197 -60 -63 -98 -82 -28 46 114 196 58 62 100 hvcurveto
          endchar
        </CharString>
        <CharString name="Omega">
          205 0 118 -104 -21 25 -21 531 127 hstemhm
          92 163 267 168 hintmask 10011100
          420 655 rmoveto
          -211 -117 -139 -175 -75 22 -77 51 -66 hvcurveto
          -2 -5 rlineto
          -47 hlineto
          -91 7 rlineto
          hintmask 00111100
          -33 -120 7 -10 rlineto
          hintmask 10011100
          102 5 rlineto
          170 hlineto
          hintmask 00111100
          36 -3 8 6 11 94 rlineto
          -47 58 -24 74 89 vvcurveto
          142 56 68 96 88 27 -57 -86 -97 -36 -99 -100 -92 vhcurveto
          -12 -94 7 -6 rlineto
          hintmask 10011100
          37 3 rlineto
          143 hlineto
          hintmask 01011100
          119 -7 rlineto
          hintmask 10011100
          33 125 -7 9 -84 -9 rlineto
          -66 hlineto
          -3 5 rlineto
          94 94 43 97 97 vvcurveto
          145 -93 99 -177 vhcurveto
          endchar
        </CharString>
        <CharString name="Oogonek">
          101 -197 83 103 120 418 128 hstem
          32 165 125 81 62 168 vstem
          459 28 rmoveto
          114 61 60 128 163 vvcurveto
          185 -98 90 -162 -220 -121 -156 -231 -186 98 -93 161 26 24 2 4 23 vhcurveto
          -12 -16 rlineto
          -21 -29 -9 -29 -27 vvcurveto
          -51 36 -40 59 36 32 15 33 38 vhcurveto
          -11 61 rlineto
          -8 hlineto
          -16 -22 -22 -10 -20 hhcurveto
          -25 -12 15 21 14 6 15 10 16 hvcurveto
          -222 302 rmoveto
          196 58 62 100 82 28 -45 -113 -197 -60 -63 -98 -82 -28 46 114 vhcurveto
          endchar
        </CharString>
        <CharString name="Oslash">
          101 -11 120 -88 -21 527 128 -60 -20 hstemhm
          32 165 268 168 hintmask 10101100
          612 690 rmoveto
          -7 16 -78 36 -59 -99 rlineto
          8 -29 -31 4 -35 hhcurveto
          -220 -121 -156 -231 -102 29 -73 53 -47 hvcurveto
          -71 -119 5 -14 80 -37 rlineto
          hintmask 01101100
          74 124 rlineto
          hintmask 10011100
          -7 27 30 -4 32 hhcurveto
          221 121 160 231 98 -28 71 -50 46 hvcurveto
          -248 -486 rmoveto
          -82 -28 46 114 hvcurveto
          hintmask 10101100
          196 58 62 100 82 28 -45 -113 vhcurveto
          hintmask 10011100
          -197 -60 -63 -98 vhcurveto
          endchar
        </CharString>
        <CharString name="Oslashacute">
          101 -11 120 -88 -21 527 128 -60 -20 hstemhm
          32 165 268 168 hintmask 10101100
          274 721 rmoveto
          15 -4 72 23 71 23 80 29 rlinecurve
          5 14 -40 92 -14 4 -70 -42 -67 -36 -76 -39 rlinecurve
          362 -95 rmoveto
          -7 16 -78 36 -59 -99 rlineto
          8 -29 -31 4 -35 hhcurveto
          -220 -121 -156 -231 -102 29 -73 53 -47 hvcurveto
          -71 -119 5 -14 80 -37 rlineto
          hintmask 01101100
          74 124 rlineto
          hintmask 10011100
          -7 27 30 -4 32 hhcurveto
          221 121 160 231 98 -28 71 -50 46 hvcurveto
          -248 -486 rmoveto
          -82 -28 46 114 hvcurveto
          hintmask 10101100
          196 58 62 100 82 28 -45 -113 vhcurveto
          hintmask 10011100
          -197 -60 -63 -98 vhcurveto
          endchar
        </CharString>
        <CharString name="Otilde">
          101 -11 120 418 128 hstem
          32 165 268 168 vstem
          573 849 rmoveto
          -46 45 rlineto
          -13 hlineto
          -28 -24 -19 -26 -22 hhcurveto
          -26 -79 28 6 -49 hvcurveto
          -14 -5 -74 -97 rlineto
          -13 vlineto
          46 -45 rlineto
          14 hlineto
          27 23 19 27 22 hhcurveto
          26 80 -29 -6 48 hvcurveto
          14 5 74 98 rlineto
          -200 -181 rmoveto
          -220 -121 -156 -231 -186 98 -93 161 221 121 160 231 185 -98 90 -162 hvcurveto
          -18 -128 rmoveto
          82 28 -45 -113 -197 -60 -63 -98 -82 -28 46 114 196 58 62 100 hvcurveto
          endchar
        </CharString>
        <CharString name="P">
          20 21 -21 198 116 216.5 115.5 hstem
          410 168 vstem
          122 645 rmoveto
          -48 -454 -32 -191 rlineto
          159 hlineto
          18 198 rlineto
          64 hlineto
          179 116 114 160 114 -77 60 -123 hvcurveto
          -142 -330 rmoveto
          30 213 55 3 rlineto
          63 -3 26 -27 -55 vvcurveto
          -69 -30 -46 -58 -20 vhcurveto
          endchar
        </CharString>
        <CharString name="Q">
          103 -11 120 418 128 hstem
          32 165 268 168 vstem
          690 -83 rmoveto
          -87 24 -81 36 -74 46 rrcurveto
          120 59 65 130 168 vvcurveto
          185 -96 90 -162 -221 -122 -156 -231 -186 96 -93 161 vhcurveto
          9 hlineto
          86 -81 101 -65 113 -48 12 5 rcurveline
          33 28 27 33 24 40 rrcurveto
          -497 368 rmoveto
          196 59 62 99 82 28 -45 -113 -197 -59 -63 -99 -82 -28 46 114 vhcurveto
          endchar
        </CharString>
        <CharString name="R">
          55 10 -21 32 -21 209 117 204.5 115.5 hstemhm
          410 169 hintmask 01111000
          579 479 rmoveto
          107 -76 60 -124 vhcurveto
          -257 -1 -48 -454 -32 -191 rlineto
          159 hlineto
          18 206 rlineto
          3 85 vlineto
          hintmask 10111000
          23 -70 27 -69 28 -68 14 -13 rcurveline
          54 4 53 10 54 17 3 17 rcurveline
          -43 71 -40 72 -37 73 rrcurveto
          hintmask 01111000
          87 50 52 81 95 vvcurveto
          -342 -151 rmoveto
          29 201 55 3 rlineto
          60 -3 29 -24 -52 vvcurveto
          -65 -26 -42 -60 -22 vhcurveto
          endchar
        </CharString>
        <CharString name="Racute">
          55 10 -21 32 -21 209 117 204.5 115.5 hstemhm
          410 169 hintmask 01111000
          277 699 rmoveto
          14 -1 67 36 64 37 73 42 rlinecurve
          3 15 -55 84 -15 1 -60 -54 -60 -49 -68 -53 rlinecurve
          339 -278 rmoveto
          107 -77 60 -123 vhcurveto
          -257 -1 -48 -454 -32 -191 rlineto
          159 hlineto
          19 206 rlineto
          3 84 vlineto
          hintmask 10111000
          24 -70 27 -69 27 -68 14 -13 rcurveline
          54 4 54 10 53 17 4 17 rcurveline
          -44 71 -39 72 -37 73 rrcurveto
          hintmask 01111000
          86 50 52 81 95 vvcurveto
          -341 -151 rmoveto
          28 201 55 3 rlineto
          60 -3 29 -24 -52 vvcurveto
          -65 -26 -42 -60 -22 vhcurveto
          endchar
        </CharString>
        <CharString name="Rcaron">
          55 10 -21 32 -21 209 117 204.5 115.5 hstemhm
          410 169 hintmask 01111000
          370 703 rmoveto
          58 53 55 51 49 40 -30 58 rcurveline
          -16 hlineto
          -45 -31 -44 -29 -33 -27 -26 27 -34 29 -38 31 rrcurveto
          -15 hlineto
          -45 -58 46 -46 49 -51 38 -47 rlinecurve
          240 -224 rmoveto
          107 -77 60 -123 vhcurveto
          -257 -1 -48 -454 -32 -191 rlineto
          159 hlineto
          19 206 rlineto
          3 84 vlineto
          hintmask 10111000
          24 -70 27 -69 27 -68 14 -13 rcurveline
          54 4 54 10 53 17 4 17 rcurveline
          -44 71 -39 72 -37 73 rrcurveto
          hintmask 01111000
          86 50 52 81 95 vvcurveto
          -341 -151 rmoveto
          28 201 55 3 rlineto
          60 -3 29 -24 -52 vvcurveto
          -65 -26 -42 -60 -22 vhcurveto
          endchar
        </CharString>
        <CharString name="Rcommaaccent">
          55 -72 -21 103 -21 32 -21 209 117 204.5 115.5 hstemhm
          217 111 82 169 hintmask 10111110
          579 479 rmoveto
          107 -77 60 -123 vhcurveto
          -257 -1 -48 -454 -32 -191 rlineto
          159 hlineto
          19 206 rlineto
          3 84 vlineto
          hintmask 11011110
          24 -70 27 -69 27 -68 14 -13 rcurveline
          54 4 54 10 53 17 4 17 rcurveline
          -44 71 -39 72 -37 73 rrcurveto
          hintmask 10111110
          86 50 52 81 95 vvcurveto
          -341 -151 rmoveto
          28 201 55 3 rlineto
          60 -3 29 -24 -52 vvcurveto
          -65 -26 -42 -60 -22 vhcurveto
          -36 -365 rmoveto
          -36 -9 -32 -14 -31 -18 rrcurveto
          -11 vlineto
          19 -18 9 -18 -22 vvcurveto
          -33 -16 -29 -33 -27 vhcurveto
          1 -10 43 -38 rlineto
          79 55 37 53 58 vvcurveto
          32 -14 26 -26 23 vhcurveto
          endchar
        </CharString>
        <CharString name="S">
          -39 -10 119 422 124 hstem
          68 160 81 162 vstem
          333 655 rmoveto
          -153 -112 -96 -123 hvcurveto
          -175 241 1 -93 vvcurveto
          -31 -26 -29 -55 -45 -69 24 49 -54 vhcurveto
          -17 -9 -39 -143 rlineto
          -26 64 70 -14 63 hhcurveto
          160 110 98 119 hvcurveto
          173 -243 6 87 vvcurveto
          31 29 27 48 37 51 -19 -34 46 vhcurveto
          24 10 41 133 rlineto
          25 -62 -61 9 -48 hhcurveto
          endchar
        </CharString>
        <CharString name="Sacute">
          -39 -10 119 422 124 hstem
          68 159 82 162 vstem
          399 912 rmoveto
          -15 1 -60 -54 -60 -49 -68 -53 rlinecurve
          37 -58 14 -1 67 36 64 37 73 42 rlinecurve
          3 15 rlineto
          -121 -173 rmoveto
          -153 -112 -96 -123 hvcurveto
          -175 241 1 -93 vvcurveto
          -31 -27 -29 -54 -46 -69 24 49 -53 vhcurveto
          -17 -9 -39 -143 rlineto
          -26 64 70 -14 63 hhcurveto
          160 110 98 119 hvcurveto
          173 -244 6 87 vvcurveto
          31 30 27 48 37 51 -19 -34 46 vhcurveto
          24 10 40 133 rlineto
          25 -61 -62 9 -47 hhcurveto
          endchar
        </CharString>
        <CharString name="Scaron">
          -39 -10 119 422 124 hstem
          68 159 82 162 vstem
          458 905 rmoveto
          -16 hlineto
          -45 -31 -44 -29 -33 -27 -26 27 -34 29 -38 31 rrcurveto
          -15 hlineto
          -45 -58 46 -46 49 -51 38 -47 rlinecurve
          31 hlineto
          58 53 55 51 49 40 rrcurveto
          -155 -192 rmoveto
          -153 -112 -96 -123 hvcurveto
          -175 241 1 -93 vvcurveto
          -31 -27 -29 -54 -46 -69 24 49 -53 vhcurveto
          -17 -9 -39 -143 rlineto
          -26 64 70 -14 63 hhcurveto
          160 110 98 119 hvcurveto
          173 -244 6 87 vvcurveto
          31 30 27 48 37 51 -19 -34 46 vhcurveto
          24 10 40 133 rlineto
          25 -61 -62 9 -47 hhcurveto
          endchar
        </CharString>
        <CharString name="Scedilla">
          -39 -203 63 152 -21 540 124 hstemhm
          68 159 -9 88 3 162 hintmask 11110100
          227 473 rmoveto
          31 30 27 48 37 51 -19 -34 46 vhcurveto
          24 10 40 133 rlineto
          25 -61 -62 9 -47 hhcurveto
          -153 -112 -96 -123 hvcurveto
          -175 241 1 -93 vvcurveto
          -31 -27 -29 -54 -46 -69 24 49 -53 vhcurveto
          -17 -9 -39 -143 rlineto
          hintmask 11101000
          53 -21 57 -14 54 -4 -15 -66 rcurveline
          50 -28 rlineto
          9 -5 6 -5 -8 vvcurveto
          -12 -8 -7 -14 -17 -22 11 18 -19 vhcurveto
          -7 -2 -10 -63 rlineto
          -16 23 28 -11 34 hhcurveto
          62 38 33 45 24 -10 19 -32 18 hvcurveto
          -34 19 8 37 rlineto
          hintmask 11110100
          140 14 93 92 109 173 -244 6 87 vvcurveto
          endchar
        </CharString>
        <CharString name="Scircumflex">
          -39 -10 119 422 124 hstem
          68 159 82 162 vstem
          192 705 rmoveto
          15 hlineto
          46 31 43 30 32 27 26 -27 36 -30 38 -31 rrcurveto
          15 hlineto
          45 59 -46 46 -48 51 -38 47 rlinecurve
          -31 hlineto
          -58 -53 -55 -51 -50 -40 rrcurveto
          171 -109 rmoveto
          -153 -112 -96 -123 hvcurveto
          -175 241 1 -93 vvcurveto
          -31 -27 -29 -54 -46 -69 24 49 -53 vhcurveto
          -17 -9 -39 -143 rlineto
          -26 64 70 -14 63 hhcurveto
          160 110 98 119 hvcurveto
          173 -244 6 87 vvcurveto
          31 30 27 48 37 51 -19 -34 46 vhcurveto
          24 10 40 133 rlineto
          25 -61 -62 9 -47 hhcurveto
          endchar
        </CharString>
        <CharString name="Scommaaccent">
          -39 -72 -21 83 119 422 124 hstemhm
          68 159 -57 111 28 162 hintmask 11110100
          333 655 rmoveto
          -153 -112 -96 -123 hvcurveto
          -175 241 1 -93 vvcurveto
          -31 -27 -29 -54 -46 -69 24 49 -53 vhcurveto
          -17 -9 -39 -143 rlineto
          -26 64 70 -14 63 hhcurveto
          160 110 98 119 hvcurveto
          173 -244 6 87 vvcurveto
          31 30 27 48 37 51 -19 -34 46 vhcurveto
          24 10 40 133 rlineto
          25 -61 -62 9 -47 hhcurveto
          hintmask 11101100
          -92 -696 rmoveto
          -36 -9 -32 -14 -31 -18 rrcurveto
          -11 vlineto
          19 -18 9 -18 -22 vvcurveto
          -33 -16 -29 -33 -27 vhcurveto
          1 -10 43 -38 rlineto
          79 55 37 53 58 vvcurveto
          32 -14 26 -26 23 vhcurveto
          endchar
        </CharString>
        <CharString name="T">
          -40 21 -21 522 123 -12 12 hstemhm
          49 490 hintmask 00000000
          hintmask 10110000
          539 633 rmoveto
          hintmask 11010000
          -7 12 rlineto
          -459 hlineto
          -24 -117 8 -12 126 6 rlineto
          29 hlineto
          -36 -331 -33 -191 rlineto
          159 hlineto
          19 206 44 316 rlineto
          28 hlineto
          122 -6 rlineto
          endchar
        </CharString>
        <CharString name="Tbar">
          -40 21 -21 255 84 183 123 -12 12 hstemhm
          49 490 hintmask 11101000
          364 522 rmoveto
          30 hlineto
          122 -6 rlineto
          hintmask 11011000
          23 117 rlineto
          hintmask 11101000
          -7 12 rlineto
          -459 hlineto
          -24 -117 8 -12 126 6 rlineto
          28 hlineto
          -19 -183 rlineto
          -95 hlineto
          -6 -73 10 -11 rlineto
          82 hlineto
          -7 -64 -33 -191 rlineto
          159 hlineto
          18 206 7 49 rlineto
          102 hlineto
          6 73 -10 11 rlineto
          -86 hlineto
          endchar
        </CharString>
        <CharString name="Tcaron">
          -40 21 -21 522 123 -12 12 hstemhm
          49 490 hintmask 11010000
          322 703 rmoveto
          58 53 55 51 49 40 -30 58 rcurveline
          -16 hlineto
          -45 -31 -44 -29 -33 -27 -26 27 -34 29 -38 31 rrcurveto
          -15 hlineto
          -45 -58 46 -46 49 -51 38 -47 rlinecurve
          hintmask 10110000
          248 -70 rmoveto
          hintmask 11010000
          -7 12 rlineto
          -459 hlineto
          -24 -117 8 -12 126 6 rlineto
          28 hlineto
          -35 -331 -33 -191 rlineto
          159 hlineto
          18 206 44 316 rlineto
          30 hlineto
          122 -6 rlineto
          endchar
        </CharString>
        <CharString name="Tcedilla">
          -40 -197 60 158 -21 522 123 -12 12 hstemhm
          49 490 -305 84 hintmask 00000000
          hintmask 11011000
          539 633 rmoveto
          hintmask 11101000
          -7 12 rlineto
          -459 hlineto
          -24 -117 8 -12 rlineto
          hintmask 11100100
          126 6 rlineto
          28 hlineto
          -35 -331 -33 -191 rlineto
          46 hlineto
          -16 -73 47 -27 rlineto
          9 -5 5 -5 -9 vvcurveto
          -11 -7 -7 -13 -17 -20 11 18 -19 vhcurveto
          -6 -3 -10 -60 rlineto
          -14 22 27 -12 32 hhcurveto
          58 37 32 44 23 -10 18 -30 17 hvcurveto
          -32 19 10 44 rlineto
          46 hlineto
          18 206 44 316 rlineto
          30 hlineto
          122 -6 rlineto
          endchar
        </CharString>
        <CharString name="Tcommaaccent">
          -40 -72 -21 114 -21 522 123 -12 12 hstemhm
          169 111 hintmask 00000000
          hintmask 11011000
          539 633 rmoveto
          hintmask 11101000
          -7 12 rlineto
          -459 hlineto
          -24 -117 8 -12 126 6 rlineto
          28 hlineto
          -35 -331 -33 -191 rlineto
          159 hlineto
          18 206 44 316 rlineto
          30 hlineto
          122 -6 rlineto
          -276 -557 rmoveto
          -36 -9 -32 -14 -31 -18 rrcurveto
          -11 vlineto
          19 -18 9 -18 -22 vvcurveto
          -33 -16 -29 -33 -27 vhcurveto
          1 -10 43 -38 rlineto
          79 55 37 53 58 vvcurveto
          32 -14 26 -26 23 vhcurveto
          endchar
        </CharString>
        <CharString name="Thorn">
          28 21 -21 105 115 213 114 98 -20 hstem
          407 165 vstem
          270 547 rmoveto
          14 98 rlineto
          -162 hlineto
          -48 -454 -32 -191 rlineto
          160 hlineto
          10 105 rlineto
          69 hlineto
          176 115 113 158 113 -76 58 -121 hvcurveto
          -152 -325 rmoveto
          30 209 66 4 rlineto
          62 -3 26 -26 -55 vvcurveto
          -67 -30 -47 -58 -19 vhcurveto
          endchar
        </CharString>
        <CharString name="U">
          93 -10 128 527 -20 hstem
          53 153 vstem
          585 318 rmoveto
          45 327 rlineto
          -160 hlineto
          -43 -405 rlineto
          -84 -9 -40 -38 -77 hhcurveto
          -65 -30 29 64 10 1 11 1 12 hvcurveto
          56 401 rlineto
          -158 hlineto
          -36 -325 -14 -97 rlineto
          -2 -17 -1 -16 -14 vvcurveto
          -120 89 -66 146 171 96 85 151 18 vhcurveto
          endchar
        </CharString>
        <CharString name="Uacute">
          93 -10 128 527 -20 hstem
          53 153 vstem
          487 896 rmoveto
          -14 4 -70 -42 -67 -36 -76 -39 rlinecurve
          24 -64 15 -4 72 23 71 23 80 29 rlinecurve
          5 14 rlineto
          58 -486 rmoveto
          45 327 rlineto
          -160 hlineto
          -43 -405 rlineto
          -84 -9 -40 -38 -77 hhcurveto
          -65 -30 29 64 10 1 11 1 12 hvcurveto
          56 401 rlineto
          -158 hlineto
          -36 -325 -14 -97 rlineto
          -2 -17 -1 -16 -14 vvcurveto
          -120 89 -66 146 171 96 85 151 18 vhcurveto
          endchar
        </CharString>
        <CharString name="Ubreve">
          93 -10 128 527 -20 85 108 hstem
          53 153 vstem
          519 890 rmoveto
          -22 hlineto
          -47 -23 -41 -25 -49 hhcurveto
          -48 -36 25 47 -12 hvcurveto
          -22 hlineto
          -39 -51 rlineto
          -66 10 41 -63 98 hhcurveto
          88 56 60 69 26 hvcurveto
          39 -521 rmoveto
          45 327 rlineto
          -160 hlineto
          -43 -405 rlineto
          -84 -9 -40 -38 -77 hhcurveto
          -65 -30 29 64 10 1 11 1 12 hvcurveto
          56 401 rlineto
          -158 hlineto
          -36 -325 -14 -97 rlineto
          -2 -17 -1 -16 -14 vvcurveto
          -120 89 -66 146 171 96 85 151 18 vhcurveto
          endchar
        </CharString>
        <CharString name="Ucaron">
          93 -10 128 527 -20 hstem
          53 153 vstem
          521 905 rmoveto
          -16 hlineto
          -45 -31 -44 -29 -33 -27 -26 27 -34 29 -38 31 rrcurveto
          -15 hlineto
          -45 -58 46 -46 49 -51 38 -47 rlinecurve
          31 hlineto
          58 53 55 51 49 40 rrcurveto
          34 -529 rmoveto
          45 327 rlineto
          -160 hlineto
          -43 -405 rlineto
          -84 -9 -40 -38 -77 hhcurveto
          -65 -30 29 64 10 1 11 1 12 hvcurveto
          56 401 rlineto
          -158 hlineto
          -36 -325 -14 -97 rlineto
          -2 -17 -1 -16 -14 vvcurveto
          -120 89 -66 146 171 96 85 151 18 vhcurveto
          endchar
        </CharString>
        <CharString name="Ucircumflex">
          93 -10 128 527 -20 hstem
          53 153 vstem
          253 725 rmoveto
          15 hlineto
          40 21 43 20 39 21 103 -62 rcurveline
          15 hlineto
          35 61 -49 36 -45 36 -39 37 rlinecurve
          -30 hlineto
          -45 -37 -49 -36 -54 -36 rrcurveto
          353 -468 rmoveto
          45 327 rlineto
          -160 hlineto
          -43 -405 rlineto
          -84 -9 -40 -38 -77 hhcurveto
          -65 -30 29 64 10 1 11 1 12 hvcurveto
          56 401 rlineto
          -158 hlineto
          -36 -325 -14 -97 rlineto
          -2 -17 -1 -16 -14 vvcurveto
          -120 89 -66 146 171 96 85 151 18 vhcurveto
          endchar
        </CharString>
        <CharString name="Udieresis">
          93 -10 128 527 -20 102 144 -143 144 hstemhm
          53 153 19 141 41 141 hintmask 00000000
          hintmask 11011110
          299 872 rmoveto
          -46 -28 -29 -46 -44 24 -25 44 45 28 29 46 43 -25 26 -42 hvcurveto
          hintmask 11101010
          182 -1 rmoveto
          -46 -28 -28 -46 -45 24 -25 44 45 28 29 47 43 -25 25 -42 hvcurveto
          104 -553 rmoveto
          45 327 rlineto
          -160 hlineto
          -43 -405 rlineto
          -84 -9 -40 -38 -77 hhcurveto
          -65 -30 29 64 10 1 11 1 12 hvcurveto
          56 401 rlineto
          -158 hlineto
          -36 -325 -14 -97 rlineto
          -2 -17 -1 -16 -14 vvcurveto
          -120 89 -66 146 171 96 85 151 18 vhcurveto
          endchar
        </CharString>
        <CharString name="Udieresisacute">
          93 -10 128 527 -20 84 142 hstemhm
          53 153 21 139 41 139 hintmask 11110100
          505 1040 rmoveto
          -13 6 -76 -29 -73 -24 -82 -24 rlinecurve
          14 -68 13 -6 75 9 74 11 84 14 rlinecurve
          7 13 rlineto
          hintmask 11111100
          -228 -91 rmoveto
          -46 -27 -28 -45 -44 24 -25 43 45 27 29 46 42 -24 25 -42 hvcurveto
          180 hmoveto
          -45 -28 -28 -45 -44 25 -25 43 44 27 29 46 42 -24 25 -42 hvcurveto
          105 -533 rmoveto
          45 327 rlineto
          -160 hlineto
          -43 -405 rlineto
          hintmask 11110100
          -84 -9 -40 -38 -77 hhcurveto
          -65 -30 29 64 10 1 11 1 12 hvcurveto
          56 401 rlineto
          -158 hlineto
          -36 -325 -14 -97 rlineto
          -2 -17 -1 -16 -14 vvcurveto
          -120 89 -66 146 171 96 85 151 18 vhcurveto
          endchar
        </CharString>
        <CharString name="Udieresiscaron">
          93 -10 128 527 -20 84 142 hstemhm
          53 153 26 139 41 139 hintmask 11110100
          534 1032 rmoveto
          -15 hlineto
          -41 -21 -42 -20 -39 -21 -35 21 -34 20 -34 21 rrcurveto
          -15 hlineto
          -35 -62 48 -35 46 -36 39 -38 rlinecurve
          30 hlineto
          44 38 49 36 55 35 rrcurveto
          hintmask 11111100
          -250 -119 rmoveto
          -46 -27 -28 -45 -44 24 -25 43 45 27 29 46 42 -25 25 -41 hvcurveto
          180 hmoveto
          -45 -28 -28 -45 -44 24 -25 44 44 27 29 46 42 -24 25 -42 hvcurveto
          100 -533 rmoveto
          45 327 rlineto
          -160 hlineto
          -43 -405 rlineto
          hintmask 11110100
          -84 -9 -40 -38 -77 hhcurveto
          -65 -30 29 64 10 1 11 1 12 hvcurveto
          56 401 rlineto
          -158 hlineto
          -36 -325 -14 -97 rlineto
          -2 -17 -1 -16 -14 vvcurveto
          -120 89 -66 146 171 96 85 151 18 vhcurveto
          endchar
        </CharString>
        <CharString name="Udieresisgrave">
          93 -10 128 527 -20 84 142 hstemhm
          53 153 14 139 41 140 hintmask 11110100
          302 1040 rmoveto
          -35 -98 7 -13 81 -14 73 -11 73 -9 rlinecurve
          15 6 21 68 -78 24 -71 24 -72 29 rlinecurve
          hintmask 11111100
          -21 -195 rmoveto
          -46 -29 -30 -45 -43 23 -24 42 46 28 30 47 41 -23 24 -41 hvcurveto
          180 hmoveto
          -46 -29 -30 -45 -43 23 -24 43 46 28 30 47 41 -24 24 -41 hvcurveto
          110 -533 rmoveto
          45 327 rlineto
          -160 hlineto
          -43 -405 rlineto
          hintmask 11110100
          -84 -9 -40 -38 -77 hhcurveto
          -65 -30 29 64 10 1 11 1 12 hvcurveto
          56 401 rlineto
          -158 hlineto
          -36 -325 -14 -97 rlineto
          -2 -17 -1 -16 -14 vvcurveto
          -120 89 -66 146 171 96 85 151 18 vhcurveto
          endchar
        </CharString>
        <CharString name="Udieresismacron">
          93 -10 128 527 -20 84 142 54 97 hstemhm
          53 153 26 139 42 139 hintmask 11111010
          557 991 rmoveto
          -11 11 rlineto
          -288 hlineto
          -8 -86 11 -11 rlineto
          287 hlineto
          hintmask 11111110
          -243 -54 rmoveto
          -45 -28 -28 -45 -44 24 -25 44 44 27 29 46 42 -24 25 -42 hvcurveto
          181 hmoveto
          -45 -28 -28 -45 -44 24 -25 43 45 27 29 46 42 -24 25 -42 hvcurveto
          99 -533 rmoveto
          45 327 rlineto
          -160 hlineto
          -43 -405 rlineto
          hintmask 11111010
          -84 -9 -40 -38 -77 hhcurveto
          -65 -30 29 64 10 1 11 1 12 hvcurveto
          56 401 rlineto
          -158 hlineto
          -36 -325 -14 -97 rlineto
          -2 -17 -1 -16 -14 vvcurveto
          -120 89 -66 146 171 96 85 151 18 vhcurveto
          endchar
        </CharString>
        <CharString name="Udotbelow">
          93 -210 162 38 128 527 -20 hstemhm
          53 153 -5 159 hintmask 11110000
          585 318 rmoveto
          45 327 rlineto
          -160 hlineto
          -43 -405 rlineto
          -84 -9 -40 -38 -77 hhcurveto
          -65 -30 29 64 10 1 11 1 12 hvcurveto
          56 401 rlineto
          -158 hlineto
          -36 -325 -14 -97 rlineto
          -2 -17 -1 -16 -14 vvcurveto
          -120 89 -66 146 171 96 85 151 18 vhcurveto
          hintmask 11101000
          -289 -274 rmoveto
          -51 -32 -32 -52 -50 27 -28 50 50 32 33 52 48 -28 29 -48 hvcurveto
          endchar
        </CharString>
        <CharString name="Ugrave">
          93 -10 128 527 -20 hstem
          53 153 vstem
          294 897 rmoveto
          -39 -92 5 -14 79 -29 71 -23 73 -23 rlinecurve
          14 4 25 65 -76 38 -68 36 -70 42 rlinecurve
          277 -583 rmoveto
          45 327 rlineto
          -160 hlineto
          -43 -405 rlineto
          -84 -9 -40 -38 -77 hhcurveto
          -65 -30 29 64 10 1 11 1 12 hvcurveto
          56 401 rlineto
          -158 hlineto
          -36 -325 -14 -97 rlineto
          -2 -17 -1 -16 -14 vvcurveto
          -120 89 -66 146 171 96 85 151 18 vhcurveto
          endchar
        </CharString>
        <CharString name="Uhookabove">
          93 -10 128 527 -20 236 69 hstem
          53 153 166 80 vstem
          365 930 rmoveto
          -40 -42 -21 -33 -31 hvcurveto
          25 -40 rlineto
          16 20 26 9 20 hhcurveto
          16 13 -7 -16 -19 -20 -29 -33 -24 hvcurveto
          46 -71 54 32 -24 40 rlineto
          43 38 14 21 27 vvcurveto
          46 -38 31 -49 vhcurveto
          220 -612 rmoveto
          45 327 rlineto
          -160 hlineto
          -43 -405 rlineto
          -84 -9 -40 -38 -77 hhcurveto
          -65 -30 29 64 10 1 11 1 12 hvcurveto
          56 401 rlineto
          -158 hlineto
          -36 -325 -14 -97 rlineto
          -2 -17 -1 -16 -14 vvcurveto
          -120 89 -66 146 171 96 85 151 18 vhcurveto
          endchar
        </CharString>
        <CharString name="Uhorn">
          105 -10 128 527 -20 hstem
          53 153 382 120 vstem
          708 708 rmoveto
          50 -33 37 -39 -26 -26 -14 -16 -23 vhcurveto
          -3 -12 rlineto
          20 -17 10 -20 -22 vvcurveto
          -34 -18 -15 -41 vhcurveto
          -59 hlineto
          -43 -405 rlineto
          -84 -9 -40 -38 -77 hhcurveto
          -65 -30 29 64 10 1 11 1 12 hvcurveto
          56 401 rlineto
          -158 hlineto
          -36 -325 -14 -97 rlineto
          -2 -17 -1 -16 -14 vvcurveto
          -120 89 -66 146 171 96 85 151 18 vhcurveto
          12 92 37 272 rlineto
          53 24 33 44 50 vvcurveto
          endchar
        </CharString>
        <CharString name="Uhornacute">
          105 -10 128 527 -20 hstem
          53 153 382 120 vstem
          268 719 rmoveto
          15 -4 72 23 71 23 80 29 rlinecurve
          5 14 -40 92 -14 4 -70 -42 -67 -36 -76 -39 rlinecurve
          464 -75 rmoveto
          50 -33 37 -39 -26 -26 -14 -16 -23 vhcurveto
          -3 -12 rlineto
          20 -17 10 -20 -22 vvcurveto
          -34 -18 -15 -41 vhcurveto
          -59 hlineto
          -43 -405 rlineto
          -84 -9 -40 -38 -77 hhcurveto
          -65 -30 29 64 10 1 11 1 12 hvcurveto
          56 401 rlineto
          -158 hlineto
          -36 -325 -14 -97 rlineto
          -2 -17 -1 -16 -14 vvcurveto
          -120 89 -66 146 171 96 85 151 18 vhcurveto
          12 92 37 272 rlineto
          53 24 33 44 50 vvcurveto
          endchar
        </CharString>
        <CharString name="Uhorndotbelow">
          105 -210 162 38 128 527 -20 hstemhm
          53 153 2 159 221 120 hintmask 11110100
          708 708 rmoveto
          50 -33 37 -39 -26 -26 -14 -16 -23 vhcurveto
          -3 -12 rlineto
          20 -17 10 -20 -22 vvcurveto
          -34 -18 -15 -41 vhcurveto
          -59 hlineto
          -43 -405 rlineto
          -84 -9 -40 -38 -77 hhcurveto
          -65 -30 29 64 10 1 11 1 12 hvcurveto
          56 401 rlineto
          -158 hlineto
          -36 -325 -14 -97 rlineto
          -2 -17 -1 -16 -14 vvcurveto
          -120 89 -66 146 171 96 85 151 18 vhcurveto
          12 92 37 272 rlineto
          53 24 33 44 50 vvcurveto
          hintmask 11101100
          -417 -756 rmoveto
          -51 -32 -32 -52 -50 27 -28 50 50 32 33 52 48 -28 29 -48 hvcurveto
          endchar
        </CharString>
        <CharString name="Uhorngrave">
          105 -10 128 527 -20 hstem
          53 153 382 120 vstem
          481 720 rmoveto
          25 65 -76 38 -68 36 -70 42 rlinecurve
          -14 -4 -39 -92 5 -14 79 -29 71 -23 73 -23 rlinecurve
          241 -8 rmoveto
          50 -33 37 -39 -26 -26 -14 -16 -23 vhcurveto
          -3 -12 rlineto
          20 -17 10 -20 -22 vvcurveto
          -34 -18 -15 -41 vhcurveto
          -59 hlineto
          -43 -405 rlineto
          -84 -9 -40 -38 -77 hhcurveto
          -65 -30 29 64 10 1 11 1 12 hvcurveto
          56 401 rlineto
          -158 hlineto
          -36 -325 -14 -97 rlineto
          -2 -17 -1 -16 -14 vvcurveto
          -120 89 -66 146 171 96 85 151 18 vhcurveto
          12 92 37 272 rlineto
          53 24 33 44 50 vvcurveto
          endchar
        </CharString>
        <CharString name="Uhornhookabove">
          105 -10 128 527 -20 236 69 hstem
          53 153 150 80 152 120 vstem
          327 861 rmoveto
          16 13 -7 -16 -19 -20 -29 -33 -24 hvcurveto
          46 -71 54 32 -24 40 rlineto
          43 38 14 21 27 vvcurveto
          46 -38 31 -49 -40 -42 -21 -33 -31 vhcurveto
          25 -40 rlineto
          16 20 26 9 20 hhcurveto
          381 -153 rmoveto
          50 -33 37 -39 -26 -26 -14 -16 -23 vhcurveto
          -3 -12 rlineto
          20 -17 10 -20 -22 vvcurveto
          -34 -18 -15 -41 vhcurveto
          -59 hlineto
          -43 -405 rlineto
          -84 -9 -40 -38 -77 hhcurveto
          -65 -30 29 64 10 1 11 1 12 hvcurveto
          56 401 rlineto
          -158 hlineto
          -36 -325 -14 -97 rlineto
          -2 -17 -1 -16 -14 vvcurveto
          -120 89 -66 146 171 96 85 151 18 vhcurveto
          12 92 37 272 rlineto
          53 24 33 44 50 vvcurveto
          endchar
        </CharString>
        <CharString name="Uhorntilde">
          105 -10 128 527 -20 hstem
          53 153 382 120 vstem
          234 714 rmoveto
          14 hlineto
          27 23 19 27 22 hhcurveto
          26 80 -29 -6 48 hvcurveto
          14 5 74 98 rlineto
          13 vlineto
          -46 45 rlineto
          -13 hlineto
          -28 -24 -19 -26 -22 hhcurveto
          -26 -79 28 6 -49 hvcurveto
          -14 -5 -74 -97 rlineto
          -13 vlineto
          520 -51 rmoveto
          50 -33 37 -39 -26 -26 -14 -16 -23 vhcurveto
          -3 -12 rlineto
          20 -17 10 -20 -22 vvcurveto
          -34 -18 -15 -41 vhcurveto
          -59 hlineto
          -43 -405 rlineto
          -84 -9 -40 -38 -77 hhcurveto
          -65 -30 29 64 10 1 11 1 12 hvcurveto
          56 401 rlineto
          -158 hlineto
          -36 -325 -14 -97 rlineto
          -2 -17 -1 -16 -14 vvcurveto
          -120 89 -66 146 171 96 85 151 18 vhcurveto
          12 92 37 272 rlineto
          53 24 33 44 50 vvcurveto
          endchar
        </CharString>
        <CharString name="Uhungarumlaut">
          93 -10 128 527 -20 hstem
          53 153 vstem
          262 714 rmoveto
          14 4 43 38 42 39 41 41 rlinecurve
          -2 12 -71 46 -12 -2 -32 -48 -35 -46 -36 -46 rlinecurve
          208 -38 rmoveto
          13 4 43 38 43 39 41 41 rlinecurve
          -2 12 -72 46 -11 -2 -33 -48 -35 -46 -35 -46 rlinecurve
          211 -434 rmoveto
          45 327 rlineto
          -160 hlineto
          -43 -405 rlineto
          -84 -9 -40 -38 -77 hhcurveto
          -65 -30 29 64 10 1 11 1 12 hvcurveto
          56 401 rlineto
          -158 hlineto
          -36 -325 -14 -97 rlineto
          -2 -17 -1 -16 -14 vvcurveto
          -120 89 -66 146 171 96 85 151 18 vhcurveto
          endchar
        </CharString>
        <CharString name="Umacron">
          93 -10 128 527 -20 128 96 hstem
          53 153 vstem
          535 839 rmoveto
          -10 10 rlineto
          -279 hlineto
          -7 -86 9 -10 rlineto
          279 hlineto
          58 -435 rmoveto
          45 327 rlineto
          -160 hlineto
          -43 -405 rlineto
          -84 -9 -40 -38 -77 hhcurveto
          -65 -30 29 64 10 1 11 1 12 hvcurveto
          56 401 rlineto
          -158 hlineto
          -36 -325 -14 -97 rlineto
          -2 -17 -1 -16 -14 vvcurveto
          -120 89 -66 146 171 96 85 151 18 vhcurveto
          endchar
        </CharString>
        <CharString name="Uogonek">
          93 -197 83 104 128 527 -20 hstem
          53 153 123 80 vstem
          630 645 rmoveto
          -160 hlineto
          -43 -405 rlineto
          -84 -9 -40 -38 -77 hhcurveto
          -65 -30 29 64 10 1 11 1 12 hvcurveto
          56 401 rlineto
          -158 hlineto
          -36 -325 -14 -97 rlineto
          -2 -17 -1 -16 -14 vvcurveto
          -120 89 -66 146 31 28 3 5 26 vhcurveto
          -15 -22 rlineto
          -20 -28 -9 -28 -26 vvcurveto
          -52 36 -39 58 36 31 16 33 38 vhcurveto
          -12 60 rlineto
          -8 hlineto
          -17 -21 -23 -9 -19 hhcurveto
          -25 -11 13 20 14 6 16 11 16 hvcurveto
          45 74 58 39 34 64 10 84 rlinecurve
          12 92 rlineto
          endchar
        </CharString>
        <CharString name="Uring">
          93 -10 128 527 -20 89 63 72 65 hstem
          53 153 82 62 77 62 vstem
          391 914 rmoveto
          -67 -36 -37 -65 -64 35 -34 62 66 38 37 67 61 -32 35 -66 hvcurveto
          -3 -65 rmoveto
          27 12 -12 -25 -25 -12 -10 -26 -26 -13 11 27 23 11 11 27 hvcurveto
          197 -531 rmoveto
          45 327 rlineto
          -160 hlineto
          -43 -405 rlineto
          -84 -9 -40 -38 -77 hhcurveto
          -65 -30 29 64 10 1 11 1 12 hvcurveto
          56 401 rlineto
          -158 hlineto
          -36 -325 -14 -97 rlineto
          -2 -17 -1 -16 -14 vvcurveto
          -120 89 -66 146 171 96 85 151 18 vhcurveto
          endchar
        </CharString>
        <CharString name="Utilde">
          93 -10 128 527 -20 hstem
          53 153 vstem
          570 849 rmoveto
          -46 45 rlineto
          -13 hlineto
          -28 -24 -19 -26 -22 hhcurveto
          -26 -79 28 6 -49 hvcurveto
          -14 -5 -74 -97 rlineto
          -13 vlineto
          46 -45 rlineto
          14 hlineto
          27 23 19 27 22 hhcurveto
          26 80 -29 -6 48 hvcurveto
          14 5 74 98 rlineto
          15 -518 rmoveto
          45 327 rlineto
          -160 hlineto
          -43 -405 rlineto
          -84 -9 -40 -38 -77 hhcurveto
          -65 -30 29 64 10 1 11 1 12 hvcurveto
          56 401 rlineto
          -158 hlineto
          -36 -325 -14 -97 rlineto
          -2 -17 -1 -16 -14 vvcurveto
          -120 89 -66 146 171 96 85 151 18 vhcurveto
          endchar
        </CharString>
        <CharString name="V">
          47 0 145 500 -20 hstem
          58 581 vstem
          355 hmoveto
          284 645 rlineto
          -155 hlineto
          -31 -102 -167 -398 rlineto
          -9 hlineto
          -53 407 -5 93 rlineto
          -161 hlineto
          107 -645 rlineto
          endchar
        </CharString>
        <CharString name="V.ss01">
          -24 0 54 -54 136 317 55 hstemhm
          -127 777 hintmask 10110000
          514 453 rmoveto
          129 hlineto
          7 55 rlineto
          -714 hlineto
          -6 -55 rlineto
          138 hlineto
          68 -399 rlineto
          -256 hlineto
          -7 -54 rlineto
          714 hlineto
          7 54 rlineto
          -261 hlineto
          50 399 rmoveto
          -13 -42 rlineto
          hintmask 01110000
          -119 -275 rlineto
          -9 hlineto
          -36 284 -2 33 rlineto
          endchar
        </CharString>
        <CharString name="W">
          351 0 162 483 -20 hstem
          69 871 vstem
          660 hmoveto
          280 645 rlineto
          -147 hlineto
          -29 -96 -155 -387 rlineto
          -9 hlineto
          -49 380 -1 103 rlineto
          -162 hlineto
          22 -154 -134 -329 rlineto
          -10 hlineto
          -43 396 1 87 rlineto
          -155 hlineto
          86 -645 rlineto
          169 hlineto
          114 281 rlineto
          9 hlineto
          46 -281 rlineto
          endchar
        </CharString>
        <CharString name="Wacute">
          351 0 162 483 -20 hstem
          69 871 vstem
          595 896 rmoveto
          -14 4 -70 -42 -67 -36 -76 -39 rlinecurve
          24 -64 15 -4 72 23 71 23 80 29 rlinecurve
          5 14 rlineto
          25 -804 rmoveto
          280 645 rlineto
          -147 hlineto
          -29 -96 -155 -387 rlineto
          -9 hlineto
          -49 380 -1 103 rlineto
          -162 hlineto
          21 -154 -133 -329 rlineto
          -10 hlineto
          -43 396 1 87 rlineto
          -155 hlineto
          86 -645 rlineto
          169 hlineto
          114 281 rlineto
          9 hlineto
          46 -281 rlineto
          endchar
        </CharString>
        <CharString name="Wcircumflex">
          351 0 162 483 -20 hstem
          69 871 vstem
          361 725 rmoveto
          15 hlineto
          40 21 43 20 39 21 103 -62 rcurveline
          15 hlineto
          35 61 -49 36 -45 36 -39 37 rlinecurve
          -30 hlineto
          -45 -37 -49 -36 -54 -36 rrcurveto
          320 -786 rmoveto
          280 645 rlineto
          -147 hlineto
          -29 -96 -155 -387 rlineto
          -9 hlineto
          -49 380 -1 103 rlineto
          -162 hlineto
          21 -154 -133 -329 rlineto
          -10 hlineto
          -43 396 1 87 rlineto
          -155 hlineto
          86 -645 rlineto
          169 hlineto
          114 281 rlineto
          9 hlineto
          46 -281 rlineto
          endchar
        </CharString>
        <CharString name="Wdieresis">
          351 0 162 483 -20 102 144 -143 144 hstemhm
          333 141 41 141 hintmask 11011100
          407 872 rmoveto
          -46 -28 -29 -46 -44 24 -25 44 45 28 29 46 43 -25 26 -42 hvcurveto
          hintmask 11101100
          182 -1 rmoveto
          -46 -28 -28 -46 -45 24 -25 44 45 28 29 47 43 -25 25 -42 hvcurveto
          71 -871 rmoveto
          280 645 rlineto
          -147 hlineto
          -29 -96 -155 -387 rlineto
          -9 hlineto
          -49 380 -1 103 rlineto
          -162 hlineto
          21 -154 -133 -329 rlineto
          -10 hlineto
          -43 396 1 87 rlineto
          -155 hlineto
          86 -645 rlineto
          169 hlineto
          114 281 rlineto
          9 hlineto
          46 -281 rlineto
          endchar
        </CharString>
        <CharString name="Wgrave">
          351 0 162 483 -20 hstem
          69 871 vstem
          401 897 rmoveto
          -39 -92 5 -14 79 -29 71 -23 73 -23 rlinecurve
          14 4 25 65 -76 38 -68 36 -70 42 rlinecurve
          245 -901 rmoveto
          280 645 rlineto
          -147 hlineto
          -29 -96 -155 -387 rlineto
          -9 hlineto
          -49 380 -1 103 rlineto
          -162 hlineto
          21 -154 -133 -329 rlineto
          -10 hlineto
          -43 396 1 87 rlineto
          -155 hlineto
          86 -645 rlineto
          169 hlineto
          114 281 rlineto
          9 hlineto
          46 -281 rlineto
          endchar
        </CharString>
        <CharString name="X">
          69 21 -21 645 -20 hstem
          -19 663 vstem
          419 331 rmoveto
          225 314 rlineto
          -166 hlineto
          -36 -63 -105 -145 -65 137 -23 71 rlineto
          -187 hlineto
          154 -321 -235 -324 rlineto
          162 hlineto
          37 61 116 153 69 -144 22 -70 rlineto
          186 hlineto
          endchar
        </CharString>
        <CharString name="X.ss01">
          -7 0 54 399 55 hstem
          -127 793 vstem
          359 265 rmoveto
          143 188 rlineto
          158 hlineto
          6 55 rlineto
          -730 hlineto
          -6 -55 rlineto
          155 hlineto
          106 -202 -155 -197 rlineto
          -156 hlineto
          -7 -54 rlineto
          731 hlineto
          6 54 rlineto
          -146 hlineto
          -226 399 rmoveto
          131 hlineto
          -10 -18 -68 -89 -45 82 rlineto
          66 -374 rmoveto
          -145 hlineto
          13 22 77 92 46 -86 rlineto
          endchar
        </CharString>
        <CharString name="Y">
          22 21 -21 645 -20 hstemhm
          197.5 144.5 hintmask 00000000
          hintmask 11100000
          345 213 rmoveto
          278 432 rlineto
          -164 hlineto
          -26 -53 -133 -222 rlineto
          -10 hlineto
          -66 227 -8 48 rlineto
          -165 hlineto
          148 -430 -3 -39 -30 -176 rlineto
          158 hlineto
          15 176 rlineto
          endchar
        </CharString>
        <CharString name="Yacute">
          22 21 -21 645 -20 hstemhm
          51 572 -425.5 134.5 hintmask 11100000
          249 719 rmoveto
          15 -4 72 23 71 23 80 29 rlinecurve
          5 14 -40 92 -14 4 -70 -42 -67 -36 -76 -39 rlinecurve
          120 -570 rmoveto
          278 432 rlineto
          -164 hlineto
          -26 -53 -132 -222 rlineto
          -11 hlineto
          -65 227 -9 48 rlineto
          -165 hlineto
          hintmask 11010000
          148 -430 -3 -39 -30 -176 rlineto
          159 hlineto
          14 176 rlineto
          endchar
        </CharString>
        <CharString name="Ycircumflex">
          22 21 -21 645 -20 hstemhm
          51 572 -425.5 134.5 hintmask 11100000
          218 725 rmoveto
          15 hlineto
          40 21 43 20 39 21 103 -62 rcurveline
          15 hlineto
          35 61 -49 36 -45 36 -39 37 rlinecurve
          -30 hlineto
          -45 -37 -49 -36 -54 -36 rrcurveto
          148 -573 rmoveto
          278 432 rlineto
          -164 hlineto
          -26 -53 -132 -222 rlineto
          -11 hlineto
          -65 227 -9 48 rlineto
          -165 hlineto
          hintmask 11010000
          148 -430 -3 -39 -30 -176 rlineto
          159 hlineto
          14 176 rlineto
          endchar
        </CharString>
        <CharString name="Ydieresis">
          22 21 -21 645 -20 102 144 -143 144 hstemhm
          190 141 -133.5 134.5 40 141 hintmask 11011010
          258 728 rmoveto
          45 28 29 46 43 -25 26 -42 -46 -28 -29 -46 -44 24 -25 44 hvcurveto
          hintmask 11100110
          182 -1 rmoveto
          45 28 29 47 43 -25 25 -42 -46 -28 -28 -46 -45 24 -25 44 hvcurveto
          -95 -514 rmoveto
          278 432 rlineto
          -164 hlineto
          -26 -53 -132 -222 rlineto
          -11 hlineto
          -65 227 -9 48 rlineto
          -165 hlineto
          148 -430 -3 -39 -30 -176 rlineto
          159 hlineto
          14 176 rlineto
          endchar
        </CharString>
        <CharString name="Ydotbelow">
          22 -210 162 69 -21 645 -20 hstemhm
          155 159 -116.5 144.5 hintmask 00000000
          hintmask 11101000
          345 213 rmoveto
          278 432 rlineto
          -164 hlineto
          -26 -53 -132 -222 rlineto
          -11 hlineto
          -65 227 -9 48 rlineto
          -165 hlineto
          148 -430 -3 -39 -30 -176 rlineto
          159 hlineto
          14 176 rlineto
          hintmask 11110000
          -101 -224 rmoveto
          -51 -32 -32 -52 -50 27 -28 50 50 32 33 52 48 -28 29 -48 hvcurveto
          endchar
        </CharString>
        <CharString name="Ygrave">
          22 21 -21 645 -20 hstemhm
          51 572 -425.5 134.5 hintmask 11100000
          461 720 rmoveto
          25 65 -76 38 -68 36 -70 42 rlinecurve
          -14 -4 -39 -92 5 -14 79 -29 71 -23 73 -23 rlinecurve
          -102 -503 rmoveto
          278 432 rlineto
          -164 hlineto
          -26 -53 -132 -222 rlineto
          -11 hlineto
          -65 227 -9 48 rlineto
          -165 hlineto
          hintmask 11010000
          148 -430 -3 -39 -30 -176 rlineto
          159 hlineto
          14 176 rlineto
          endchar
        </CharString>
        <CharString name="Yhookabove">
          22 21 -21 645 -20 236 69 hstemhm
          197.5 134.5 5 80 hintmask 11101000
          308 861 rmoveto
          16 13 -7 -16 -19 -20 -29 -33 -24 hvcurveto
          46 -71 54 32 -24 40 rlineto
          43 38 14 21 27 vvcurveto
          46 -38 31 -49 -40 -42 -21 -33 -31 vhcurveto
          25 -40 rlineto
          16 20 26 9 20 hhcurveto
          37 -648 rmoveto
          278 432 rlineto
          -164 hlineto
          -26 -53 -132 -222 rlineto
          -11 hlineto
          -65 227 -9 48 rlineto
          -165 hlineto
          hintmask 11110000
          148 -430 -3 -39 -30 -176 rlineto
          159 hlineto
          14 176 rlineto
          endchar
        </CharString>
        <CharString name="Ytilde">
          22 21 -21 645 -20 hstemhm
          51 572 -425.5 134.5 hintmask 11100000
          215 714 rmoveto
          14 hlineto
          27 23 19 27 22 hhcurveto
          26 80 -29 -6 48 hvcurveto
          14 5 74 98 rlineto
          13 vlineto
          -46 45 rlineto
          -13 hlineto
          -28 -24 -19 -26 -22 hhcurveto
          -26 -79 28 6 -49 hvcurveto
          -14 -5 -74 -97 rlineto
          -13 vlineto
          176 -546 rmoveto
          278 432 rlineto
          -164 hlineto
          -26 -53 -132 -222 rlineto
          -11 hlineto
          -65 227 -9 48 rlineto
          -165 hlineto
          hintmask 11010000
          148 -430 -3 -39 -30 -176 rlineto
          159 hlineto
          14 176 rlineto
          endchar
        </CharString>
        <CharString name="Z">
          6 0 119 -102 -21 529 120 hstemhm
          0 565 hintmask 10110000
          550 531 rmoveto
          15 115 -67 -1 rlineto
          -269 hlineto
          -135 2 -27 -124 5 -7 112 9 rlineto
          182 hlineto
          -352 -416 rlineto
          hintmask 01110000
          -14 -114 rlineto
          hintmask 10110000
          86 5 rlineto
          241 hlineto
          hintmask 01110000
          156 -4 rlineto
          hintmask 10110000
          27 124 -4 8 -113 -9 rlineto
          -191 hlineto
          endchar
        </CharString>
        <CharString name="Zacute">
          6 0 119 -102 -21 529 120 hstemhm
          0 565 hintmask 10110000
          402 896 rmoveto
          -14 4 -70 -42 -67 -36 -76 -39 rlinecurve
          24 -64 15 -4 72 23 71 23 80 29 rlinecurve
          5 14 rlineto
          108 -273 rmoveto
          15 115 -67 -1 rlineto
          -269 hlineto
          -135 2 -27 -124 5 -7 112 9 rlineto
          182 hlineto
          -352 -416 rlineto
          hintmask 01110000
          -14 -114 rlineto
          hintmask 10110000
          86 5 rlineto
          242 hlineto
          hintmask 01110000
          155 -4 rlineto
          hintmask 10110000
          28 124 -5 8 -113 -9 rlineto
          -191 hlineto
          endchar
        </CharString>
        <CharString name="Zcaron">
          6 0 119 -102 -21 529 120 hstemhm
          0 565 hintmask 10110000
          436 887 rmoveto
          -15 hlineto
          -41 -20 -42 -21 -40 -21 -34 21 -34 21 -34 20 rrcurveto
          -15 hlineto
          -36 -61 49 -35 46 -36 39 -38 rlinecurve
          30 hlineto
          44 38 49 36 54 35 rrcurveto
          94 -295 rmoveto
          15 115 -67 -1 rlineto
          -269 hlineto
          -135 2 -27 -124 5 -7 112 9 rlineto
          182 hlineto
          -352 -416 rlineto
          hintmask 01110000
          -14 -114 rlineto
          hintmask 10110000
          86 5 rlineto
          242 hlineto
          hintmask 01110000
          155 -4 rlineto
          hintmask 10110000
          28 124 -5 8 -113 -9 rlineto
          -191 hlineto
          endchar
        </CharString>
        <CharString name="Zdotaccent">
          6 0 119 -102 -21 529 120 78 163 hstemhm
          222 159 hintmask 10111000
          305 886 rmoveto
          -51 -32 -33 -52 -49 27 -29 50 50 32 33 52 49 -28 29 -48 hvcurveto
          245 -355 rmoveto
          15 115 -67 -1 rlineto
          -269 hlineto
          -135 2 -27 -124 5 -7 112 9 rlineto
          182 hlineto
          -352 -416 rlineto
          hintmask 01111000
          -14 -114 rlineto
          hintmask 10111000
          86 5 rlineto
          242 hlineto
          hintmask 01111000
          155 -4 rlineto
          hintmask 10111000
          28 124 -5 8 -113 -9 rlineto
          -191 hlineto
          endchar
        </CharString>
        <CharString name="a">
          -11 21 -21 92.5 107 176.5 132 hstem
          -16 496 vstem
          480 hmoveto
          -90 508 rlineto
          -174 hlineto
          -232 -508 rlineto
          142 hlineto
          27 88 1 3 81 2 93 -1 2 -12 3 -80 rlineto
          -20 200 rmoveto
          -56 -1 -55 1 77 176 rlineto
          9 hlineto
          endchar
        </CharString>
        <CharString name="a.sups">
          -212 647 -20 hstemhm
          45 88 hintmask 00000000
          hintmask 11000000
          339 645 rmoveto
          -7 5 -58 -13 -61 10 rlineto
          -5 hlineto
          -111 -30 -52 -97 -91 vvcurveto
          -55 17 -36 63 -19 vhcurveto
          13 hlineto
          29 30 24 38 22 42 rrcurveto
          10 hlineto
          -14 -107 94 6 4 74 rlineto
          -156 2 rmoveto
          -9 -9 17 45 66 22 46 40 1 hvcurveto
          45 -10 rlineto
          -4 vlineto
          -3 -25 rlineto
          -89 -40 -33 -47 -13 hhcurveto
          endchar
        </CharString>
        <CharString name="aacute">
          -11 21 -21 92.5 107 176.5 132 hstem
          -15 496 vstem
          226 562 rmoveto
          14 -1 67 36 64 37 73 42 rlinecurve
          3 15 -55 84 -15 1 -60 -54 -60 -49 -68 -53 rlinecurve
          292 -620 rmoveto
          -90 508 rlineto
          -174 hlineto
          -232 -508 rlineto
          142 hlineto
          26 88 1 3 81 2 94 -1 2 -12 3 -80 rlineto
          -20 200 rmoveto
          -57 -1 -55 1 78 176 rlineto
          9 hlineto
          endchar
        </CharString>
        <CharString name="abreve">
          -11 21 -21 92.5 107 176.5 132 65 108 hstem
          -15 496 vstem
          306 573 rmoveto
          88 56 60 69 26 hvcurveto
          -27 51 rlineto
          -22 hlineto
          -47 -23 -41 -25 -49 hhcurveto
          -48 -36 25 47 -12 hvcurveto
          -22 hlineto
          -39 -51 rlineto
          -66 10 41 -63 98 hhcurveto
          175 -573 rmoveto
          -90 508 rlineto
          -174 hlineto
          -232 -508 rlineto
          142 hlineto
          26 88 1 3 81 2 94 -1 2 -12 3 -80 rlineto
          -20 200 rmoveto
          -57 -1 -55 1 78 176 rlineto
          9 hlineto
          endchar
        </CharString>
        <CharString name="abreveacute">
          -11 21 -21 92.5 107 176.5 132 54 108 hstem
          -15 496 vstem
          313 709 rmoveto
          13 4 40 36 39 37 39 38 rlinecurve
          -2 12 -71 46 -11 -3 -31 -45 -31 -44 -32 -43 rlinecurve
          50 -185 rmoveto
          76 55 40 73 34 hvcurveto
          -28 48 rlineto
          -22 hlineto
          -34 -22 -39 -19 -48 hhcurveto
          -46 -38 18 35 -15 hvcurveto
          -22 hlineto
          -40 -48 rlineto
          -73 19 56 -40 80 hhcurveto
          75 -54 rmoveto
          -174 hlineto
          -232 -508 rlineto
          142 hlineto
          26 88 1 3 81 2 94 -1 2 -12 3 -80 rlineto
          147 hlineto
          -167 200 rmoveto
          -57 -1 -55 1 78 176 rlineto
          9 hlineto
          endchar
        </CharString>
        <CharString name="abrevedotbelow">
          -11 -210 162 69 -21 92.5 107 176.5 132 65 108 hstem
          150 159 vstem
          305 573 rmoveto
          88 56 60 69 26 hvcurveto
          -27 51 rlineto
          -22 hlineto
          -47 -23 -41 -25 -49 hhcurveto
          -48 -36 25 47 -12 hvcurveto
          -22 hlineto
          -39 -51 rlineto
          -66 10 41 -63 98 hhcurveto
          176 -573 rmoveto
          -90 508 rlineto
          -174 hlineto
          -232 -508 rlineto
          142 hlineto
          26 88 1 3 81 2 94 -1 2 -12 3 -80 rlineto
          -20 200 rmoveto
          -57 -1 -55 1 78 176 rlineto
          9 hlineto
          -56 -424 rmoveto
          -51 -32 -32 -52 -50 27 -28 50 50 32 33 52 48 -28 29 -48 hvcurveto
          endchar
        </CharString>
        <CharString name="abrevegrave">
          -11 21 -21 92.5 107 176.5 132 54 107 hstem
          -15 496 vstem
          331 709 rmoveto
          47 38 -32 43 -31 44 -31 45 rlinecurve
          -11 3 -71 -46 -2 -12 39 -38 39 -37 40 -36 rlinecurve
          -2 -151 rmoveto
          77 55 40 72 33 hvcurveto
          -27 49 rlineto
          -22 hlineto
          -34 -23 -39 -20 -47 hhcurveto
          -47 -37 19 35 -16 hvcurveto
          -22 hlineto
          -40 -49 rlineto
          -72 19 56 -40 80 hhcurveto
          75 -54 rmoveto
          -174 hlineto
          -232 -508 rlineto
          142 hlineto
          26 88 1 3 81 2 94 -1 2 -12 3 -80 rlineto
          147 hlineto
          -167 200 rmoveto
          -57 -1 -55 1 78 176 rlineto
          9 hlineto
          endchar
        </CharString>
        <CharString name="abrevehookabove">
          -11 21 -21 92.5 107 176.5 132 55 107 200 69 hstem
          323 80 vstem
          294 870 rmoveto
          16 13 -7 -16 -19 -20 -29 -33 -24 hvcurveto
          46 -71 54 32 -24 40 rlineto
          43 37 14 21 28 vvcurveto
          46 -38 31 -49 -40 -42 -21 -33 -31 vhcurveto
          25 -40 rlineto
          16 20 26 9 20 hhcurveto
          22 -307 rmoveto
          76 55 40 72 34 hvcurveto
          -28 49 rlineto
          -22 hlineto
          -34 -22 -39 -20 -48 hhcurveto
          -46 -38 18 36 -15 hvcurveto
          -22 hlineto
          -40 -49 rlineto
          -72 19 56 -40 80 hhcurveto
          75 -55 rmoveto
          -174 hlineto
          -232 -508 rlineto
          142 hlineto
          26 88 1 3 81 2 94 -1 2 -12 3 -80 rlineto
          147 hlineto
          -167 200 rmoveto
          -57 -1 -55 1 78 176 rlineto
          9 hlineto
          endchar
        </CharString>
        <CharString name="abrevetilde">
          -11 21 -21 92.5 107 176.5 132 54 101 5 45 0 -20 hstemhm
          -15 528 hintmask 11110110
          513 867 rmoveto
          -41 42 rlineto
          -12 hlineto
          -27 -23 -16 -24 -21 hhcurveto
          -24 -73 26 7 -44 hvcurveto
          -13 -5 -68 -90 rlineto
          -12 vlineto
          42 -42 rlineto
          12 hlineto
          26 22 17 25 20 hhcurveto
          25 72 -28 -5 45 hvcurveto
          13 4 67 91 rlineto
          -71 -142 rmoveto
          -21 hlineto
          -32 -21 -37 -18 -45 hhcurveto
          -44 -35 17 33 -15 hvcurveto
          -20 hlineto
          hintmask 11101010
          -39 -45 rlineto
          hintmask 11110110
          -68 19 53 -38 75 hhcurveto
          hintmask 11101010
          72 52 38 68 32 hvcurveto
          -77 -160 rmoveto
          -174 hlineto
          -232 -508 rlineto
          142 hlineto
          26 88 1 3 81 2 94 -1 2 -12 3 -80 rlineto
          147 hlineto
          -167 200 rmoveto
          -57 -1 -55 1 78 176 rlineto
          9 hlineto
          endchar
        </CharString>
        <CharString name="acaron">
          -11 21 -21 92.5 107 176.5 132 202 -20 hstem
          -15 496 vstem
          319 566 rmoveto
          58 53 55 51 49 40 -30 58 rcurveline
          -16 hlineto
          -45 -31 -44 -29 -33 -27 -26 27 -34 29 -38 31 rrcurveto
          -15 hlineto
          -45 -58 46 -46 49 -51 38 -47 rlinecurve
          103 -58 rmoveto
          -174 hlineto
          -232 -508 rlineto
          142 hlineto
          26 88 1 3 81 2 94 -1 2 -12 3 -80 rlineto
          147 hlineto
          -167 200 rmoveto
          -57 -1 -55 1 78 176 rlineto
          9 hlineto
          endchar
        </CharString>
        <CharString name="acircumflex">
          -11 21 -21 92.5 107 176.5 132 hstem
          -15 496 vstem
          185 568 rmoveto
          15 hlineto
          46 31 43 30 32 27 26 -27 36 -30 38 -31 rrcurveto
          15 hlineto
          45 59 -46 46 -48 51 -38 47 rlinecurve
          -31 hlineto
          -58 -53 -55 -51 -50 -40 rrcurveto
          236 -119 rmoveto
          -174 hlineto
          -232 -508 rlineto
          142 hlineto
          26 88 1 3 81 2 94 -1 2 -12 3 -80 rlineto
          147 hlineto
          -167 200 rmoveto
          -57 -1 -55 1 78 176 rlineto
          9 hlineto
          endchar
        </CharString>
        <CharString name="acircumflexacute">
          -11 21 -21 92.5 107 176.5 132 hstem
          -15 555 vstem
          430 702 rmoveto
          9 hlineto
          101 132 -4 11 -78 34 -10 -5 -70 -133 rlineto
          -197 -172 rmoveto
          15 hlineto
          40 21 43 20 39 21 35 -21 32 -20 36 -21 rrcurveto
          15 hlineto
          35 61 -49 36 -45 36 -40 37 rlinecurve
          -30 hlineto
          -44 -37 -49 -36 -54 -36 rrcurveto
          231 -122 rmoveto
          -174 hlineto
          -232 -508 rlineto
          142 hlineto
          26 88 1 3 81 2 94 -1 2 -12 3 -80 rlineto
          147 hlineto
          -167 200 rmoveto
          -57 -1 -55 1 78 176 rlineto
          9 hlineto
          endchar
        </CharString>
        <CharString name="acircumflexdotbelow">
          -11 -210 162 69 -21 92.5 107 176.5 132 hstem
          150 159 vstem
          184 568 rmoveto
          15 hlineto
          46 31 43 30 32 27 26 -27 36 -30 38 -31 rrcurveto
          15 hlineto
          45 59 -46 46 -48 51 -38 47 rlinecurve
          -31 hlineto
          -58 -53 -55 -51 -50 -40 rrcurveto
          327 -627 rmoveto
          -90 508 rlineto
          -174 hlineto
          -232 -508 rlineto
          142 hlineto
          26 88 1 3 81 2 94 -1 2 -12 3 -80 rlineto
          -20 200 rmoveto
          -57 -1 -55 1 78 176 rlineto
          9 hlineto
          -56 -424 rmoveto
          -51 -32 -32 -52 -50 27 -28 50 50 32 33 52 48 -28 29 -48 hvcurveto
          endchar
        </CharString>
        <CharString name="acircumflexgrave">
          -11 21 -21 92.5 107 176.5 132 hstem
          -15 500 vstem
          424 702 rmoveto
          10 hlineto
          51 39 -70 133 -10 5 -78 -34 -3 -11 rlineto
          -146 -266 rmoveto
          15 hlineto
          40 21 43 20 39 21 103 -62 rcurveline
          15 hlineto
          35 61 -49 36 -45 36 -39 37 rlinecurve
          -30 hlineto
          -44 -37 -49 -36 -54 -36 rrcurveto
          233 -121 rmoveto
          -174 hlineto
          -232 -508 rlineto
          142 hlineto
          26 88 1 3 81 2 94 -1 2 -12 3 -80 rlineto
          147 hlineto
          -167 200 rmoveto
          -57 -1 -55 1 78 176 rlineto
          9 hlineto
          endchar
        </CharString>
        <CharString name="acircumflexhookabove">
          -11 21 -21 92.5 107 176.5 132 352 65 hstem
          422 78 vstem
          395 860 rmoveto
          16 11 -7 -15 -19 -18 -28 -32 -22 hvcurveto
          44 -68 52 31 -23 38 rlineto
          40 36 15 20 25 vvcurveto
          44 -37 30 -46 -39 -40 -20 -32 -29 vhcurveto
          23 -38 rlineto
          15 20 24 10 19 hhcurveto
          -217 -291 rmoveto
          15 hlineto
          40 21 43 20 39 21 103 -62 rcurveline
          15 hlineto
          35 61 -49 36 -45 36 -39 37 rlinecurve
          -30 hlineto
          -45 -37 -49 -36 -54 -36 rrcurveto
          234 -122 rmoveto
          -174 hlineto
          -232 -508 rlineto
          142 hlineto
          26 88 1 3 81 2 94 -1 2 -12 3 -80 rlineto
          147 hlineto
          -167 200 rmoveto
          -57 -1 -55 1 78 176 rlineto
          9 hlineto
          endchar
        </CharString>
        <CharString name="acircumflextilde">
          -11 21 -21 92.5 107 176.5 132 hstem
          -15 533 vstem
          518 864 rmoveto
          -41 42 rlineto
          -13 hlineto
          -27 -22 -17 -24 -20 hhcurveto
          -24 -73 26 7 -45 hvcurveto
          -12 -5 -68 -90 rlineto
          -12 vlineto
          42 -42 rlineto
          12 hlineto
          26 21 17 24 21 hhcurveto
          24 73 -27 -5 45 hvcurveto
          12 4 68 91 rlineto
          -195 -220 rmoveto
          35 -21 32 -21 36 -21 rrcurveto
          15 hlineto
          35 62 -50 35 -45 36 -39 38 rlinecurve
          -30 hlineto
          -44 -38 -49 -36 -54 -35 21 -62 rcurveline
          15 hlineto
          40 21 42 21 40 21 rrcurveto
          68 -124 rmoveto
          -174 hlineto
          -232 -508 rlineto
          142 hlineto
          26 88 1 3 81 2 94 -1 2 -12 3 -80 rlineto
          147 hlineto
          -167 200 rmoveto
          -57 -1 -55 1 78 176 rlineto
          9 hlineto
          endchar
        </CharString>
        <CharString name="acute">
          650 -20 hstem
          112 258 vstem
          315 734 rmoveto
          -15 1 -60 -54 -60 -49 -68 -53 rlinecurve
          37 -58 14 -1 67 36 64 37 73 42 rlinecurve
          3 15 rlineto
          endchar
        </CharString>
        <CharString name="acute.cap">
          537 185 hstem
          108 267 vstem
          335 718 rmoveto
          -14 4 -70 -42 -67 -36 -76 -39 rlinecurve
          24 -64 15 -4 72 23 71 23 80 29 rlinecurve
          5 14 rlineto
          endchar
        </CharString>
        <CharString name="adieresis">
          -11 21 -21 92.5 107 176.5 132 82 144 -143 144 hstemhm
          155 141 41 141 hintmask 11101110
          223 591 rmoveto
          45 28 29 46 43 -25 26 -42 -46 -28 -29 -46 -44 24 -25 44 hvcurveto
          hintmask 11110110
          182 -1 rmoveto
          45 28 29 47 43 -25 25 -42 -46 -28 -28 -46 -45 24 -25 44 hvcurveto
          76 -590 rmoveto
          -90 508 rlineto
          -174 hlineto
          -232 -508 rlineto
          142 hlineto
          26 88 1 3 81 2 94 -1 2 -12 3 -80 rlineto
          -20 200 rmoveto
          -57 -1 -55 1 78 176 rlineto
          9 hlineto
          endchar
        </CharString>
        <CharString name="adotbelow">
          -11 -210 162 69 -21 92.5 107 176.5 132 hstem
          150 159 vstem
          481 hmoveto
          -90 508 rlineto
          -174 hlineto
          -232 -508 rlineto
          142 hlineto
          26 88 1 3 81 2 94 -1 2 -12 3 -80 rlineto
          -20 200 rmoveto
          -57 -1 -55 1 78 176 rlineto
          9 hlineto
          -56 -424 rmoveto
          -51 -32 -32 -52 -50 27 -28 50 50 32 33 52 48 -28 29 -48 hvcurveto
          endchar
        </CharString>
        <CharString name="ae">
          165 0 106 296 105 -11 11 hstemhm
          329 129.5 159.5 8.5 hintmask 11011000
          683 101 rmoveto
          -6 10 -139 -5 rlineto
          -82 hlineto
          1 80 169 40 1 97 -9 8 -160 -43 1 114 rlineto
          69 hlineto
          128 -6 rlineto
          hintmask 10111000
          22 100 -7 11 rlineto
          hintmask 11011000
          -395 hlineto
          -311 -507 rlineto
          134 hlineto
          35 84 12 20 182 49 rlineto
          -77 vlineto
          -7 -76 rlineto
          341 hlineto
          -333 254 rmoveto
          -107 -28 98 158 rlineto
          9 hlineto
          endchar
        </CharString>
        <CharString name="aeacute">
          165 0 106 296 105 -11 11 hstemhm
          329 130.5 158.5 8.5 hintmask 11011000
          383 562 rmoveto
          14 -1 67 36 64 37 73 42 rlinecurve
          3 15 -55 84 -15 1 -60 -54 -60 -49 -68 -53 rlinecurve
          338 -519 rmoveto
          -6 10 -139 -5 rlineto
          -82 hlineto
          1 80 168 40 1 97 -9 8 -159 -42 1 113 rlineto
          68 hlineto
          129 -6 rlineto
          hintmask 10111000
          22 100 -7 11 rlineto
          hintmask 11011000
          -395 hlineto
          -311 -507 rlineto
          133 hlineto
          36 84 12 20 181 48 rlineto
          -76 vlineto
          -7 -76 rlineto
          342 hlineto
          -334 254 rmoveto
          -107 -29 98 159 rlineto
          9 hlineto
          endchar
        </CharString>
        <CharString name="agrave">
          -11 21 -21 92.5 107 176.5 132 hstem
          -15 496 vstem
          395 562 rmoveto
          36 58 -68 53 -59 49 -61 54 rlinecurve
          -14 -1 -56 -84 3 -15 73 -42 65 -37 67 -36 rlinecurve
          100 -561 rmoveto
          -90 508 rlineto
          -174 hlineto
          -232 -508 rlineto
          142 hlineto
          26 88 1 3 81 2 94 -1 2 -12 3 -80 rlineto
          -20 200 rmoveto
          -57 -1 -55 1 78 176 rlineto
          9 hlineto
          endchar
        </CharString>
        <CharString name="ahookabove">
          -11 21 -21 92.5 107 176.5 132 82 -20 154 69 hstem
          302 80 vstem
          273 724 rmoveto
          16 13 -7 -16 -19 -20 -29 -33 -24 hvcurveto
          46 -71 54 32 -24 40 rlineto
          43 38 14 21 27 vvcurveto
          46 -38 31 -49 -40 -42 -21 -33 -31 vhcurveto
          25 -40 rlineto
          16 20 26 9 20 hhcurveto
          208 -724 rmoveto
          -90 508 rlineto
          -174 hlineto
          -232 -508 rlineto
          142 hlineto
          26 88 1 3 81 2 94 -1 2 -12 3 -80 rlineto
          -20 200 rmoveto
          -57 -1 -55 1 78 176 rlineto
          9 hlineto
          endchar
        </CharString>
        <CharString name="amacron">
          -11 21 -21 92.5 107 176.5 132 108 96 -10 10 hstemhm
          -15 496 hintmask 11110100
          178 616 rmoveto
          279 hlineto
          hintmask 11101100
          8 86 -10 10 rlineto
          hintmask 11110100
          -279 hlineto
          -7 -86 rlineto
          312 -626 rmoveto
          -90 508 rlineto
          -174 hlineto
          -232 -508 rlineto
          142 hlineto
          26 88 1 3 81 2 94 -1 2 -12 3 -80 rlineto
          -20 200 rmoveto
          -57 -1 -55 1 78 176 rlineto
          9 hlineto
          endchar
        </CharString>
        <CharString name="ampersand">
          159 -12 108 78 108 137 98 195 -20 hstem
          25 129 138 94 vstem
          685 282 rmoveto
          -213 hlineto
          -11 -10 rlineto
          -112 -5 -54 -64 -100 hhcurveto
          -64 -44 26 49 -22 hvcurveto
          233 104 249 211 51 128 -10 38 -20 32 -30 28 rrcurveto
          -12 hlineto
          -48 -107 -89 -103 -110 -86 rrcurveto
          4 vlineto
          56 -43 41 -89 -139 -90 -103 -160 -168 100 -98 167 134 87 63 123 36 vhcurveto
          134 hlineto
          12 96 rlineto
          -445 149 rmoveto
          26 14 -10 -23 2 hvcurveto
          -17 -7 -18 -19 -16 vhcurveto
          -36 -21 -37 -19 -39 -17 rrcurveto
          88 3 34 53 59 hhcurveto
          endchar
        </CharString>
        <CharString name="aogonek">
          -11 -197 84 134 -21 92.5 107 176.5 132 hstemhm
          274 188.5 hintmask 00000000
          hintmask 11111000
          461 -86 rmoveto
          -9 hlineto
          -17 -22 -22 -10 -19 hhcurveto
          -19 -10 10 17 18 11 23 43 45 hvcurveto
          67 hlineto
          -90 508 rlineto
          -174 hlineto
          -232 -508 rlineto
          142 hlineto
          26 88 1 3 81 2 94 -1 2 -12 3 -80 rlineto
          -4 hlineto
          -44 -53 -12 -30 -34 vvcurveto
          -47 33 -33 51 35 32 16 32 39 vhcurveto
          -150 349 rmoveto
          -57 -1 -55 1 78 176 rlineto
          9 hlineto
          endchar
        </CharString>
        <CharString name="approxequal">
          -60 72 371 hstem
          22 471 vstem
          176 327 rmoveto
          32 116 -46 -8 55 hvcurveto
          15 5 97 101 2 13 -34 51 rlineto
          -14 hlineto
          -31 -33 -25 -27 -23 hhcurveto
          -33 -116 45 10 -55 hvcurveto
          -14 -6 -99 -101 -1 -13 35 -51 rlineto
          14 hlineto
          30 31 26 28 24 hhcurveto
          -24 -197 rmoveto
          32 116 -46 -8 55 hvcurveto
          15 5 97 101 2 13 -34 51 rlineto
          -13 hlineto
          -31 -33 -26 -27 -23 hhcurveto
          -33 -116 45 10 -55 hvcurveto
          -14 -6 -98 -101 -2 -13 35 -51 rlineto
          14 hlineto
          30 31 26 28 24 hhcurveto
          endchar
        </CharString>
        <CharString name="aring">
          -11 21 -21 92.5 107 176.5 132 69 63 72 65 hstem
          218 62 77 62 vstem
          315 577 rmoveto
          66 38 37 67 61 -32 35 -66 -67 -36 -37 -65 -64 35 -34 62 hvcurveto
          3 135 rmoveto
          27 12 -12 -25 -25 -12 -10 -26 -26 -13 11 27 23 11 11 27 hvcurveto
          163 -712 rmoveto
          -90 508 rlineto
          -174 hlineto
          -232 -508 rlineto
          142 hlineto
          26 88 1 3 81 2 94 -1 2 -12 3 -80 rlineto
          -20 200 rmoveto
          -57 -1 -55 1 78 176 rlineto
          9 hlineto
          endchar
        </CharString>
        <CharString name="aringacute">
          -11 21 -21 92.5 107 176.5 132 48 63 72 65 hstem
          216 63 77 62 vstem
          224 774 rmoveto
          14 -6 75 12 73 13 83 17 rlinecurve
          7 12 -25 98 -14 5 -76 -31 -71 -26 -81 -27 rlinecurve
          7 -187 rmoveto
          -64 36 -34 62 65 39 37 67 61 -33 35 -65 -67 -37 -37 -65 vhcurveto
          140 hmoveto
          -25 -13 -10 -25 -27 -12 11 27 23 11 11 26 28 12 -12 -25 vhcurveto
          125 -654 rmoveto
          -90 508 rlineto
          -174 hlineto
          -232 -508 rlineto
          142 hlineto
          26 88 1 3 81 2 94 -1 2 -12 3 -80 rlineto
          -20 200 rmoveto
          -57 -1 -55 1 78 176 rlineto
          9 hlineto
          endchar
        </CharString>
        <CharString name="arrowdown">
          -3 12 -21 481 -20 25 -20 hstemhm
          218.5 101 hintmask 10110000
          486 189 rmoveto
          -18 85 rlineto
          -20 hlineto
          -132 -125 rlineto
          hintmask 11010000
          7 323 rlineto
          hintmask 10110000
          -97 5 -11 -10 7 -318 -131 125 rlineto
          -20 hlineto
          -19 -85 206 -198 rlineto
          23 hlineto
          endchar
        </CharString>
        <CharString name="arrowdownleft">
          -3 51.5 87.5 hstem
          91.5 87 vstem
          428 137 rmoveto
          -181 4 233 224 -65 72 rlineto
          -14 hlineto
          -220 -229 -5 181 -14 14 -73 -47 5 -286 16 -16 286 -5 46 73 rlineto
          endchar
        </CharString>
        <CharString name="arrowdownright">
          -3 47 87.5 hstem
          359.5 87 vstem
          449 351 rmoveto
          -73 47 -14 -14 -5 -182 -223 233 -72 -64 -1 -15 229 -219 -180 -5 -15 -15 47 -73 286 6 16 16 rlineto
          endchar
        </CharString>
        <CharString name="arrowleft">
          -3 188.5 100 hstem
          24 486 vstem
          505 185 rmoveto
          5 96 -9 11 -317 -7 123 132 rlineto
          20 vlineto
          -84 18 -199 -206 rlineto
          -23 vlineto
          199 -205 84 19 rlineto
          20 vlineto
          -124 132 rlineto
          endchar
        </CharString>
        <CharString name="arrowright">
          -3 188.5 101 hstem
          27 486 vstem
          513 251 rmoveto
          -198 205 -85 -19 rlineto
          -20 vlineto
          125 -131 -323 7 -5 -97 10 -11 318 7 -125 -131 rlineto
          -20 vlineto
          85 -19 198 206 rlineto
          endchar
        </CharString>
        <CharString name="arrowup">
          -3 21 -21 hstem
          220.5 100 vstem
          487 288 rmoveto
          -206 198 rlineto
          -23 hlineto
          -205 -198 19 -85 rlineto
          20 hlineto
          132 125 -7 -323 96 -5 11 10 -7 317 131 -124 rlineto
          20 hlineto
          endchar
        </CharString>
        <CharString name="arrowupleft">
          -3 338.5 86.5 hstem
          90.5 87 vstem
          476 116 rmoveto
          -230 220 181 5 15 14 -47 73 -286 -6 -16 -16 -5 -285 73 -47 14 14 5 182 223 -233 72 64 rlineto
          endchar
        </CharString>
        <CharString name="arrowupright">
          -3 342.5 87 hstem
          359.5 87 vstem
          449 125 rmoveto
          -5 286 -16 16 -286 5 -46 -73 14 -14 181 -5 -233 -223 65 -72 14 -1 220 229 5 -180 14 -14 rlineto
          endchar
        </CharString>
        <CharString name="asciicircum">
          -93 391 107 hstem
          4 419 vstem
          423 152 rmoveto
          -97 346 rlineto
          -125 hlineto
          -15 -8 -182 -346 84 -33 13 7 142 273 rlineto
          8 hlineto
          71 -273 89 20 rlineto
          endchar
        </CharString>
        <CharString name="asciitilde">
          -61 170 174 hstem
          20 446 vstem
          149 228 rmoveto
          33 116 -46 -8 55 hvcurveto
          15 5 97 101 1 13 -33 51 rlineto
          -14 hlineto
          -31 -33 -25 -27 -23 hhcurveto
          -33 -116 45 10 -55 hvcurveto
          -14 -7 -99 -100 -1 -13 35 -51 rlineto
          13 hlineto
          30 32 26 28 23 hhcurveto
          endchar
        </CharString>
        <CharString name="asterisk">
          -154 513 -20 hstem
          69 353 vstem
          293 736 rmoveto
          -5 9 rlineto
          -29 -30 -5 -9 -25 hvcurveto
          4 -117 8 -7 45 5 rlineto
          -65 -10 rmoveto
          -105 69 -11 -3 -8 -28 -4 -31 1 -26 rlinecurve
          109 -31 10 5 rlineto
          88 46 rmoveto
          -5 -10 21 -41 124 8 6 7 -10 28 -14 27 -15 21 rlinecurve
          -96 -109 rmoveto
          -11 1 -32 -30 44 -121 10 -3 23 19 21 19 15 23 rlinecurve
          -133 71 rmoveto
          -40 21 -97 -81 -1 -10 26 -16 27 -14 25 -8 rlinecurve
          62 98 rlineto
          endchar
        </CharString>
        <CharString name="at">
          311 -216 86 130 125 -110 -21 27 -21 547 96 hstemhm
          25 102 89 125 393 101 hintmask 10011111
          835 317 rmoveto
          203 -142 123 -214 -274 -180 -197 -262 -255 178 -143 268 -2 vhcurveto
          41 72 -5 14 rlineto
          -228 -152 121 211 196 132 143 202 6 hvcurveto
          167 6 106 -94 -147 vvcurveto
          -110 -58 -80 -94 -17 vhcurveto
          8 vlineto
          47 344 -11 6 -82 -21 -83 18 rlineto
          -6 hlineto
          -158 -44 -73 -141 -122 vvcurveto
          hintmask 10101111
          -78 27 -54 84 -27 vhcurveto
          20 hlineto
          39 42 33 49 29 53 rrcurveto
          14 hlineto
          hintmask 10011111
          -19 -138 rlineto
          250 3 142 112 202 vvcurveto
          hintmask 11001111
          -470 -192 rmoveto
          -13 -11 20 60 92 30 61 54 hvcurveto
          63 -19 -3 -24 rlineto
          -129 -55 -45 -61 -20 hhcurveto
          endchar
        </CharString>
        <CharString name="atilde">
          -11 21 -21 92.5 107 176.5 132 195 -20 29 -20 hstemhm
          -15 515 hintmask 11101100
          500 712 rmoveto
          hintmask 11110100
          -46 45 rlineto
          -13 hlineto
          -28 -24 -19 -26 -22 hhcurveto
          -26 -79 28 6 -49 hvcurveto
          -14 -5 -74 -97 rlineto
          -13 vlineto
          46 -45 rlineto
          14 hlineto
          27 23 19 27 22 hhcurveto
          26 80 -29 -6 48 hvcurveto
          14 5 rlineto
          hintmask 11101100
          74 98 rlineto
          -109 -191 rmoveto
          -174 hlineto
          -232 -508 rlineto
          142 hlineto
          26 88 1 3 81 2 94 -1 2 -12 3 -80 rlineto
          147 hlineto
          -167 200 rmoveto
          -57 -1 -55 1 78 176 rlineto
          9 hlineto
          endchar
        </CharString>
        <CharString name="b">
          -14 -5 101 -75 -21 203 97.5 105.5 102 hstemhm
          331 151 -146 155 hintmask 10111000
          396 262 rmoveto
          hintmask 01110100
          61 26 34 46 57 vvcurveto
          77 -66 40 -105 vhcurveto
          -221 hlineto
          -37 -359 -26 -149 rlineto
          hintmask 10111000
          -3 60 88 -2 38 hhcurveto
          170 90 51 99 63 -32 32 -54 22 hvcurveto
          -181 40 rmoveto
          14 104 rlineto
          hintmask 10110100
          40 hlineto
          48 19 -8 -33 -36 -16 -20 -34 -10 hvcurveto
          hintmask 10111000
          -44 -203 rmoveto
          -13 -19 1 2 -21 hvcurveto
          6 65 5 38 91 2 rlineto
          28 -10 12 -14 -22 vvcurveto
          -41 -35 -21 -54 vhcurveto
          endchar
        </CharString>
        <CharString name="b.sups">
          -211 646 -20 hstem
          259 88 vstem
          253 646 rmoveto
          -29 -30 -26 -39 -23 -43 rrcurveto
          -9 hlineto
          37 278 -95 -6 -4 -73 -52 -392 75 -12 53 -10 rlineto
          4 hlineto
          108 28 55 96 95 vvcurveto
          57 -20 33 -60 18 vhcurveto
          -119 -246 rmoveto
          4 28 rlineto
          88 41 35 47 14 hhcurveto
          7 10 -16 -47 -64 -21 -49 -40 hvcurveto
          endchar
        </CharString>
        <CharString name="backslash">
          -149 668 13 hstem
          44 324 vstem
          161 681 rmoveto
          -105 hlineto
          -12 -13 207 -784 rlineto
          107 hlineto
          10 12 rlineto
          endchar
        </CharString>
        <CharString name="bar">
          -236 -258 1064 hstem
          34 248 vstem
          282 795 rmoveto
          -10 11 -109 -9 -129 -1042 10 -13 107 8 65 542 rlineto
          endchar
        </CharString>
        <CharString name="braceleft">
          -243 -114 94 -52 -21 657 94 hstemhm
          43 125 -83 125 -103 129 hintmask 01100100
          268 658 rmoveto
          -103 -58 -51 -99 hvcurveto
          -37 6 -41 -29 vvcurveto
          hintmask 01101000
          -50 -25 -29 -50 -15 vhcurveto
          -8 -71 rlineto
          37 -12 18 -23 -32 vvcurveto
          hintmask 10110000
          -47 -42 -64 -68 vvcurveto
          -66 45 -38 85 25 23 3 7 24 vhcurveto
          7 11 -3 78 rlineto
          -3 -13 -10 -2 -12 hhcurveto
          -30 -16 16 31 hvcurveto
          hintmask 01101000
          47 42 54 51 vvcurveto
          37 -19 34 -38 19 vhcurveto
          1 6 rlineto
          hintmask 01100100
          53 23 29 42 52 31 -10 39 30 vvcurveto
          47 20 25 40 11 11 -2 -3 12 vhcurveto
          21 78 -4 10 rlineto
          7 -22 -21 4 -26 hhcurveto
          endchar
        </CharString>
        <CharString name="braceright">
          -243 -114 94 584 94 hstemhm
          71 129 -103 126 -84 125 hintmask 11100000
          39 -114 rmoveto
          104 57 51 99 hvcurveto
          37 -5 41 29 vvcurveto
          hintmask 11010000
          50 24 28 50 16 vhcurveto
          9 71 rlineto
          -37 12 -18 23 32 vvcurveto
          hintmask 11001000
          46 41 65 68 vvcurveto
          65 -44 39 -86 -25 -22 -4 -7 -24 vhcurveto
          -8 -10 3 -78 rlineto
          3 13 11 2 12 hhcurveto
          30 15 -16 -31 hvcurveto
          hintmask 11010000
          -47 -42 -54 -51 vvcurveto
          -37 19 -34 38 -19 vhcurveto
          -1 -6 rlineto
          hintmask 11100000
          -53 -23 -29 -42 -52 -31 10 -40 -30 vvcurveto
          -46 -20 -25 -39 -12 -10 2 3 -12 vhcurveto
          -22 -78 5 -11 rlineto
          -6 22 21 -4 25 hhcurveto
          endchar
        </CharString>
        <CharString name="bracketleft">
          -243 648 -20 hstem
          26 322 vstem
          348 640 rmoveto
          -6 8 -223 -10 -38 -376 -55 -377 221 -10 7 7 9 70 -101 14 72 591 105 14 rlineto
          endchar
        </CharString>
        <CharString name="bracketright">
          -243 558 90 0 -20 hstemhm
          -43 321 hintmask 01100000
          -43 -117 rmoveto
          5 -8 224 10 38 377 54 376 -220 10 -8 -7 rlineto
          hintmask 10100000
          -8 -70 100 -13 -72 -592 -104 -14 rlineto
          endchar
        </CharString>
        <CharString name="breve">
          532 108 72 -20 hstem
          87 319 vstem
          379 712 rmoveto
          -22 hlineto
          -47 -23 -41 -25 -49 hhcurveto
          -48 -36 25 47 -12 hvcurveto
          -22 hlineto
          -39 -51 rlineto
          -66 10 41 -63 98 hhcurveto
          88 56 60 69 26 hvcurveto
          endchar
        </CharString>
        <CharString name="breve.cap">
          541 108 53 -20 hstem
          86 320 vstem
          379 702 rmoveto
          -22 hlineto
          -34 -23 -39 -19 -47 hhcurveto
          -47 -37 18 35 -16 hvcurveto
          -22 hlineto
          -40 -48 rlineto
          -73 19 56 -40 80 hhcurveto
          77 55 40 73 33 hvcurveto
          endchar
        </CharString>
        <CharString name="breveacute">
          521 108 77 -20 hstem
          84 320 vstem
          365 795 rmoveto
          -71 46 -11 -3 -31 -45 -31 -44 -32 -43 rlinecurve
          47 -38 13 4 40 36 39 37 39 38 rlinecurve
          9 -101 rmoveto
          -22 hlineto
          -34 -22 -39 -19 -48 hhcurveto
          -46 -38 18 35 -15 hvcurveto
          -22 hlineto
          -40 -48 rlineto
          -73 19 56 -40 80 hhcurveto
          76 55 40 73 34 hvcurveto
          endchar
        </CharString>
        <CharString name="brevegrave">
          521 107 78 -20 hstem
          84 320 vstem
          254 668 rmoveto
          47 38 -32 43 -31 44 -31 45 rlinecurve
          -11 3 -71 -46 -2 -12 39 -38 39 -37 40 -36 rlinecurve
          136 10 rmoveto
          -22 hlineto
          -34 -23 -39 -20 -47 hhcurveto
          -47 -37 19 35 -16 hvcurveto
          -22 hlineto
          -40 -49 rlineto
          -72 19 56 -40 80 hhcurveto
          77 55 40 72 33 hvcurveto
          endchar
        </CharString>
        <CharString name="brevehookabove">
          522 107 200 69 hstem
          246 80 vstem
          239 898 rmoveto
          -40 -42 -21 -33 -31 hvcurveto
          25 -40 rlineto
          16 20 26 9 20 hhcurveto
          16 13 -7 -16 -19 -20 -29 -33 -24 hvcurveto
          46 -71 54 32 -24 40 rlineto
          43 37 14 21 28 vvcurveto
          46 -38 31 -49 vhcurveto
          137 -215 rmoveto
          -22 hlineto
          -34 -22 -39 -20 -48 hhcurveto
          -46 -38 18 36 -15 hvcurveto
          -22 hlineto
          -40 -49 rlineto
          -72 19 56 -40 80 hhcurveto
          76 55 40 72 34 hvcurveto
          endchar
        </CharString>
        <CharString name="brevetilde">
          521 101 hstem
          88 348 vstem
          436 826 rmoveto
          -41 42 rlineto
          -12 hlineto
          -27 -23 -16 -24 -21 hhcurveto
          -24 -73 26 7 -44 hvcurveto
          -13 -5 -68 -90 rlineto
          -12 vlineto
          42 -42 rlineto
          12 hlineto
          26 22 17 25 20 hhcurveto
          25 72 -28 -5 45 hvcurveto
          13 4 67 91 rlineto
          -71 -142 rmoveto
          -21 hlineto
          -32 -21 -37 -18 -45 hhcurveto
          -44 -35 17 33 -15 hvcurveto
          -20 hlineto
          -39 -45 rlineto
          -68 19 53 -38 75 hhcurveto
          72 52 38 68 32 hvcurveto
          endchar
        </CharString>
        <CharString name="brokenbar">
          -236 -258 1064 hstem
          34 248 vstem
          282 795 rmoveto
          -10 11 -109 -9 -52 -422 9 -10 108 14 rlineto
          -29 -232 rmoveto
          -11 14 -105 -12 -49 -394 11 -13 106 8 rlineto
          endchar
        </CharString>
        <CharString name="bullet">
          -242 143 210 hstem
          48 205 vstem
          155 353 rmoveto
          -66 -41 -43 -66 -64 35 -37 64 65 41 42 68 62 -36 38 -62 hvcurveto
          endchar
        </CharString>
        <CharString name="bulletoperator">
          -257 143 210 hstem
          42 205 vstem
          149 353 rmoveto
          -66 -41 -43 -66 -64 35 -37 64 65 41 42 68 62 -36 38 -62 hvcurveto
          endchar
        </CharString>
        <CharString name="c">
          -94 -9 122 283 119 0 -20 hstemhm
          27 157 hintmask 11010000
          326 515 rmoveto
          -193 -106 -115 -183 -146 77 -80 166 32 36 5 13 42 hvcurveto
          26 123 -12 7 rlineto
          -15 -32 -45 -11 -35 hhcurveto
          -70 -28 43 81 109 41 50 80 41 40 -13 -19 26 hvcurveto
          12 6 rlineto
          hintmask 10110000
          40 123 rlineto
          hintmask 11010000
          14 -37 -53 8 -48 hhcurveto
          endchar
        </CharString>
        <CharString name="c.sups">
          -288 320 77 181 70 hstem
          47 91 vstem
          287 632 rmoveto
          -56 16 rlineto
          -128 -56 -94 -109 -79 30 -36 73 -10 hvcurveto
          13 hlineto
          47 14 31 23 30 51 -31 38 rcurveline
          -12 hlineto
          -37 -22 -17 -12 -17 hhcurveto
          -24 -10 19 46 76 22 40 43 16 11 -8 -16 14 hvcurveto
          21 1 26 67 rlineto
          endchar
        </CharString>
        <CharString name="cacute">
          -94 -9 122 283 119 0 -20 hstemhm
          27 157 hintmask 11010000
          387 775 rmoveto
          -15 1 -60 -54 -60 -49 -68 -53 rlinecurve
          37 -58 14 -1 67 36 64 37 73 42 rlinecurve
          3 15 rlineto
          -117 -176 rmoveto
          -192 -106 -115 -183 -146 77 -80 166 32 36 5 13 41 hvcurveto
          27 123 -12 7 rlineto
          -15 -33 -44 -11 -35 hhcurveto
          -70 -28 43 81 109 41 50 80 41 40 -13 -19 26 hvcurveto
          12 6 rlineto
          hintmask 10110000
          40 123 rlineto
          hintmask 11010000
          14 -37 -53 8 -49 hhcurveto
          endchar
        </CharString>
        <CharString name="caron">
          525 202 hstem
          85 326 vstem
          381 727 rmoveto
          -16 hlineto
          -45 -31 -44 -29 -33 -27 -26 27 -34 29 -38 31 rrcurveto
          -15 hlineto
          -45 -58 46 -46 49 -51 38 -47 rlinecurve
          31 hlineto
          58 53 55 51 49 40 rrcurveto
          endchar
        </CharString>
        <CharString name="caron.alt">
          511 -20 hstem
          175 140 vstem
          315 724 rmoveto
          -8 9 -111 -6 -21 -216 9 -9 68 11 rlineto
          endchar
        </CharString>
        <CharString name="caron.cap">
          647 -20 21 -20 81 -20 hstemhm
          90 311 hintmask 01110000
          381 709 rmoveto
          -15 hlineto
          hintmask 10110000
          -41 -20 -42 -21 -40 -21 -34 21 -34 21 -34 20 rrcurveto
          -15 hlineto
          hintmask 01110000
          -36 -61 49 -35 46 -36 39 -38 rlinecurve
          30 hlineto
          44 38 49 36 54 35 rrcurveto
          endchar
        </CharString>
        <CharString name="ccaron">
          -94 -9 122 283 119 0 -20 215 -20 hstemhm
          27 157 hintmask 11011000
          446 768 rmoveto
          -16 hlineto
          -45 -31 -44 -29 -33 -27 -26 27 -34 29 -38 31 rrcurveto
          -15 hlineto
          -45 -58 46 -46 49 -51 38 -47 rlinecurve
          31 hlineto
          58 53 55 51 49 40 rrcurveto
          -151 -195 rmoveto
          -192 -106 -115 -183 -146 77 -80 166 32 36 5 13 41 hvcurveto
          27 123 -12 7 rlineto
          -15 -33 -44 -11 -35 hhcurveto
          -70 -28 43 81 109 41 50 80 41 40 -13 -19 26 hvcurveto
          12 6 rlineto
          hintmask 10111000
          40 123 rlineto
          hintmask 11011000
          14 -37 -53 8 -49 hhcurveto
          endchar
        </CharString>
        <CharString name="ccedilla">
          -94 -203 63 131 122 -101 -21 24 -21 402 119 0 -20 hstemhm
          27 157 83 88 hintmask 10011011
          325 515 rmoveto
          -192 -106 -115 -183 -130 61 -77 129 -16 hvcurveto
          -15 -69 50 -28 rlineto
          9 -5 6 -5 -8 vvcurveto
          -12 -8 -7 -14 -17 -22 11 18 -19 vhcurveto
          -7 -2 -10 -63 rlineto
          -16 23 28 -11 34 hhcurveto
          62 38 33 45 hvcurveto
          hintmask 10101011
          24 -10 19 -32 18 vhcurveto
          -34 19 8 36 28 2 30 5 34 11 rlinecurve
          hintmask 11001011
          27 123 -12 7 rlineto
          -15 -33 -44 -11 -35 hhcurveto
          -70 -28 43 81 109 41 50 80 41 40 -13 -19 26 hvcurveto
          12 6 rlineto
          hintmask 10010111
          40 123 rlineto
          hintmask 10011011
          14 -37 -53 8 -49 hhcurveto
          endchar
        </CharString>
        <CharString name="ccircumflex">
          -94 -9 122 283 119 0 -20 hstemhm
          27 157 hintmask 11010000
          180 568 rmoveto
          15 hlineto
          46 31 43 30 32 27 26 -27 36 -30 38 -31 rrcurveto
          15 hlineto
          45 59 -46 46 -48 51 -38 47 rlinecurve
          -31 hlineto
          -58 -53 -55 -51 -50 -40 rrcurveto
          175 -112 rmoveto
          -192 -106 -115 -183 -146 77 -80 166 32 36 5 13 41 hvcurveto
          27 123 -12 7 rlineto
          -15 -33 -44 -11 -35 hhcurveto
          -70 -28 43 81 109 41 50 80 41 40 -13 -19 26 hvcurveto
          12 6 rlineto
          hintmask 10110000
          40 123 rlineto
          hintmask 11010000
          14 -37 -53 8 -49 hhcurveto
          endchar
        </CharString>
        <CharString name="cdotaccent">
          -94 -9 122 283 119 0 -20 91 163 hstemhm
          27 157 49 159 hintmask 11011100
          316 749 rmoveto
          -51 -32 -33 -52 -49 27 -29 50 50 32 33 52 49 -28 29 -48 hvcurveto
          9 -234 rmoveto
          -192 -106 -115 -183 -146 77 -80 166 32 36 5 13 41 hvcurveto
          27 123 -12 7 rlineto
          -15 -33 -44 -11 -35 hhcurveto
          -70 -28 43 81 109 41 50 80 41 40 -13 -19 26 hvcurveto
          12 6 rlineto
          hintmask 10111100
          40 123 rlineto
          hintmask 11011100
          14 -37 -53 8 -49 hhcurveto
          endchar
        </CharString>
        <CharString name="cedilla">
          -204 63 hstemhm
          152 88 hintmask 00000000
          hintmask 11000000
          164 -46 rmoveto
          17 74 rlineto
          -71 hlineto
          -23 -104 50 -28 rlineto
          9 -5 6 -5 -8 vvcurveto
          -12 -8 -7 -14 -17 -22 11 18 -19 vhcurveto
          -7 -2 -10 -63 rlineto
          -16 23 28 -11 34 hhcurveto
          62 38 33 45 24 -10 19 -32 18 hvcurveto
          endchar
        </CharString>
        <CharString name="cent">
          -154 -124 11 758 12 hstem
          23 124 vstem
          308 215 rmoveto
          -17 1 rlineto
          -58 -35 -28 -16 -26 hhcurveto
          -37 -18 29 71 111 37 60 69 24 17 -10 -25 24 hvcurveto
          29 1 35 96 -6 14 -75 22 20 134 -12 12 rlineto
          -75 hlineto
          -23 -154 rlineto
          -130 -35 -58 -118 -133 vvcurveto
          -104 36 -54 80 -21 vhcurveto
          -22 -151 9 -11 rlineto
          77 hlineto
          26 171 49 22 37 34 36 59 rlinecurve
          endchar
        </CharString>
        <CharString name="circle1">
          -76 9 -21 hstem
          -5 476 vstem
          233 464 rmoveto
          -131 -107 -107 -131 -131 107 -107 131 131 107 107 131 131 -107 107 -131 hvcurveto
          endchar
        </CharString>
        <CharString name="circle2">
          102 649 -20 hstem
          -10 663 vstem
          321 649 rmoveto
          -183 -148 -149 -183 -183 148 -148 183 183 149 148 183 183 -149 149 -183 hvcurveto
          endchar
        </CharString>
        <CharString name="circumflex">
          586 -20 hstem
          75 326 vstem
          105 527 rmoveto
          15 hlineto
          46 31 43 30 32 27 26 -27 36 -30 38 -31 rrcurveto
          15 hlineto
          45 59 -46 46 -48 51 -38 47 rlinecurve
          -31 hlineto
          -58 -53 -55 -51 -50 -40 rrcurveto
          endchar
        </CharString>
        <CharString name="circumflex.cap">
          547 170 hstem
          85 311 vstem
          106 547 rmoveto
          15 hlineto
          40 21 43 20 39 21 103 -62 rcurveline
          15 hlineto
          35 61 -49 36 -45 36 -39 37 rlinecurve
          -30 hlineto
          -45 -37 -49 -36 -54 -36 rrcurveto
          endchar
        </CharString>
        <CharString name="circumflexacute">
          589 -20 131 -20 hstem
          83 380 vstem
          459 804 rmoveto
          -78 34 -10 -5 -70 -133 52 -39 rlineto
          9 hlineto
          101 132 rlineto
          -233 -95 rmoveto
          -44 -37 -49 -36 -54 -36 21 -61 rcurveline
          15 hlineto
          40 21 43 20 39 21 35 -21 32 -20 36 -21 rrcurveto
          15 hlineto
          35 61 -49 36 -45 36 -40 37 rlinecurve
          endchar
        </CharString>
        <CharString name="circumflexgrave">
          588 -20 hstem
          81 327 vstem
          338 833 rmoveto
          -10 5 -78 -34 -3 -11 100 -132 rlineto
          10 hlineto
          51 39 rlineto
          -180 -3 rmoveto
          -44 -37 -49 -36 -54 -36 20 -61 rcurveline
          15 hlineto
          40 21 43 20 39 21 103 -62 rcurveline
          15 hlineto
          35 61 -49 36 -45 36 -39 37 rlinecurve
          endchar
        </CharString>
        <CharString name="circumflexhookabove">
          589 -20 250 65 hstem
          345 78 vstem
          340 884 rmoveto
          -39 -40 -20 -32 -29 hvcurveto
          23 -38 rlineto
          15 20 24 10 19 hhcurveto
          16 11 -7 -15 -19 -18 -28 -32 -22 hvcurveto
          44 -68 52 31 -23 38 rlineto
          40 36 15 20 25 vvcurveto
          44 -37 30 -46 vhcurveto
          -112 -186 rmoveto
          -45 -37 -49 -36 -54 -36 21 -61 rcurveline
          15 hlineto
          40 21 43 20 39 21 103 -62 rcurveline
          15 hlineto
          35 61 -49 36 -45 36 -39 37 rlinecurve
          endchar
        </CharString>
        <CharString name="circumflextilde">
          590 -20 129 -20 hstem
          80 353 vstem
          433 823 rmoveto
          -41 42 rlineto
          -13 hlineto
          -27 -22 -17 -24 -20 hhcurveto
          -24 -73 26 7 -45 hvcurveto
          -12 -5 -68 -90 rlineto
          -12 vlineto
          42 -42 rlineto
          12 hlineto
          26 21 17 24 21 hhcurveto
          24 73 -27 -5 45 hvcurveto
          12 4 68 91 rlineto
          -206 -112 rmoveto
          -44 -38 -49 -36 -54 -35 21 -62 rcurveline
          15 hlineto
          40 21 42 21 40 21 35 -21 32 -21 36 -21 rrcurveto
          15 hlineto
          35 62 -50 35 -45 36 -39 38 rlinecurve
          endchar
        </CharString>
        <CharString name="colon">
          -311 -8 163 98 162 hstemhm
          16 159 -127 159 hintmask 00000000
          hintmask 11010000
          131 415 rmoveto
          -51 -32 -33 -52 -49 27 -28 50 50 32 32 52 49 -28 29 -48 hvcurveto
          hintmask 11100000
          -32 -260 rmoveto
          -52 -31 -33 -52 -49 27 -29 50 50 32 33 52 49 -28 29 -48 hvcurveto
          endchar
        </CharString>
        <CharString name="comma">
          -312 -132 282 hstem
          49 127 vstem
          130 150 rmoveto
          -40 -11 -37 -16 -36 -20 rrcurveto
          -13 vlineto
          22 -20 10 -20 -26 vvcurveto
          -37 -18 -33 -38 -32 vhcurveto
          2 -11 49 -43 rlineto
          90 63 42 60 66 vvcurveto
          37 -15 30 -31 26 vhcurveto
          endchar
        </CharString>
        <CharString name="commaaccent">
          -541 -73 -21 hstem
          110 111 vstem
          181 -42 rmoveto
          -36 -9 -32 -14 -31 -18 rrcurveto
          -11 vlineto
          19 -18 9 -18 -22 vvcurveto
          -33 -16 -29 -33 -27 vhcurveto
          1 -10 43 -38 rlineto
          79 55 37 53 58 vvcurveto
          32 -14 26 -26 23 vhcurveto
          endchar
        </CharString>
        <CharString name="copyright">
          153 -12 52 88 84 169 83 82 52 hstem
          53 52 97 107 294 52 vstem
          354 598 rmoveto
          -181 -120 -122 -183 -183 120 -122 181 181 120 122 183 183 -120 122 -181 hvcurveto
          -52 vmoveto
          149 100 -101 -152 -152 -100 -101 -149 -149 -100 101 152 152 100 101 149 hvcurveto
          25 -82 rmoveto
          -114 -63 -63 -108 -107 56 -58 115 23 27 2 7 25 hvcurveto
          8 81 -8 4 rlineto
          -6 -20 -28 -4 -20 hhcurveto
          -49 -22 29 63 56 20 21 46 20 27 -6 -9 19 hvcurveto
          6 4 19 81 rlineto
          8 -27 -29 5 -31 hhcurveto
          endchar
        </CharString>
        <CharString name="currency">
          -106 182 83 161 82 hstem
          66 82 164 82 vstem
          461 497 rmoveto
          -62 67 -15 -2 -68 -71 rlineto
          11 -19 -22 6 -25 hhcurveto
          -27 -27 -7 -12 -23 hvcurveto
          -53 70 rlineto
          -13 hlineto
          -76 -70 rlineto
          -14 vlineto
          63 -58 rlineto
          -18 -26 -10 -29 -32 vvcurveto
          -21 4 -22 8 -17 vhcurveto
          -76 -60 -3 -14 62 -66 15 1 65 70 rlineto
          -12 20 24 -7 25 hhcurveto
          28 27 8 14 25 hvcurveto
          52 -70 rlineto
          13 hlineto
          76 71 -1 14 -63 57 rlineto
          16 26 11 27 32 vvcurveto
          21 -4 22 -8 18 vhcurveto
          77 61 rlineto
          -219 -57 rmoveto
          44 28 -28 -42 -54 -39 -37 -53 -45 -27 28 43 53 39 37 53 hvcurveto
          endchar
        </CharString>
        <CharString name="d">
          26 -7 111 -83 -21 395 116 hstemhm
          390 155 hintmask 10110000
          99 508 rmoveto
          -38 -359 rlineto
          hintmask 01110000
          -25 -149 rlineto
          hintmask 10110000
          -4 61 93 -3 49 hhcurveto
          200 106 120 197 129 -83 72 -139 hvcurveto
          -52 -407 rmoveto
          -17 -35 3 4 -27 hvcurveto
          5 53 34 228 rlineto
          2 26 30 1 16 hhcurveto
          59 28 -31 -78 -135 -46 -47 -73 hvcurveto
          endchar
        </CharString>
        <CharString name="d.sups">
          -214 579 67 0 -20 hstemhm
          44 87 hintmask 01100000
          360 812 rmoveto
          -96 -6 -2 -73 -12 -92 -35 5 rlineto
          -5 hlineto
          -113 -28 -53 -99 -92 vvcurveto
          -54 17 -36 63 -18 vhcurveto
          13 hlineto
          29 30 26 39 22 42 rrcurveto
          7 hlineto
          -14 -108 95 6 4 74 rlineto
          -157 1 rmoveto
          -8 -10 17 43 hvcurveto
          hintmask 10100000
          68 23 48 42 vhcurveto
          44 -9 -5 -36 rlineto
          hintmask 01100000
          -86 -40 -32 -45 -14 hhcurveto
          endchar
        </CharString>
        <CharString name="dagger">
          -31 -73 -21 407 102 177 -20 hstemhm
          49 444 -286 104.5 hintmask 11110000
          474 313 rmoveto
          19 92 -9 10 rlineto
          -157 hlineto
          23 168 -8 9 -99 -8 -21 -169 rlineto
          -153 hlineto
          -20 -92 9 -10 rlineto
          hintmask 11101000
          151 hlineto
          -4 -33 -44 -363 8 -11 96 7 45 377 3 23 rlineto
          endchar
        </CharString>
        <CharString name="daggerdbl">
          -31 -73 -21 156 103 161 102 164 -20 hstem
          19 475 vstem
          311 290 rmoveto
          5 36 rlineto
          159 hlineto
          19 92 -9 10 rlineto
          -156 hlineto
          20 155 -7 9 -99 -8 -19 -156 rlineto
          -154 hlineto
          -19 -92 9 -10 rlineto
          151 hlineto
          -6 -46 -14 -115 rlineto
          -153 hlineto
          -19 -92 8 -11 rlineto
          152 hlineto
          -18 -145 8 -11 96 7 18 149 rlineto
          160 hlineto
          19 93 -9 10 rlineto
          -157 hlineto
          endchar
        </CharString>
        <CharString name="dcaron">
          26 -7 111 -83 -21 395 116 199 -20 hstemhm
          390 155 hintmask 10111000
          323 566 rmoveto
          58 53 55 51 49 40 -30 58 rcurveline
          -16 hlineto
          -45 -31 -44 -29 -33 -27 -26 27 -34 29 -38 31 rrcurveto
          -15 hlineto
          -45 -58 46 -46 49 -51 38 -47 rlinecurve
          -193 -58 rmoveto
          -38 -359 rlineto
          hintmask 01111000
          -25 -149 rlineto
          hintmask 10111000
          -4 60 93 -3 50 hhcurveto
          200 106 120 197 129 -84 72 -139 hvcurveto
          -51 -407 rmoveto
          -17 -35 3 4 -27 hvcurveto
          5 53 34 228 rlineto
          2 26 30 1 16 hhcurveto
          58 29 -31 -78 -135 -47 -47 -72 hvcurveto
          endchar
        </CharString>
        <CharString name="dcroat">
          26 -7 111 -83 -21 395 116 105 96 -10 10 hstemhm
          390 155 hintmask 10110100
          183 616 rmoveto
          279 hlineto
          hintmask 10101100
          8 86 -10 10 rlineto
          hintmask 01110100
          -279 hlineto
          -7 -86 rlineto
          -75 -118 rmoveto
          -38 -359 -25 -149 rlineto
          hintmask 10110100
          -4 60 93 -3 50 hhcurveto
          200 106 120 197 129 -84 72 -139 hvcurveto
          -51 -407 rmoveto
          -17 -35 3 4 -27 hvcurveto
          5 53 34 228 rlineto
          2 26 30 1 16 hhcurveto
          58 29 -31 -78 -135 -47 -47 -72 hvcurveto
          endchar
        </CharString>
        <CharString name="degree">
          -248 392 65 133 65 hstem
          49 66 134 66 vstem
          198 655 rmoveto
          -79 -70 -65 -80 -66 49 -52 68 79 70 65 80 66 -49 52 -68 hvcurveto
          -8 -65 rmoveto
          35 24 -25 -34 -42 -34 -32 -41 -35 -24 25 34 42 33 32 42 hvcurveto
          endchar
        </CharString>
        <CharString name="dieresis">
          549 144 -143 144 hstemhm
          81 141 41 141 hintmask 01110000
          155 694 rmoveto
          -46 -28 -29 -46 -44 24 -25 44 45 28 29 46 43 -25 26 -42 hvcurveto
          hintmask 10110000
          182 -1 rmoveto
          -46 -28 -28 -46 -45 24 -25 44 45 28 29 47 43 -25 25 -42 hvcurveto
          endchar
        </CharString>
        <CharString name="dieresis.i">
          549 144 hstemhm
          90 141 23 141 hintmask 11000000
          164 693 rmoveto
          -46 -28 -29 -46 -44 24 -25 44 45 28 29 46 44 -25 25 -42 hvcurveto
          hintmask 11100000
          164 hmoveto
          -46 -28 -29 -46 -44 24 -25 44 45 28 29 46 44 -25 25 -42 hvcurveto
          endchar
        </CharString>
        <CharString name="dieresisacute">
          531 142 hstem
          80 139 41 139 vstem
          358 862 rmoveto
          -13 6 -76 -29 -73 -24 -82 -24 rlinecurve
          14 -68 13 -6 75 9 74 11 84 14 rlinecurve
          7 13 rlineto
          -228 -91 rmoveto
          -46 -27 -28 -45 -44 24 -25 43 45 27 29 46 42 -24 25 -42 hvcurveto
          180 hmoveto
          -45 -28 -28 -45 -44 25 -25 43 44 27 29 46 42 -24 25 -42 hvcurveto
          endchar
        </CharString>
        <CharString name="dieresiscaron">
          531 142 hstem
          85 139 41 139 vstem
          387 854 rmoveto
          -15 hlineto
          -41 -21 -42 -20 -39 -21 -35 21 -34 20 -34 21 rrcurveto
          -15 hlineto
          -35 -62 48 -35 46 -36 39 -38 rlinecurve
          30 hlineto
          44 38 49 36 55 35 rrcurveto
          -250 -119 rmoveto
          -46 -27 -28 -45 -44 24 -25 43 45 27 29 46 42 -25 25 -41 hvcurveto
          180 hmoveto
          -45 -28 -28 -45 -44 24 -25 44 44 27 29 46 42 -24 25 -42 hvcurveto
          endchar
        </CharString>
        <CharString name="dieresisgrave">
          531 142 hstem
          79 139 41 140 vstem
          161 862 rmoveto
          -35 -98 7 -13 81 -14 73 -11 73 -9 rlinecurve
          15 6 21 68 -78 24 -71 24 -72 29 rlinecurve
          -21 -195 rmoveto
          -46 -29 -30 -45 -43 23 -24 42 46 28 30 47 41 -23 24 -41 hvcurveto
          180 hmoveto
          -46 -29 -30 -45 -43 23 -24 43 46 28 30 47 41 -24 24 -41 hvcurveto
          endchar
        </CharString>
        <CharString name="dieresismacron">
          531 142 54 97 hstem
          85 139 42 139 vstem
          410 813 rmoveto
          -11 11 rlineto
          -288 hlineto
          -8 -86 11 -11 rlineto
          287 hlineto
          -243 -54 rmoveto
          -45 -28 -28 -45 -44 24 -25 44 44 27 29 46 42 -24 25 -42 hvcurveto
          181 hmoveto
          -45 -28 -28 -45 -44 24 -25 43 45 27 29 46 42 -24 25 -42 hvcurveto
          endchar
        </CharString>
        <CharString name="divide">
          -63 23 139 44 105 46 139 hstemhm
          153 136 -96 137 hintmask 00000000
          hintmask 01101000
          265 496 rmoveto
          -44 -28 -28 -44 -43 24 -24 43 43 27 28 44 42 -24 25 -41 hvcurveto
          198 -196 rmoveto
          -11 11 rlineto
          -422 hlineto
          -7 -94 10 -11 rlineto
          422 hlineto
          hintmask 11010000
          -231 -44 rmoveto
          -44 -27 -28 -44 -43 23 -24 43 43 27 28 45 42 -23 24 -42 hvcurveto
          endchar
        </CharString>
        <CharString name="divisionslash">
          -258 -116 12 772 13 hstem
          -37 377 vstem
          340 668 rmoveto
          -11 13 rlineto
          -104 hlineto
          -262 -785 8 -12 rlineto
          108 hlineto
          endchar
        </CharString>
        <CharString name="dollar">
          -86 -136 11 115 106 -85 -21 525 -20 136 13 hstemhm
          57 149 48 148 hintmask 10111110
          206 369 rmoveto
          20 17 17 30 30 44 -16 -32 41 vhcurveto
          22 5 35 127 -32 13 -40 9 -41 3 rlinecurve
          14 116 -12 13 rlineto
          -76 hlineto
          -15 -133 rlineto
          -105 -20 -61 -73 -84 vvcurveto
          hintmask 11011110
          -146 197 10 -62 vvcurveto
          -22 -21 -18 -30 -40 -60 26 41 -44 vhcurveto
          -15 -10 -35 -133 51 -20 57 -8 44 -2 rlinecurve
          -12 -115 10 -11 rlineto
          77 hlineto
          15 134 rlineto
          105 25 46 78 71 vvcurveto
          hintmask 10111110
          145 -196 -10 62 vvcurveto
          endchar
        </CharString>
        <CharString name="dotaccent">
          545 163 hstem
          163 159 vstem
          246 708 rmoveto
          -51 -32 -33 -52 -49 27 -29 50 50 32 33 52 49 -28 29 -48 hvcurveto
          endchar
        </CharString>
        <CharString name="dotbelowcomb">
          -541 -210 162 hstem
          70 159 vstem
          153 -48 rmoveto
          -51 -32 -32 -52 -50 27 -28 50 50 32 33 52 48 -28 29 -48 hvcurveto
          endchar
        </CharString>
        <CharString name="dotlessi">
          -254 21 -21 508 -20 hstem
          37 212 vstem
          198 164 rmoveto
          51 344 rlineto
          -149 hlineto
          -38 -359 -25 -149 rlineto
          147 hlineto
          endchar
        </CharString>
</ttFont>
